<?xml version="1.0" encoding="UTF-8" standalone="no"?>
<svg
   version="1.1"
   viewBox="0 0 422.41699 103"
   stroke="none"
   stroke-linecap="square"
   stroke-miterlimit="10"
   id="svg1"
   sodipodi:docname="skyline(1).svg"
   xml:space="preserve"
   width="422.41699"
   height="103"
   xmlns:inkscape="http://www.inkscape.org/namespaces/inkscape"
   xmlns:sodipodi="http://sodipodi.sourceforge.net/DTD/sodipodi-0.dtd"
   xmlns="http://www.w3.org/2000/svg"
   xmlns:svg="http://www.w3.org/2000/svg"><defs
     id="defs1" /><sodipodi:namedview
     id="namedview1"
     pagecolor="#ffffff"
     bordercolor="#000000"
     borderopacity="0.25"
     inkscape:showpageshadow="2"
     inkscape:pageopacity="0.0"
     inkscape:pagecheckerboard="0"
     inkscape:deskcolor="#d1d1d1" /><g
     clip-path="url(#p.0)"
     id="g1"
     transform="translate(4)"><path
       d="m 102.86266,12.233753 c -0.0437,0 -0.0933,0.01179 -0.14574,0.03537 -0.22737,0.104931 -0.32502,0.34191 -0.19531,0.499897 0.15595,0.207504 0.28858,0.308899 0.38624,0.308899 0.1268,0 0.19967,-0.167419 0.19967,-0.492824 0,-0.222831 -0.0962,-0.351342 -0.24486,-0.351342 z m -0.49554,1.58458 c -0.52469,0 -0.91384,1.039879 -0.75643,2.05618 0.0656,0.525835 -0.1953,0.683821 -1.26801,0.762814 -1.106225,0.104933 -1.269464,0.183926 -0.846795,0.578892 0.260887,0.262916 0.878865,0.473959 1.399175,0.473959 0.52033,0 1.07271,0.157985 1.23595,0.341909 0.10348,0.168598 0.27109,0.252308 0.41684,0.252308 0.0364,0 0.0714,-0.0047 0.10348,-0.01533 0.12971,-0.07899 0.84534,-0.341912 1.59449,-0.57889 0.77974,-0.290036 1.30152,-0.71094 1.30152,-1.052851 0,-0.372564 -0.20404,-0.580069 -0.45764,-0.580069 -0.17637,0 -0.37749,0.101395 -0.55093,0.317152 -0.17782,0.224011 -0.35272,0.328942 -0.5043,0.328942 -0.29295,0 -0.50428,-0.390249 -0.50428,-1.065819 -0.0335,-1.15778 -0.32502,-1.683616 -1.10623,-1.815663 -0.0189,-0.0024 -0.0379,-0.0035 -0.0568,-0.0035 z M 68.138195,35.793762 c 0.227364,0 0.422669,0.13205 0.422669,0.315972 0,0.183925 -0.09765,0.341911 -0.195305,0.341911 -0.09765,0 -0.292954,-0.157985 -0.422669,-0.341911 -0.129715,-0.183922 -0.06558,-0.315972 0.195305,-0.315972 z m 183.189245,17.70744 c -0.0641,0 -0.11368,0.262921 -0.11368,0.713299 0,0.440945 0.0481,0.702687 0.10931,0.702687 0.0277,0 0.0568,-0.04834 0.086,-0.150914 0.0977,-0.315975 0.0977,-0.815872 0,-1.130664 -0.0277,-0.09196 -0.0568,-0.134407 -0.0816,-0.134408 z m 4.93357,-7.815609 c -10e-4,0 -0.003,0 -0.006,0.0024 -0.12973,0.07899 -0.32502,2.447609 -0.45474,5.237129 -0.16324,2.788341 -0.32501,5.289005 -0.42267,5.525985 -0.0976,0.236977 -0.0976,0.578888 0.0321,0.736874 0.13408,0.175675 0.25068,0.27235 0.34979,0.27235 0.40665,0 0.548,-1.604622 0.62671,-5.956321 0.0321,-3.22575 -0.0306,-5.818379 -0.12534,-5.818379 z m -4.9292,10.364613 c -0.0525,0 -0.086,0.4044 -0.086,1.110623 0,0.707401 0.0335,1.111797 0.086,1.111797 0.0233,0 0.0481,-0.07074 0.0772,-0.216934 0.0977,-0.473961 0.0977,-1.289829 0,-1.789726 -0.0291,-0.146199 -0.0539,-0.21576 -0.0772,-0.21576 z m -0.0233,3.234005 c -0.0772,0 -0.1268,0.186284 -0.1268,0.508152 0,0.321866 0.0496,0.508149 0.1268,0.508149 0.0306,0 0.0641,-0.02829 0.10057,-0.08725 0.0977,-0.236981 0.0977,-0.604828 0,-0.841809 -0.0364,-0.05895 -0.07,-0.08725 -0.10057,-0.08725 z M 81.930344,55.529088 c 0.260887,0 0.454735,0.290036 0.454735,0.657883 0,0.34309 0.195297,0.657883 0.390602,0.657883 0.227364,0 0.422668,-0.156807 0.422668,-0.341908 0,-0.203968 0.434334,-0.308899 0.957566,-0.308899 0.489715,0 1.056671,0.09196 1.418129,0.282959 0.390602,0.183926 0.422668,0.341912 0.09765,0.499897 -0.228821,0.13205 -0.456192,0.446843 -0.456192,0.736878 0,0.228725 0.03935,0.340732 0.151581,0.340732 0.09619,0 0.243401,-0.07899 0.466393,-0.235801 0.281295,-0.186283 0.505745,-0.269993 0.666069,-0.269993 0.358543,0 0.389145,0.422085 -0.01457,1.059925 -0.292953,0.446842 -0.424125,0.973854 -0.260894,1.15778 0.163238,0.209861 0.06559,0.604828 -0.195298,0.867748 -0.3498,0.338371 -0.743316,0.490463 -1.122261,0.490463 -0.891975,0 -1.708168,-0.840629 -1.708168,-2.095089 0,-0.473957 -0.259429,-1.052849 -0.584449,-1.315765 -0.781212,-0.631947 -1.269463,-2.184693 -0.683556,-2.184693 z m 8.227478,4.944737 c 0.475136,0 1.173271,0.325405 1.173271,0.634304 0,0.183926 -0.259437,0.341911 -0.585907,0.341911 -0.650039,0 -1.268013,-0.604828 -0.910927,-0.894863 0.0787,-0.05659 0.192383,-0.08135 0.323563,-0.08135 z m 161.175448,1.044597 c -0.0539,0 -0.0874,0.326584 -0.0874,0.905472 0,0.577713 0.0335,0.917267 0.086,0.917267 0.0233,0 0.0481,-0.05777 0.0772,-0.180389 0.0977,-0.394966 0.0977,-1.078785 0,-1.473751 -0.0291,-0.114365 -0.0539,-0.168599 -0.0758,-0.168599 z m 5.16533,-24.973633 c 0.82199,0 0.97504,0.156807 1.05811,0.82766 0.29297,2.052643 0.0976,3.026497 -0.84534,4.105286 -0.71561,0.841808 -0.71561,0.973858 -0.16324,1.473755 0.55386,0.499897 0.61798,2.578476 0.65149,15.867016 0.0263,11.468163 -0.12823,16.078056 -0.60046,16.078056 -0.0918,0 -0.19532,-0.172135 -0.31046,-0.499894 -0.13116,-0.341911 -0.19528,-1.762611 -0.13116,-3.183311 0.0335,-1.421875 -0.12973,-2.605591 -0.35709,-2.710526 -0.22737,-0.07899 -0.1953,-0.236976 0.0977,-0.341911 0.7156,-0.264091 0.65002,-1.447815 -0.0977,-1.447815 -0.48825,0 -0.55238,0.578896 -0.48825,3.447403 0.0656,1.894661 -0.0321,3.710327 -0.1953,4.026299 -0.006,0.01533 -0.0131,0.0224 -0.0189,0.0224 -0.1268,0 -0.274,-2.820175 -0.274,-6.496307 -0.0306,-3.788132 0.0933,-6.819347 0.22008,-6.819347 0.003,0 0.006,0.0012 0.009,0.0047 0.16177,0.104931 0.32501,1.28865 0.35709,2.604416 0.067,2.029064 0.1195,2.785984 0.28274,2.785984 0.0743,0 0.17052,-0.155632 0.30316,-0.417366 0.49115,-0.868927 0.51886,-2.651577 0.0831,-2.651577 -0.0262,0 -0.0539,0.0071 -0.0831,0.02004 -0.067,0.0448 -0.13409,0.06485 -0.1924,0.06485 -0.11367,0 -0.19821,-0.07546 -0.19821,-0.196896 0,-0.183925 0.1953,-0.341911 0.39061,-0.341911 0.58591,0 0.52033,-1.446636 -0.0976,-1.973648 -0.24486,-0.21458 -0.33669,-0.314796 -0.27401,-0.314796 0.0364,0 0.12825,0.03537 0.27401,0.104934 0.0656,0.03065 0.12387,0.04716 0.17636,0.04716 0.2536,0 0.34396,-0.391427 0.34396,-1.311051 0,-1.130665 -0.16324,-1.499691 -0.61798,-1.499691 -0.52032,0 -0.58591,0.236981 -0.39059,1.105904 0.16322,0.657882 0.0976,1.209659 -0.16179,1.341705 -0.006,0.0024 -0.0102,0.0035 -0.0146,0.0035 -0.25215,0 -0.40954,-3.402599 -0.44162,-10.581547 -0.032,-5.920952 -0.0976,-11.288952 -0.12971,-11.920895 -0.0656,-1.052848 0,-1.131843 1.3336,-1.209659 0.19092,-0.0083 0.35709,-0.01297 0.50284,-0.01297 z M 201.83433,1.2442715 c -1.26946,0 -3.15545,1.2627118 -3.15545,2.1304576 0,0.3159728 -0.35853,0.4998972 -0.94299,0.4998972 -0.68355,0 -1.10622,0.3159726 -1.59448,1.2367737 -0.61797,1.2108355 -0.81326,1.8427811 -1.5289,4.684177 -0.84534,3.421466 -1.39917,4.394143 -2.63512,4.658239 -0.61796,0.13087 -1.30153,0.420905 -1.46332,0.657884 -0.55383,0.736877 -0.84678,6.314739 -0.48825,10.104054 l 0.32502,3.736259 -1.10622,0.315971 c -0.7477,0.211043 -1.17037,0.57889 -1.20389,1.026913 -0.0321,0.393786 -0.16177,8.499428 -0.29149,17.998653 l -0.26089,17.26178 -1.7242,0.104927 c -0.17343,0.0094 -0.33667,0.01415 -0.49117,0.01415 -0.74186,0 -1.23303,-0.102577 -1.23303,-0.277069 0,-0.183922 -0.45472,-0.341912 -1.00857,-0.341912 -0.81328,0 -1.04064,-0.157982 -1.04064,-0.762817 0,-0.394962 -0.19531,-0.894859 -0.42268,-1.1059 -0.26088,-0.209862 -0.48825,-1.946533 -0.52031,-4.157165 -0.0656,-3.289418 -0.16324,-3.868306 -0.81328,-4.263272 -0.61796,-0.367851 -0.7812,-0.999794 -0.91092,-4.078171 -0.12971,-3.421466 -0.0977,-3.658443 0.65003,-3.815254 0.74914,-0.157986 0.81327,-0.473957 0.81327,-4.789108 0,-2.5266 -0.12971,-4.842163 -0.25942,-5.132198 -0.14576,-0.307721 -0.27547,-0.459809 -0.39061,-0.459809 -0.37603,0 -0.58591,1.625843 -0.58591,4.74902 0,2.710529 -0.12972,4.421261 -0.3906,4.421261 -0.25943,0 -0.42266,-1.473751 -0.42266,-3.71032 -0.0321,-5.263069 -0.32503,-6.262863 -2.43984,-7.815609 -1.16014,-0.868927 -2.07252,-1.296905 -2.95138,-1.296905 -0.77102,0 -1.51578,0.330124 -2.38299,0.98093 -0.74769,0.552956 -1.85392,1.263893 -2.47189,1.55275 -0.7812,0.394966 -1.13829,0.815868 -1.13829,1.420696 0,0.473961 -0.16324,1.315769 -0.42413,1.842781 -0.22736,0.551773 -0.45473,3.999176 -0.48679,7.709499 -0.0918,5.74646 -0.15449,6.615383 -0.67044,6.615383 -0.035,0 -0.0714,-0.0035 -0.11078,-0.01061 -0.0641,-0.0071 -0.12388,-0.01179 -0.18072,-0.01179 -0.71709,0 -0.85117,0.72155 -1.15287,4.721904 -0.3906,4.842163 -0.61798,5.762966 -1.43124,5.762966 -0.65004,0 -0.71562,-1.236774 -0.78122,-18.130703 -0.0641,-9.972004 -0.16177,-18.287512 -0.25943,-18.498552 -0.29587,-0.597753 -0.89197,-0.906652 -1.65715,-0.906652 -0.41392,0 -0.87741,0.09078 -1.36857,0.275886 -0.59465,0.240517 -0.93425,0.36549 -1.18348,0.36549 -0.26817,0 -0.43287,-0.145017 -0.70251,-0.444482 -0.29295,-0.34309 -0.58591,-1.28983 -0.61942,-2.131638 -0.0962,-2.368616 -0.12971,-2.578478 -0.45474,-2.842575 -0.16324,-0.130869 -0.29295,-0.551773 -0.29295,-0.920801 0,-0.367849 -0.39061,-1.789726 -0.84534,-3.15737 -0.81328,-2.447609 -1.23595,-4.000355 -1.98509,-7.7366147 -0.22736,-1.0787868 -0.58444,-2.5525403 -0.74768,-3.2894168 l -0.35709,-1.3157673 -0.22882,0.9997945 c -0.16179,0.5270142 -0.4868,2.3945541 -0.71562,4.1052866 -0.25943,1.7107337 -0.65004,3.7893147 -0.84534,4.6051847 -0.22737,0.81587 -0.68356,2.526603 -1.00857,3.789315 -0.61798,2.289623 -1.91951,4.921156 -2.63514,5.263067 -0.22737,0.104931 -0.3906,0.788754 -0.3906,1.499691 0,0.920801 -0.16178,1.28983 -0.61797,1.28983 -0.32501,0 -0.61797,-0.157986 -0.61797,-0.315974 0,-0.185102 -0.16179,-0.341911 -0.39061,-0.341911 -0.22737,0 -0.42266,0.209864 -0.42266,0.47278 0,0.236981 -0.42267,0.527016 -0.943,0.631947 -1.30153,0.262916 -1.4633,0.946739 -1.4633,5.735845 l -0.0335,4.026295 -2.92662,-0.209862 c -1.62656,-0.106109 -3.83901,-0.290035 -4.91172,-0.448021 -0.42849,-0.05777 -0.81036,-0.08725 -1.1485,-0.08725 -1.33358,0 -1.97488,0.458634 -1.97488,1.403012 0,0.315975 -0.32501,0.685001 -0.71562,0.789932 -0.65004,0.157989 -0.71562,0.736877 -0.58591,7.130608 0.0656,3.842373 -0.0321,7.078731 -0.1953,7.236721 -0.1166,0.07781 -0.59028,0.128509 -1.23157,0.128509 -0.43287,0 -0.94299,-0.0224 -1.46768,-0.07545 -2.31011,-0.185104 -2.3757,-0.211044 -2.11481,-1.052848 0.78121,-2.499489 0.74769,-2.552544 -0.45473,-2.736466 -0.38186,-0.06131 -0.68502,-0.0955 -0.92405,-0.0955 -0.7025,0 -0.86573,0.297108 -0.86573,1.121231 0,1.236775 -0.78122,1.973652 -2.21246,2.078583 l -1.23595,0.10611 -0.29295,-2.631535 c -0.12971,-1.447815 -0.16178,-2.894451 -0.0641,-3.184486 0.0976,-0.315972 0.22736,-5.893833 0.29295,-12.393673 l 0.0641,-11.841904 -1.00857,-0.157986 c -0.0889,-0.01297 -0.18801,-0.02004 -0.29296,-0.02004 -1.07708,0 -2.82167,0.685001 -2.4063,1.021017 0.0335,0.02712 0.086,0.04009 0.15012,0.04009 0.18073,0 0.4562,-0.102573 0.69523,-0.277067 0.0554,-0.03655 0.10493,-0.05895 0.15157,-0.05895 0.41975,0 0.50283,1.79562 0.53198,10.636959 0,6.025882 0.0977,15.367123 0.19531,20.762238 l 0.16178,9.788082 h -3.67577 l -0.0641,-7.341652 c -0.0656,-7.367588 -0.0977,-8.420437 -0.22882,-12.498608 -0.0977,-1.973648 -0.19385,-2.210629 -0.90947,-2.210629 -0.68356,0 -0.81328,-0.23698 -0.87886,-1.39476 l -0.0656,-1.39476 -0.29296,1.473755 c -0.0219,0.11554 -0.0437,0.172134 -0.0641,0.172134 -0.13117,0 -0.223,-2.19059 -0.19531,-5.593189 0.0321,-3.947302 -0.12971,-7.604568 -0.3906,-8.551306 l -0.42267,-1.657678 -0.32502,1.393581 c -0.22882,1.052849 -0.52032,1.421877 -1.07416,1.421877 -0.48825,0 -0.74769,-0.236981 -0.68356,-0.57889 0.0335,-0.315973 0,-1.421877 -0.0321,-2.421671 l -0.0656,-1.841602 -1.20242,0.157985 c -0.27692,0.03183 -0.49263,0.05306 -0.66024,0.05306 -0.52032,0 -0.5757,-0.205147 -0.5757,-0.92198 0,-0.709758 0.19384,-1.025732 0.61797,-1.025732 0.32502,0 0.61797,-0.23698 0.61797,-0.499897 0,-0.260559 -0.11368,-0.372564 -0.42558,-0.372564 -0.16033,0 -0.37312,0.02947 -0.64858,0.08253 -0.23612,0.04598 -0.44016,0.06956 -0.62089,0.06956 -0.43578,0 -0.72874,-0.139122 -1.00566,-0.43741 -0.24486,-0.274706 -0.42413,-0.398503 -0.61943,-0.398503 -0.14283,0 -0.29441,0.06602 -0.4868,0.187462 -0.2157,0.140301 -0.54947,0.222832 -0.86137,0.222832 -0.15741,0 -0.30898,-0.02122 -0.4387,-0.06485 -0.18947,-0.05895 -0.32793,-0.09196 -0.42121,-0.09196 -0.19385,0 -0.18948,0.140301 -0.035,0.460989 0.16324,0.315973 0.0977,1.499691 -0.16178,2.604418 -0.260889,1.105903 -0.48826,2.447609 -0.553842,3.000561 -0.06559,0.525835 -0.129723,1.157781 -0.161782,1.39476 -0.03352,0.235799 -0.358543,0.420904 -0.683563,0.420904 -0.749145,0 -0.749145,-0.448021 0.03207,-2.158754 0.434333,-1.004509 0.604858,-1.448994 0.505744,-1.448994 -0.06558,0 -0.2434,0.187462 -0.537811,0.528192 -1.431244,1.684796 -1.951561,4.421261 -2.244514,12.44673 -0.195305,4.816227 -0.553849,9.052383 -0.976517,10.84211 -0.357079,1.630562 -0.747688,5.314945 -0.877403,8.209396 -0.09765,2.868512 -0.292954,5.34206 -0.390602,5.500046 -0.07142,0.07192 -0.231743,0.112008 -0.425583,0.112008 -0.160324,0 -0.342507,-0.02712 -0.517411,-0.08607 -1.008575,-0.315975 -4.13195,-2.605598 -4.13195,-3.05244 0,-0.183922 -0.454735,-0.9208 -1.072708,-1.631737 -0.715622,-0.894863 -1.367119,-1.315769 -1.985092,-1.315769 -1.560959,0 -3.025727,-0.604828 -3.025727,-1.236775 0,-0.867744 -0.81327,-1.39476 -2.113342,-1.39476 -1.367119,0 -1.431251,0.211045 -0.292953,1.184899 0.779747,0.683822 0.81327,0.867748 0.390602,2.578479 -0.520325,1.920594 -0.358544,2.499485 0.617973,2.499485 0.617966,0 0.747688,0.921982 0.325012,2.236569 -0.137001,0.377281 -0.389145,0.603649 -0.639831,0.603649 -0.04664,0 -0.09474,-0.0071 -0.141373,-0.02476 -0.03935,-0.01061 -0.07871,-0.01533 -0.115143,-0.01533 -0.322105,0 -0.523231,0.419724 -0.698135,1.410088 -0.325012,2.000763 -0.488251,2.368614 -0.975052,2.368614 -0.292954,0 -0.422669,-2.657471 -0.422669,-7.78849 0,-4.209042 -0.125343,-7.556229 -0.28421,-7.556229 -0.0029,0 -0.0058,0.0012 -0.0087,0.0035 -0.195305,0.13205 -0.326477,3.605393 -0.326477,7.710678 v 7.446583 l -2.503952,0.104927 -2.505409,0.104935 -0.129715,-8.946274 c -0.09765,-6.815815 -0.25943,-8.999325 -0.650032,-9.104259 -0.292954,-0.07899 -0.520325,-0.631943 -0.520325,-1.26389 0,-1.236774 -1.139748,-2.42049 -2.375694,-2.42049 -1.072701,0 -1.203873,-0.23698 -0.845337,-1.55275 0.195305,-0.736873 0.813278,-1.499691 1.594482,-1.999588 0.682106,-0.420902 1.235947,-0.920799 1.235947,-1.104725 0,-0.157985 -0.651497,-0.606006 -1.431244,-1.000972 -1.5289,-0.709759 -1.951569,-1.999588 -0.781212,-2.36744 0.781212,-0.262916 0.358536,-0.868923 -0.585907,-0.868923 -0.390602,0 -0.975052,-0.367847 -1.268005,-0.815868 -0.292954,-0.446842 -0.71563,-0.815872 -0.878861,-0.815872 -0.195305,0 -0.357086,-0.393788 -0.357086,-0.841809 0,-0.606006 -0.08891,-0.785213 -0.664612,-0.785213 -0.123886,0 -0.26963,0.0083 -0.441612,0.0224 -0.845345,0.07899 -1.138298,0.315973 -1.235947,0.946739 -0.09765,0.448021 -0.358539,0.947918 -0.617973,1.131844 -0.260887,0.183921 -0.715622,0.762813 -1.008575,1.289829 -0.422669,0.78875 -0.422669,1.02573 0,1.26271 0.237571,0.143837 0.31773,0.209862 0.227367,0.209862 -0.0583,0 -0.186558,-0.02712 -0.390606,-0.07781 -0.119511,-0.03183 -0.233196,-0.04716 -0.342506,-0.04716 -0.636917,0 -1.107685,0.529373 -1.413758,1.651783 -0.163234,0.552952 -0.650035,1.289829 -1.040638,1.631741 -1.008579,0.920799 -1.594486,2.289623 -1.594486,3.762195 0,0.789932 -0.25943,1.447815 -0.683555,1.710732 -0.357083,0.26292 -1.040642,1.131843 -1.528901,1.947715 -0.77975,1.341702 -0.845336,2.18351 -0.975051,9.604153 l -0.129715,8.15752 -1.074166,0.183922 c -5.822632,1.026917 -8.555408,3.526398 -9.205444,8.473496 -0.240486,1.675361 -0.397892,2.141067 -0.854084,2.141067 -0.03935,0 -0.0787,-0.0035 -0.122429,-0.0094 -0.618005,-0.10493 -0.682134,-0.947917 -0.747724,-8.341442 C 42.60169,56.293081 42.276674,52.24085 41.4634,51.503973 41.106317,51.188002 40.19539,50.7671 39.446245,50.583174 38.210302,50.240084 38.048521,50.056158 38.015001,49.00331 37.917349,46.79386 37.85322,46.161913 37.49468,43.793299 c -0.390606,-2.631535 -0.520321,-2.736465 -3.935196,-2.736465 -1.008579,0 -2.017155,-0.157986 -2.278044,-0.341912 -0.180727,-0.15327 -0.396432,-0.221653 -0.613597,-0.221653 -0.565503,0 -1.142666,0.46217 -1.142666,1.089398 0,0.868927 0.78121,0.789932 -11.190533,0.947918 -1.788329,0.02594 -3.773417,0.23698 -4.391389,0.446842 -0.73457,0.240516 -1.416671,0.359596 -1.902011,0.359596 -0.524694,0 -0.817647,-0.139122 -0.699591,-0.411472 0.0787,-0.190998 0.491171,-0.312435 1.157239,-0.312435 0.163238,0 0.34105,0.0071 0.533438,0.0224 0.313358,0.02123 0.56113,0.03183 0.754975,0.03183 0.54947,0 0.641291,-0.09432 0.448904,-0.347805 -0.195303,-0.262916 -0.357083,-0.604828 -0.357083,-0.788753 0,-0.183922 -0.195302,-0.315972 -0.424127,-0.341912 -0.227366,0 -0.811816,-0.1851 -1.333594,-0.420902 -0.367285,-0.168598 -0.851169,-0.257023 -1.251976,-0.257023 -0.164695,0 -0.316273,0.01533 -0.438702,0.04598 -0.6514929,0.157985 -0.7812088,0.499897 -0.7156227,2.236568 0.032065,1.105904 -0.097651,2.342678 -0.2608881,2.736462 -0.2055054,0.501079 -1.2694654,0.9491 -1.8786926,0.9491 -0.2550592,0 -0.4299564,-0.07782 -0.4299564,-0.264099 0,-0.166237 -0.02915,-0.247589 -0.084534,-0.247589 -0.1821852,0 -0.6558662,0.881893 -1.3802338,2.536034 -0.6179719,1.473754 -1.3656592,2.526603 -2.1789331,3.079555 L 2.2979877,52.39883 2.2003367,61.74007 C 2.102685,71.370165 2.005034,71.976175 0.41200796,71.976175 c -0.48825592,0 -0.5859071,2.157578 -0.5859071,14.630241 V 101.23667 H 415.81282 l -0.0977,-23.918432 -0.0977,-23.946724 -0.94296,-1.39476 c -0.48829,-0.788753 -1.10624,-2.341499 -1.3992,-3.499279 l -0.48826,-2.078582 -2.99221,-0.236981 c -0.70542,-0.05306 -1.29862,-0.08489 -1.79853,-0.08489 -2.24597,0 -2.6249,0.657882 -2.91787,3.111389 -0.22736,1.657677 -0.61795,2.631534 -1.69214,4.078171 l -1.43125,1.868717 v 4.998974 5.000149 l -1.39917,-0.211044 c -0.77975,-0.130867 -2.04922,-0.446839 -2.82898,-0.709755 L 396.2957,63.739664 V 61.34511 c 0,-1.473755 -0.22882,-2.631535 -0.55383,-3.026501 -0.29297,-0.367847 -0.6821,-1.078789 -0.81327,-1.578686 -0.1618,-0.473957 -0.45474,-0.894863 -0.68212,-0.894863 -0.22883,0 -0.3906,-0.367847 -0.3906,-0.78875 0,-0.775783 -1.46768,-1.986621 -2.23868,-1.986621 -0.11953,0 -0.22155,0.0283 -0.29879,0.09196 -0.19529,0.157986 -0.45618,3.762196 -0.58591,7.972416 -0.1297,4.237332 -0.3906,7.999531 -0.55237,8.368557 -0.21863,0.484574 -0.52762,0.618981 -2.07254,0.618981 -0.30026,0 -0.64859,-0.0059 -1.05084,-0.01415 -3.18753,-0.02593 -3.77344,-0.209862 -3.77344,-1.104721 0,-0.692078 -1.35983,-0.957352 -5.57629,-0.957352 -0.91678,0 -1.97052,0.01297 -3.17441,0.03655 l -5.2688,0.104927 -0.22882,1.973648 -0.19528,1.973656 h -7.31803 l -0.0976,-12.604721 c -0.0656,-10.868046 0,-12.604717 0.52032,-12.762703 0.32501,-0.104931 0.58591,-0.499897 0.58591,-0.867745 0,-0.338375 -0.11221,-0.496361 -0.33521,-0.496361 -0.0714,0 -0.15597,0.01651 -0.2507,0.04834 -0.0393,0.01179 -0.0743,0.01769 -0.10785,0.01769 -0.45474,0 -0.51013,-1.103546 -0.51013,-6.49041 0,-3.657264 -0.13116,-6.999738 -0.26086,-7.420643 -0.19532,-0.57889 -0.0642,-0.789932 0.61795,-0.920801 1.04065,-0.236978 1.10623,-0.710937 0.19531,-1.263891 -0.58591,-0.34191 -0.71564,-1.104725 -0.77976,-4.394142 -0.0335,-2.631535 -0.22882,-4.157164 -0.5859,-4.473135 -0.35855,-0.341911 -0.35855,-0.499897 -0.0656,-0.499897 0.26089,0 0.45617,-0.315973 0.45617,-0.657885 0,-0.369028 -0.19528,-0.657882 -0.4241,-0.657882 -0.22739,0 -0.32504,-0.290036 -0.19385,-0.631947 0.14136,-0.361954 0.11075,-0.503433 -0.2128,-0.503433 -0.1239,0 -0.28857,0.02004 -0.50284,0.05659 -0.0962,0.01415 -0.19384,0.0224 -0.2915,0.0224 -0.599,0 -1.25052,-0.280604 -2.11624,-0.891325 -0.78122,-0.578892 -1.72421,-1.025733 -2.0813,-1.025733 -0.9765,0 -1.10623,-0.499897 -0.45618,-1.76261 0.52033,-1.026911 0.52033,-1.342884 0.0321,-2.289622 -0.8118,-1.605802 -2.73569,-2.4912331 -5.25711,-2.4912331 -0.20551,0 -0.41684,0.00589 -0.62964,0.017685 -4.4249,0.2629175 -6.5062,2.3945541 -6.60385,6.8676901 -0.0423,1.252102 -0.0845,1.807411 -0.16907,1.807411 -0.0466,0 -0.10785,-0.172134 -0.18945,-0.491644 -0.13993,-0.55413 -0.223,-0.817049 -0.27549,-0.817049 -0.0452,0 -0.067,0.190998 -0.0816,0.554131 -0.0321,0.473959 -0.2609,1.262712 -0.55386,1.762609 -0.42267,0.736878 -0.38913,0.920801 0.29296,1.315768 0.42267,0.262916 0.65149,0.473959 0.48826,0.499897 -0.16324,0.02712 -0.45475,0.05305 -0.65003,0.07899 -0.78122,0.104931 -0.87887,0.552952 -0.8468,3.868307 0,1.868719 -0.12973,5.604979 -0.25943,8.28957 l -0.2609,4.868099 -0.94299,-0.1851 c -0.26089,-0.04952 -0.65295,-0.07546 -1.08874,-0.07546 -0.48825,0 -1.03336,0.03301 -1.51285,0.102574 l -1.62656,0.209861 v 4.552132 4.579247 h -4.81552 c -3.1875,0 -4.94376,0.130867 -5.26877,0.394962 -0.39062,0.288856 -0.42267,4.420082 -0.22885,17.761677 l 0.2609,17.366707 -0.943,0.815872 c -1.07705,0.939667 -3.85501,1.739029 -5.80075,1.739029 -0.2886,0 -0.55969,-0.01769 -0.80307,-0.05424 -1.72421,-0.264092 -5.07495,-2.552536 -5.23672,-3.579453 -0.0933,-0.471596 -0.35855,-0.68618 -0.8541,-0.68618 -0.0291,0 -0.0598,0.0012 -0.0904,0.0024 -0.0729,0.0071 -0.13846,0.01297 -0.19968,0.01297 -0.5859,0 -0.60632,-0.477494 -0.548,-3.960266 0.032,-2.210633 0.19528,-5.210015 0.35852,-6.65783 0.19385,-1.867538 0.12973,-2.736465 -0.16324,-2.920387 -0.58591,-0.262917 -0.61795,-1.710732 -0.0656,-1.999588 0.58591,-0.290039 0.48825,-1.394764 -0.0977,-1.55275 -0.38913,-0.104931 -0.32501,-0.473957 0.2609,-1.36882 0.61798,-0.920803 0.71563,-1.367645 0.39062,-1.788547 -0.26089,-0.290036 -0.32504,-0.841809 -0.13119,-1.210835 0.16324,-0.341911 0.19531,-1.131843 0.0977,-1.710735 -0.14282,-0.71801 -0.33667,-0.988003 -0.82492,-0.988003 -0.067,0 -0.13846,0.0059 -0.21573,0.01533 -0.0423,0.0024 -0.0831,0.0047 -0.12097,0.0047 -0.59463,0 -0.85989,-0.402038 -1.43997,-2.031421 -0.39063,-1.15778 -0.81329,-2.183514 -0.91092,-2.262505 -0.0977,-0.07899 -2.69928,-0.23698 -5.79059,-0.34309 l -5.59524,-0.183926 0.26086,1.28983 c 0.16181,0.709759 0.81329,2.157573 1.49686,3.210422 l 1.23593,1.946533 v 7.368771 7.341644 h -5.04288 c -5.52969,0 -5.65939,0.05188 -6.1156,2.051468 -0.25943,1.236771 -0.29294,1.236771 -2.27658,1.236771 -2.24451,0 -3.80548,-0.867744 -4.26166,-2.394554 -0.1618,-0.499893 -0.45474,-0.893685 -0.65005,-0.893685 -0.19528,0 -0.35852,-8.526543 -0.35852,-20.051296 0,-14.65736 -0.12973,-20.262337 -0.48828,-20.894283 -0.25943,-0.47278 -1.33359,-1.236774 -2.40628,-1.709552 -1.23597,-0.527016 -1.98511,-1.105906 -2.08274,-1.552748 -0.0641,-0.420904 -0.45474,-0.736876 -1.00714,-0.789932 -0.74914,-0.07899 -0.94443,-0.315972 -0.94443,-1.104725 0,-1.710734 -0.61798,-2.236569 -2.6672,-2.236569 -2.60159,0 -3.41486,0.420904 -3.41486,1.815665 0,1.025732 -0.19531,1.236774 -1.3992,1.63174 -2.34216,0.788752 -4.97729,2.420492 -5.82263,3.552334 -0.42267,0.578892 -0.91092,1.788548 -1.04065,2.683411 -0.16324,0.868923 -0.39059,1.684795 -0.52032,1.789726 -0.0262,0.02004 -0.07,0.02948 -0.1297,0.02948 -0.25071,0 -0.77683,-0.169777 -1.30155,-0.424442 -0.64856,-0.299465 -1.5318,-0.528195 -2.03753,-0.528195 -0.0262,0 -0.0525,0 -0.0773,0.0024 -0.68356,0.02594 -0.74915,0.079 -0.16324,0.183925 0.84534,0.183926 0.94299,0.762814 0.0977,0.762814 -0.35709,0 -0.71562,-0.02594 -0.84534,-0.07899 -0.0131,-0.0047 -0.0292,-0.0083 -0.0452,-0.0083 -0.13847,0 -0.36874,0.196896 -0.5728,0.456276 -0.35854,0.551773 -0.48825,29.971424 -0.12972,32.944866 0.0962,0.841812 0.0321,1.55275 -0.19529,1.55275 -0.35854,0 -1.43125,-3.473343 -1.26947,-4.105286 0.16324,-0.657883 0,-1.473755 -0.32501,-1.473755 -0.16324,0 -0.29296,0.394966 -0.32503,0.894867 0,0.499893 -0.0335,1.631737 -0.0976,2.552536 -0.0394,0.953812 -0.067,1.341705 -0.21863,1.341705 -0.10057,0 -0.25214,-0.166236 -0.497,-0.446838 -0.37748,-0.446846 -0.63838,-0.677933 -0.88468,-0.677933 -0.30462,0 -0.58446,0.356064 -1.03483,1.098831 -0.44889,0.762818 -0.83659,1.136559 -1.09893,1.136559 -0.30608,0 -0.44016,-0.511681 -0.30024,-1.505585 0.26088,-1.946533 -0.68211,-7.156543 -1.49537,-8.104462 -0.35855,-0.394966 -0.65151,-0.973858 -0.65151,-1.289829 0,-0.578892 -3.38281,-1.630562 -6.60383,-2.078583 -0.84534,-0.104931 -1.5289,-0.367847 -1.56096,-0.604828 0,-0.21104 -0.0321,-3.631328 -0.0641,-7.631683 -0.0291,-3.476879 -0.0831,-5.886761 -0.16033,-5.886761 -0.0117,0 -0.0233,0.04952 -0.035,0.150914 -0.0656,0.815868 -0.39061,1.631736 -0.71562,1.841602 -0.48827,0.290031 -0.61798,1.499691 -0.61798,6.157928 -0.0262,4.113541 -0.22591,6.115486 -0.64713,6.115486 -0.12389,0 -0.26526,-0.170955 -0.42703,-0.510505 -0.1268,-0.257023 -0.19968,-0.381997 -0.29733,-0.381997 -0.10347,0 -0.2332,0.137944 -0.48389,0.407933 -0.29295,0.315975 -1.13829,0.683822 -1.88597,0.789932 -1.33361,0.23698 -1.33361,0.23698 -1.46477,2.315563 -0.0962,1.736668 -0.22737,2.104519 -0.90947,2.236565 -0.58591,0.130871 -0.7812,0.446842 -0.7812,1.26271 0,1.868721 -0.61798,2.684594 -2.21247,2.92157 -0.94299,0.130875 -1.4633,0.393791 -1.4633,0.762818 0,0.288856 -0.29295,0.815872 -0.68356,1.157775 -0.39061,0.341912 -0.78121,1.315773 -0.91092,2.157578 l -0.22737,1.52681 h -5.27025 v -19.5514 -19.578518 l -0.91092,-1.604626 c -0.83223,-1.424234 -1.05522,-1.806231 -0.72147,-1.806231 0.12244,0 0.32065,0.0507 0.59174,0.121438 0.24341,0.06131 0.42851,0.09432 0.55823,0.09432 0.3731,0 0.29004,-0.272349 -0.16762,-0.936129 -0.22737,-0.367847 -0.74768,-0.630766 -1.17182,-0.630766 -0.42266,0 -0.94299,-0.185102 -1.10476,-0.422083 -0.16324,-0.235799 -0.2609,-3.341293 -0.1953,-6.919565 l 0.0976,-6.499842 -1.26945,-0.369027 c -1.46332,-0.420904 -2.17894,-1.578685 -1.78833,-2.946328 0.19529,-0.789932 0.0641,-0.999794 -0.74915,-1.236774 -0.97505,-0.315972 -0.97505,-0.315972 -2.17894,-5.026088 -0.12971,-0.499897 -0.58591,-1.1577806 -1.00857,-1.447815 -0.42267,-0.3159728 -0.78121,-0.788753 -0.78121,-1.0257325 0,-0.416188 -0.44015,-0.6637785 -0.96194,-0.6637785 -0.30461,0 -0.63692,0.084888 -0.92404,0.2688126 -0.2813,0.1874614 -0.43725,0.2794237 -0.49117,0.2794237 -0.0525,0 -0.0117,-0.084888 0.10057,-0.2534856 0.48825,-0.6578834 -0.91093,-1.7095537 -2.2766,-1.7095537 z"
       fill-rule="evenodd"
       id="path1" /></g><path
     style="opacity:1;fill:#0180c9;fill-opacity:1;stroke-width:0.513528"
     d="m 2.2567641,88.529516 c 0,-11.947975 0.1209342,-14.378792 0.7153507,-14.378792 1.1822048,0 1.3387625,-1.233885 1.3387625,-10.55126 0,-8.40311 0.06028,-8.958937 1.0277493,-9.476714 0.5652621,-0.302519 1.6090495,-1.697176 2.3195282,-3.099237 0.8211992,-1.62056 1.6253572,-2.549203 2.2074792,-2.549203 1.474387,0 2.148168,-1.079169 2.148168,-3.44064 0,-2.289362 0.239135,-2.474112 2.439259,-1.884501 1.554109,0.416484 1.469665,1.216915 -0.128382,1.216915 -0.706101,0 -1.283821,0.216909 -1.283821,0.482021 0,0.288012 2.635317,0.382941 6.547486,0.235853 9.166465,-0.344637 11.958497,-0.683294 12.267272,-1.48795 0.196519,-0.51212 1.009625,-0.615242 3.177729,-0.403015 1.602499,0.156862 3.183991,0.497917 3.514426,0.757899 0.330435,0.259983 0.764244,2.216994 0.964022,4.348914 0.352195,3.758454 0.413958,3.897412 2.032949,4.57387 0.918345,0.383709 1.847723,1.110666 2.065285,1.615457 0.217562,0.504793 0.486283,5.42402 0.597159,10.93161 0.110876,5.507591 0.311933,10.533749 0.446793,11.169241 0.287787,1.35612 1.764895,1.570503 1.769082,0.256764 0.01338,-4.197883 2.921426,-7.822679 7.296165,-9.094447 2.137058,-0.621262 2.939631,-1.119769 3.16678,-1.967004 0.167344,-0.624168 0.307419,-4.277526 0.311275,-8.118584 0.0069,-6.897504 0.02592,-7.011641 1.538249,-9.243509 0.842181,-1.242874 1.536969,-2.721947 1.543969,-3.286828 0.007,-0.564881 0.487117,-1.72032 1.066921,-2.567641 0.579805,-0.847322 1.265827,-2.060533 1.524491,-2.696024 0.258664,-0.635491 0.832779,-1.155438 1.275815,-1.155438 0.443031,0 0.754111,-0.28886 0.691291,-0.641911 -0.149128,-0.838113 1.677795,-3.890656 2.524896,-4.21876 0.369278,-0.143029 0.866229,0.291766 1.13178,0.99022 0.26039,0.684869 1.119569,1.595554 1.909293,2.023744 1.427224,0.773845 1.428369,0.778653 0.190909,0.799089 l -1.244957,0.02056 1.197795,1.274995 c 0.65879,0.701247 1.59811,1.402048 2.087374,1.557336 0.772675,0.245237 0.694516,0.477405 -0.594748,1.766673 -1.81087,1.810867 -1.958715,3.478643 -0.328894,3.710114 0.752216,0.106832 1.512182,0.880942 2.177683,2.218212 0.869517,1.747214 1.049889,3.339252 1.207218,10.655712 l 0.184973,8.601599 h 2.729834 c 1.703368,0 2.827225,-0.241369 2.988848,-0.641911 0.207214,-0.513528 0.267122,-0.513528 0.299556,0 0.08525,1.349686 1.03608,0.561852 1.351571,-1.119866 0.181784,-0.968977 0.65443,-1.886077 1.05033,-2.037999 0.858799,-0.329552 0.95526,-2.435233 0.148512,-3.241981 -0.314218,-0.314213 -0.480344,-0.844163 -0.369176,-1.177669 0.111164,-0.333501 0.510576,0.05069 0.887578,0.85374 0.376996,0.803061 0.857171,1.806742 1.067055,2.230403 0.209879,0.423661 0.919441,0.770292 1.576809,0.770292 0.919914,0 1.295863,-0.388438 1.632209,-1.686437 0.529827,-2.044669 -0.498036,-3.359908 -2.59453,-3.319924 -1.011286,0.01929 -1.669368,-0.4329 -2.503677,-1.720346 -1.353208,-2.08818 -0.413323,-2.424624 1.292556,-0.462689 0.613949,0.706102 1.608756,1.283821 2.210688,1.283821 0.639235,0 2.12915,1.067913 3.582276,2.567641 1.42614,1.47188 2.165877,2.567642 1.733384,2.567642 -0.414962,0 -0.754476,0.217448 -0.754476,0.48322 0,0.801283 1.079257,1.210576 1.660222,0.629611 0.299017,-0.299017 1.16747,-0.418911 1.929895,-0.266424 l 1.386224,0.277244 0.341096,-4.54167 c 0.187602,-2.49792 0.68425,-7.661354 1.103667,-11.474302 0.41941,-3.812947 0.93717,-9.359053 1.15057,-12.324678 0.35727,-4.964815 0.47461,-5.4044 1.48095,-5.547955 0.89965,-0.128336 1.15447,-0.627811 1.44091,-2.824405 0.52531,-4.028337 0.81155,-4.862893 1.74625,-5.091415 1.4334,-0.350443 2.92693,0.758209 2.7452,2.03777 -0.13364,0.941031 0.0808,1.155439 1.15544,1.155439 1.22155,0 1.31954,0.171614 1.31954,2.310877 0,2.429328 1.00205,3.181997 1.95922,1.471629 0.31243,-0.558287 0.59573,1.607571 0.84623,6.469527 0.3202,6.214841 0.52441,7.456624 1.36436,8.296571 0.88634,0.886343 1.02139,2.067858 1.31494,11.503965 l 0.32714,10.516165 h 1.98354 1.98354 l -0.31053,-20.155985 c -0.17079,-11.085792 -0.39956,-20.444845 -0.50837,-20.797895 -0.11194,-0.363149 0.24116,-0.641911 0.81308,-0.641911 0.98272,0 1.01094,0.422857 1.01094,15.149085 0,16.400897 -0.12112,15.755443 2.75164,14.663224 0.75127,-0.285633 1.34703,-0.97343 1.44563,-1.668967 0.25758,-1.816955 1.71683,-1.504103 1.6674,0.357478 -0.0507,1.911845 0.48729,2.293058 3.25046,2.303015 l 2.18249,0.0079 v -6.869752 c 0,-5.479969 0.15584,-6.999084 0.7703,-7.50904 0.42366,-0.351607 0.77029,-0.992739 0.77029,-1.424738 0,-0.675995 0.75141,-0.739477 5.39205,-0.455538 l 5.39204,0.329916 v -4.127859 c 0,-3.758657 0.11644,-4.235771 1.30185,-5.334369 0.80682,-0.747733 1.68553,-1.106174 2.31088,-0.942643 0.71816,0.187804 1.00903,0.0057 1.00903,-0.631683 0,-0.492552 0.71254,-2.342934 1.58343,-4.111958 0.93783,-1.905 2.06277,-5.59481 2.75907,-9.049763 0.64659,-3.208344 1.30374,-5.486723 1.46033,-5.063062 0.44708,1.209639 2.99299,11.200948 3.79475,14.89232 0.87425,4.025131 1.53445,4.854534 3.32293,4.174554 2.61262,-0.993317 2.61132,-1.001738 2.88759,18.624151 0.20437,14.518277 0.39472,18.283558 0.92431,18.283558 1.00917,0 1.17097,-0.507273 1.72947,-5.422524 0.35417,-3.116891 0.76038,-4.674525 1.29742,-4.975073 0.62104,-0.347545 0.78183,-1.523612 0.78183,-5.718414 0,-2.904485 0.26216,-6.586253 0.58257,-8.181705 0.53335,-2.65576 0.7866,-3.031752 2.99774,-4.450637 2.83314,-1.818017 3.36593,-1.872599 5.37181,-0.550312 2.25547,1.486816 2.82068,2.942223 2.84083,7.315024 0.01,2.172246 0.23227,4.08184 0.49391,4.243543 0.42711,0.263971 0.68184,-1.155674 1.23975,-6.909259 0.0959,-0.988542 0.21127,0.315488 0.25647,2.897845 0.0657,3.753148 -0.0724,4.754503 -0.68811,4.990784 -1.03273,0.396295 -1.0398,5.504081 -0.0106,7.696374 0.4178,0.890006 0.97246,3.547823 1.23258,5.906263 0.26011,2.358436 0.687,4.502139 0.94864,4.763781 0.26165,0.261648 1.63362,0.612855 3.04883,0.780466 l 2.57313,0.304748 0.34034,-10.928524 c 0.18719,-6.01069 0.34035,-14.13394 0.34035,-18.05167 0,-6.836335 0.0448,-7.139714 1.11241,-7.534652 1.06662,-0.394569 1.10841,-0.673976 1.01506,-6.787702 -0.0535,-3.506907 0.0814,-6.612619 0.29979,-6.901584 0.21843,-0.288964 1.02657,-0.925811 1.79588,-1.415215 1.0155,-0.646027 1.61984,-1.69802 2.20575,-3.839601 1.18207,-4.320601 2.1094,-6.1576577 3.29891,-6.5351938 0.58096,-0.1843897 1.05629,-0.5448349 1.05629,-0.8009893 0,-0.2561544 0.63549,-0.7904811 1.4122,-1.1873926 1.59582,-0.815489 4.05669,-0.2599555 3.41901,0.7718314 -0.25318,0.4096493 -0.0316,0.5102435 0.7017,0.3184946 1.44208,-0.3771122 2.93129,1.3069594 3.73763,4.2267107 0.35101,1.270983 1.04742,2.679311 1.54758,3.129619 0.50016,0.450307 0.98598,1.488494 1.07959,2.307083 0.11714,1.024322 0.61049,1.69839 1.58241,2.162068 l 1.4122,0.673725 v 6.660557 6.660557 l 1.39481,0.530303 c 1.11855,0.425274 1.24568,0.624231 0.64191,1.004564 -0.65295,0.411302 -0.6336,0.685598 0.14578,2.066244 0.81209,1.438603 0.89867,3.468065 0.89867,21.064442 v 19.472459 h 2.81462 c 2.64384,0 2.83573,-0.08569 3.16241,-1.412203 0.53987,-2.192206 1.65359,-3.597404 3.30842,-4.174281 1.09398,-0.381362 1.60104,-0.959441 1.82535,-2.081017 0.17083,-0.854136 0.62938,-1.817541 1.019,-2.1409 0.38963,-0.323358 0.70841,-1.264681 0.70841,-2.091831 0,-1.231888 0.32344,-1.639054 1.78817,-2.251057 0.9835,-0.41093 2.08117,-0.687999 2.43926,-0.61571 0.48215,0.09734 0.72277,-1.361533 0.92735,-5.622452 0.15194,-3.164645 0.4408,-5.91844 0.64191,-6.119547 0.20111,-0.201107 0.36565,2.219785 0.36565,5.379759 0,6.491521 -0.32082,6.017016 4.87852,7.215616 1.4122,0.325557 2.96903,1.069212 3.45961,1.65257 1.11956,1.331291 1.99531,4.52457 2.10983,7.693214 0.10992,3.041345 0.65013,3.626321 1.86341,2.017837 0.80534,-1.067661 1.0634,-1.151335 1.76223,-0.571357 0.72455,0.601327 0.82326,0.450755 0.85818,-1.309137 l 0.0395,-1.988608 0.60735,2.012954 c 1.34725,4.465216 1.65043,2.42845 1.44855,-9.731171 -0.22833,-13.752299 0.21883,-22.836446 1.12414,-22.837228 0.43324,-3.74e-4 0.55253,2.832985 0.44381,10.541233 -0.0818,5.797957 0.0724,11.342481 0.34264,12.321153 0.29666,1.074404 0.3047,1.89475 0.0203,2.07052 -0.25905,0.160108 -0.47101,2.800532 -0.47101,5.86761 0,6.430494 0.60211,9.03362 1.07173,4.633448 l 0.30145,-2.824405 0.0837,3.209551 c 0.0983,3.767691 0.83068,4.234442 1.29772,0.827002 0.49533,-3.613786 0.36666,-26.353353 -0.16201,-28.632372 -0.35777,-1.542296 -0.28113,-2.279796 0.33459,-3.219497 0.52529,-0.801702 0.69939,-1.830729 0.50861,-3.006327 -0.15953,-0.983072 -0.0824,-1.787404 0.1714,-1.787404 0.25379,0 0.69884,-0.88163 0.989,-1.959177 0.63225,-2.348021 1.94828,-3.638652 5.54599,-5.438987 1.81497,-0.908228 2.69602,-1.663977 2.69602,-2.312582 0,-1.083056 0.95898,-1.586876 3.02047,-1.586876 1.51978,0 2.62834,0.820825 2.62834,1.946122 0,0.844279 1.56496,2.245608 4.25286,3.808182 1.06808,0.620919 2.0431,1.602229 2.16672,2.180692 0.12361,0.578462 0.29605,9.717539 0.38321,20.30906 0.19011,23.1043 0.19119,23.108773 5.53587,23.108773 1.65832,0 2.09503,-0.231874 2.65974,-1.412203 0.66433,-1.388529 0.7638,-1.414658 5.9336,-1.558548 l 5.25795,-0.146351 v -7.438395 c 0,-6.926326 -0.0832,-7.57027 -1.2088,-9.353928 -0.66484,-1.05354 -1.37367,-2.435475 -1.57519,-3.070966 -0.35755,-1.127554 -0.27415,-1.155439 3.45548,-1.155439 5.99236,0 7.04838,0.346334 7.93452,2.602223 0.41728,1.062289 1.19095,2.044474 1.71927,2.182633 0.83327,0.217906 0.9242,0.615125 0.68606,2.996839 -0.15099,1.510096 -0.24378,6.766382 -0.2062,11.680632 l 0.0683,8.934997 1.77237,1.671555 c 2.92646,2.760009 4.93858,3.479005 7.93664,2.836037 1.40547,-0.301421 3.11247,-0.913038 3.79333,-1.359156 l 1.23793,-0.811118 -0.30535,-17.341737 c -0.19573,-11.116912 -0.12458,-17.453452 0.19824,-17.652962 0.27696,-0.171175 2.6238,-0.471282 5.2152,-0.666907 l 4.71162,-0.35568 v -4.281526 c 0,-4.14706 0.0406,-4.291721 1.29331,-4.606126 0.71132,-0.17853 1.85518,-0.217191 2.54191,-0.08591 0.78589,0.150233 1.35329,-0.03412 1.5311,-0.497477 0.15537,-0.404889 0.28249,-3.901072 0.28249,-7.769294 0,-5.675007 0.16193,-7.264319 0.83856,-8.230339 0.63227,-0.902695 0.6861,-1.291428 0.21882,-1.580224 -0.46512,-0.287455 -0.41809,-0.58467 0.1885,-1.191253 0.44453,-0.444531 0.80823,-1.397786 0.80823,-2.118346 0,-0.720561 0.3646,-2.221333 0.81022,-3.33505 1.05575,-2.638565 3.46884,-3.857599 6.97019,-3.521164 3.40071,0.326765 4.6995,1.546191 4.28156,4.019927 -0.30322,1.79475 -0.22191,1.930289 1.78568,2.976702 1.15684,0.602983 2.55842,1.096333 3.1146,1.096333 0.55619,0 1.02039,0.05777 1.03157,0.128382 0.0112,0.07061 0.14136,2.208172 0.28929,4.750137 0.14793,2.541965 0.49269,5.312593 0.76613,6.156952 0.32906,1.016105 0.32191,1.593616 -0.0211,1.707969 -0.7146,0.238201 -0.0591,14.589593 0.69213,15.154565 0.40096,0.301524 0.37847,0.499584 -0.0778,0.684704 -0.48938,0.198574 -0.64191,3.300812 -0.64191,13.055874 v 12.795415 h 3.79652 c 3.97259,0 4.41993,-0.264123 4.41993,-2.609643 0,-0.872982 0.42358,-0.994324 3.72308,-1.06651 6.22668,-0.136229 9.30834,0.149703 9.87211,0.915975 0.50635,0.688225 6.59758,1.225607 7.18896,0.634228 0.14044,-0.14044 0.38503,-3.012552 0.54356,-6.382474 0.15851,-3.369921 0.41021,-7.129508 0.55932,-8.354633 0.26308,-2.161476 0.30043,-2.200977 1.25996,-1.332611 0.54386,0.492186 0.98884,1.205703 0.98884,1.585591 0,0.379882 0.206,0.6907 0.45777,0.6907 0.71228,0 2.10987,3.927198 2.10987,5.928679 0,1.954433 0.53229,2.332538 4.23661,3.009461 l 1.92573,0.351911 v -5.13575 c 0,-4.616651 0.12839,-5.32494 1.27025,-7.007551 0.69863,-1.029491 1.42202,-2.715141 1.60754,-3.745885 0.49865,-2.770523 1.01954,-3.157902 4.24634,-3.157902 h 2.89014 l 1.23265,3.209552 c 1.11396,2.900485 1.2686,4.322203 1.60596,14.763938 0.20532,6.354913 0.40156,17.158264 0.43608,24.007447 l 0.0628,12.453062 H 209.97896 2.2567641 Z"
     id="path21" /><path
     style="opacity:1;fill:#0180c9;fill-opacity:1;stroke-width:0.18156"
     d="m 104.23139,19.96168 c -0.17255,-0.12617 -0.71641,-0.284785 -1.20859,-0.352477 -0.49218,-0.06769 -1.07312,-0.267413 -1.29098,-0.443824 -0.39203,-0.31745 -0.38562,-0.322059 0.62387,-0.448186 0.56098,-0.07009 1.09858,-0.2244 1.19466,-0.34291 0.0961,-0.11851 0.17832,-0.558397 0.18275,-0.977526 0.009,-0.868392 0.28889,-1.507442 0.65976,-1.507442 0.42411,0 1.00537,0.913299 1.00537,1.579678 0,1.128146 0.56983,1.678927 1.08936,1.052937 0.33258,-0.40074 0.9078,-0.346173 0.9078,0.08612 0,0.38411 -0.44999,0.670999 -1.94122,1.237621 -0.74723,0.283926 -0.9649,0.304577 -1.22278,0.116012 z"
     id="path23" /><path
     style="opacity:1;fill:#0180c9;fill-opacity:1;stroke-width:0.064191"
     d="m 259.61767,66.100719 c -0.0653,-0.230969 -0.10719,-0.796714 -0.16976,-2.294829 -0.0354,-0.847322 -0.11146,-1.815002 -0.16905,-2.1504 -0.15054,-0.876742 -0.16365,-1.397371 -0.0349,-1.387677 0.26843,0.02022 0.33909,-0.632706 0.16754,-1.548212 -0.0928,-0.495135 -0.0925,-0.551664 0.004,-0.698562 0.1464,-0.223432 0.57265,-0.197805 0.7534,0.0453 0.23557,0.316824 0.29799,1.674189 0.10528,2.289286 -0.0705,0.224966 -0.17707,0.256811 -0.47738,0.142634 -0.27173,-0.103316 -0.26627,-0.01857 0.0178,0.275953 0.36454,0.377963 0.48451,0.649172 0.51761,1.170141 0.0248,0.390278 0.0102,0.472539 -0.1113,0.625862 -0.079,0.09976 -0.20327,0.176526 -0.28571,0.176526 -0.19178,0 -0.3741,0.207747 -0.34745,0.3959 0.0186,0.131053 0.0566,0.149724 0.3049,0.149724 0.25409,0 0.29231,0.0201 0.3662,0.192573 0.20067,0.468353 0.0524,1.651153 -0.2927,2.334756 -0.2044,0.404913 -0.29296,0.476387 -0.34823,0.281028 z"
     id="path24" /><path
     style="opacity:1;fill:#0180c9;fill-opacity:1;stroke-width:0.064191"
     d="m 259.56271,57.306547 c -0.21326,-0.244486 -0.25735,-0.404123 -0.18805,-0.680819 0.12365,-0.493712 0.26686,-2.3439 0.49012,-6.332051 0.11048,-1.973524 0.27074,-3.960117 0.34694,-4.3008 0.1624,-0.726049 0.169,7.391373 0.008,9.436083 -0.1345,1.704734 -0.3271,2.255424 -0.65668,1.877587 z"
     id="path25" /></svg>
