<?xml version="1.0" encoding="UTF-8" standalone="no"?>
<svg
   version="1.1"
   viewBox="0 0 422.41699 400"
   stroke="none"
   stroke-linecap="square"
   stroke-miterlimit="10"
   id="svg1"
   sodipodi:docname="pointing.svg"
   xml:space="preserve"
   width="422.41699"
   height="400"
   inkscape:export-filename="pointing.svg"
   inkscape:export-xdpi="96"
   inkscape:export-ydpi="96"
   inkscape:version="1.3.2 (091e20e, 2023-11-25, custom)"
   xmlns:inkscape="http://www.inkscape.org/namespaces/inkscape"
   xmlns:sodipodi="http://sodipodi.sourceforge.net/DTD/sodipodi-0.dtd"
   xmlns="http://www.w3.org/2000/svg"
   xmlns:svg="http://www.w3.org/2000/svg"><defs
     id="defs1" /><sodipodi:namedview
     id="namedview1"
     pagecolor="#ffffff"
     bordercolor="#000000"
     borderopacity="0.25"
     inkscape:showpageshadow="2"
     inkscape:pageopacity="0.0"
     inkscape:pagecheckerboard="0"
     inkscape:deskcolor="#d1d1d1"
     inkscape:zoom="1.9104345"
     inkscape:cx="565.0547"
     inkscape:cy="304.38102"
     inkscape:window-width="2880"
     inkscape:window-height="1514"
     inkscape:window-x="2869"
     inkscape:window-y="-11"
     inkscape:window-maximized="1"
     inkscape:current-layer="svg1" /><g
     clip-path="url(#p.0)"
     id="g1"
     transform="matrix(2.1887522,0,0,2.1887522,66.072276,175.66747)"><path
       d="m 102.86266,12.233753 c -0.0437,0 -0.0933,0.01179 -0.14574,0.03537 -0.22737,0.104931 -0.32502,0.34191 -0.19531,0.499897 0.15595,0.207504 0.28858,0.308899 0.38624,0.308899 0.1268,0 0.19967,-0.167419 0.19967,-0.492824 0,-0.222831 -0.0962,-0.351342 -0.24486,-0.351342 z m -0.49554,1.58458 c -0.52469,0 -0.91384,1.039879 -0.75643,2.05618 0.0656,0.525835 -0.1953,0.683821 -1.26801,0.762814 -1.106225,0.104933 -1.269464,0.183926 -0.846795,0.578892 0.260887,0.262916 0.878865,0.473959 1.399175,0.473959 0.52033,0 1.07271,0.157985 1.23595,0.341909 0.10348,0.168598 0.27109,0.252308 0.41684,0.252308 0.0364,0 0.0714,-0.0047 0.10348,-0.01533 0.12971,-0.07899 0.84534,-0.341912 1.59449,-0.57889 0.77974,-0.290036 1.30152,-0.71094 1.30152,-1.052851 0,-0.372564 -0.20404,-0.580069 -0.45764,-0.580069 -0.17637,0 -0.37749,0.101395 -0.55093,0.317152 -0.17782,0.224011 -0.35272,0.328942 -0.5043,0.328942 -0.29295,0 -0.50428,-0.390249 -0.50428,-1.065819 -0.0335,-1.15778 -0.32502,-1.683616 -1.10623,-1.815663 -0.0189,-0.0024 -0.0379,-0.0035 -0.0568,-0.0035 z M 68.138195,35.793762 c 0.227364,0 0.422669,0.13205 0.422669,0.315972 0,0.183925 -0.09765,0.341911 -0.195305,0.341911 -0.09765,0 -0.292954,-0.157985 -0.422669,-0.341911 -0.129715,-0.183922 -0.06558,-0.315972 0.195305,-0.315972 z m 183.189245,17.70744 c -0.0641,0 -0.11368,0.262921 -0.11368,0.713299 0,0.440945 0.0481,0.702687 0.10931,0.702687 0.0277,0 0.0568,-0.04834 0.086,-0.150914 0.0977,-0.315975 0.0977,-0.815872 0,-1.130664 -0.0277,-0.09196 -0.0568,-0.134407 -0.0816,-0.134408 z m 4.93357,-7.815609 c -10e-4,0 -0.003,0 -0.006,0.0024 -0.12973,0.07899 -0.32502,2.447609 -0.45474,5.237129 -0.16324,2.788341 -0.32501,5.289005 -0.42267,5.525985 -0.0976,0.236977 -0.0976,0.578888 0.0321,0.736874 0.13408,0.175675 0.25068,0.27235 0.34979,0.27235 0.40665,0 0.548,-1.604622 0.62671,-5.956321 0.0321,-3.22575 -0.0306,-5.818379 -0.12534,-5.818379 z m -4.9292,10.364613 c -0.0525,0 -0.086,0.4044 -0.086,1.110623 0,0.707401 0.0335,1.111797 0.086,1.111797 0.0233,0 0.0481,-0.07074 0.0772,-0.216934 0.0977,-0.473961 0.0977,-1.289829 0,-1.789726 -0.0291,-0.146199 -0.0539,-0.21576 -0.0772,-0.21576 z m -0.0233,3.234005 c -0.0772,0 -0.1268,0.186284 -0.1268,0.508152 0,0.321866 0.0496,0.508149 0.1268,0.508149 0.0306,0 0.0641,-0.02829 0.10057,-0.08725 0.0977,-0.236981 0.0977,-0.604828 0,-0.841809 -0.0364,-0.05895 -0.07,-0.08725 -0.10057,-0.08725 z M 81.930344,55.529088 c 0.260887,0 0.454735,0.290036 0.454735,0.657883 0,0.34309 0.195297,0.657883 0.390602,0.657883 0.227364,0 0.422668,-0.156807 0.422668,-0.341908 0,-0.203968 0.434334,-0.308899 0.957566,-0.308899 0.489715,0 1.056671,0.09196 1.418129,0.282959 0.390602,0.183926 0.422668,0.341912 0.09765,0.499897 -0.228821,0.13205 -0.456192,0.446843 -0.456192,0.736878 0,0.228725 0.03935,0.340732 0.151581,0.340732 0.09619,0 0.243401,-0.07899 0.466393,-0.235801 0.281295,-0.186283 0.505745,-0.269993 0.666069,-0.269993 0.358543,0 0.389145,0.422085 -0.01457,1.059925 -0.292953,0.446842 -0.424125,0.973854 -0.260894,1.15778 0.163238,0.209861 0.06559,0.604828 -0.195298,0.867748 -0.3498,0.338371 -0.743316,0.490463 -1.122261,0.490463 -0.891975,0 -1.708168,-0.840629 -1.708168,-2.095089 0,-0.473957 -0.259429,-1.052849 -0.584449,-1.315765 -0.781212,-0.631947 -1.269463,-2.184693 -0.683556,-2.184693 z m 8.227478,4.944737 c 0.475136,0 1.173271,0.325405 1.173271,0.634304 0,0.183926 -0.259437,0.341911 -0.585907,0.341911 -0.650039,0 -1.268013,-0.604828 -0.910927,-0.894863 0.0787,-0.05659 0.192383,-0.08135 0.323563,-0.08135 z m 161.175448,1.044597 c -0.0539,0 -0.0874,0.326584 -0.0874,0.905472 0,0.577713 0.0335,0.917267 0.086,0.917267 0.0233,0 0.0481,-0.05777 0.0772,-0.180389 0.0977,-0.394966 0.0977,-1.078785 0,-1.473751 -0.0291,-0.114365 -0.0539,-0.168599 -0.0758,-0.168599 z m 5.16533,-24.973633 c 0.82199,0 0.97504,0.156807 1.05811,0.82766 0.29297,2.052643 0.0976,3.026497 -0.84534,4.105286 -0.71561,0.841808 -0.71561,0.973858 -0.16324,1.473755 0.55386,0.499897 0.61798,2.578476 0.65149,15.867016 0.0263,11.468163 -0.12823,16.078056 -0.60046,16.078056 -0.0918,0 -0.19532,-0.172135 -0.31046,-0.499894 -0.13116,-0.341911 -0.19528,-1.762611 -0.13116,-3.183311 0.0335,-1.421875 -0.12973,-2.605591 -0.35709,-2.710526 -0.22737,-0.07899 -0.1953,-0.236976 0.0977,-0.341911 0.7156,-0.264091 0.65002,-1.447815 -0.0977,-1.447815 -0.48825,0 -0.55238,0.578896 -0.48825,3.447403 0.0656,1.894661 -0.0321,3.710327 -0.1953,4.026299 -0.006,0.01533 -0.0131,0.0224 -0.0189,0.0224 -0.1268,0 -0.274,-2.820175 -0.274,-6.496307 -0.0306,-3.788132 0.0933,-6.819347 0.22008,-6.819347 0.003,0 0.006,0.0012 0.009,0.0047 0.16177,0.104931 0.32501,1.28865 0.35709,2.604416 0.067,2.029064 0.1195,2.785984 0.28274,2.785984 0.0743,0 0.17052,-0.155632 0.30316,-0.417366 0.49115,-0.868927 0.51886,-2.651577 0.0831,-2.651577 -0.0262,0 -0.0539,0.0071 -0.0831,0.02004 -0.067,0.0448 -0.13409,0.06485 -0.1924,0.06485 -0.11367,0 -0.19821,-0.07546 -0.19821,-0.196896 0,-0.183925 0.1953,-0.341911 0.39061,-0.341911 0.58591,0 0.52033,-1.446636 -0.0976,-1.973648 -0.24486,-0.21458 -0.33669,-0.314796 -0.27401,-0.314796 0.0364,0 0.12825,0.03537 0.27401,0.104934 0.0656,0.03065 0.12387,0.04716 0.17636,0.04716 0.2536,0 0.34396,-0.391427 0.34396,-1.311051 0,-1.130665 -0.16324,-1.499691 -0.61798,-1.499691 -0.52032,0 -0.58591,0.236981 -0.39059,1.105904 0.16322,0.657882 0.0976,1.209659 -0.16179,1.341705 -0.006,0.0024 -0.0102,0.0035 -0.0146,0.0035 -0.25215,0 -0.40954,-3.402599 -0.44162,-10.581547 -0.032,-5.920952 -0.0976,-11.288952 -0.12971,-11.920895 -0.0656,-1.052848 0,-1.131843 1.3336,-1.209659 0.19092,-0.0083 0.35709,-0.01297 0.50284,-0.01297 z M 201.83433,1.2442715 c -1.26946,0 -3.15545,1.2627118 -3.15545,2.1304576 0,0.3159728 -0.35853,0.4998972 -0.94299,0.4998972 -0.68355,0 -1.10622,0.3159726 -1.59448,1.2367737 -0.61797,1.2108355 -0.81326,1.8427811 -1.5289,4.684177 -0.84534,3.421466 -1.39917,4.394143 -2.63512,4.658239 -0.61796,0.13087 -1.30153,0.420905 -1.46332,0.657884 -0.55383,0.736877 -0.84678,6.314739 -0.48825,10.104054 l 0.32502,3.736259 -1.10622,0.315971 c -0.7477,0.211043 -1.17037,0.57889 -1.20389,1.026913 -0.0321,0.393786 -0.16177,8.499428 -0.29149,17.998653 l -0.26089,17.26178 -1.7242,0.104927 c -0.17343,0.0094 -0.33667,0.01415 -0.49117,0.01415 -0.74186,0 -1.23303,-0.102577 -1.23303,-0.277069 0,-0.183922 -0.45472,-0.341912 -1.00857,-0.341912 -0.81328,0 -1.04064,-0.157982 -1.04064,-0.762817 0,-0.394962 -0.19531,-0.894859 -0.42268,-1.1059 -0.26088,-0.209862 -0.48825,-1.946533 -0.52031,-4.157165 -0.0656,-3.289418 -0.16324,-3.868306 -0.81328,-4.263272 -0.61796,-0.367851 -0.7812,-0.999794 -0.91092,-4.078171 -0.12971,-3.421466 -0.0977,-3.658443 0.65003,-3.815254 0.74914,-0.157986 0.81327,-0.473957 0.81327,-4.789108 0,-2.5266 -0.12971,-4.842163 -0.25942,-5.132198 -0.14576,-0.307721 -0.27547,-0.459809 -0.39061,-0.459809 -0.37603,0 -0.58591,1.625843 -0.58591,4.74902 0,2.710529 -0.12972,4.421261 -0.3906,4.421261 -0.25943,0 -0.42266,-1.473751 -0.42266,-3.71032 -0.0321,-5.263069 -0.32503,-6.262863 -2.43984,-7.815609 -1.16014,-0.868927 -2.07252,-1.296905 -2.95138,-1.296905 -0.77102,0 -1.51578,0.330124 -2.38299,0.98093 -0.74769,0.552956 -1.85392,1.263893 -2.47189,1.55275 -0.7812,0.394966 -1.13829,0.815868 -1.13829,1.420696 0,0.473961 -0.16324,1.315769 -0.42413,1.842781 -0.22736,0.551773 -0.45473,3.999176 -0.48679,7.709499 -0.0918,5.74646 -0.15449,6.615383 -0.67044,6.615383 -0.035,0 -0.0714,-0.0035 -0.11078,-0.01061 -0.0641,-0.0071 -0.12388,-0.01179 -0.18072,-0.01179 -0.71709,0 -0.85117,0.72155 -1.15287,4.721904 -0.3906,4.842163 -0.61798,5.762966 -1.43124,5.762966 -0.65004,0 -0.71562,-1.236774 -0.78122,-18.130703 -0.0641,-9.972004 -0.16177,-18.287512 -0.25943,-18.498552 -0.29587,-0.597753 -0.89197,-0.906652 -1.65715,-0.906652 -0.41392,0 -0.87741,0.09078 -1.36857,0.275886 -0.59465,0.240517 -0.93425,0.36549 -1.18348,0.36549 -0.26817,0 -0.43287,-0.145017 -0.70251,-0.444482 -0.29295,-0.34309 -0.58591,-1.28983 -0.61942,-2.131638 -0.0962,-2.368616 -0.12971,-2.578478 -0.45474,-2.842575 -0.16324,-0.130869 -0.29295,-0.551773 -0.29295,-0.920801 0,-0.367849 -0.39061,-1.789726 -0.84534,-3.15737 -0.81328,-2.447609 -1.23595,-4.000355 -1.98509,-7.7366147 -0.22736,-1.0787868 -0.58444,-2.5525403 -0.74768,-3.2894168 l -0.35709,-1.3157673 -0.22882,0.9997945 c -0.16179,0.5270142 -0.4868,2.3945541 -0.71562,4.1052866 -0.25943,1.7107337 -0.65004,3.7893147 -0.84534,4.6051847 -0.22737,0.81587 -0.68356,2.526603 -1.00857,3.789315 -0.61798,2.289623 -1.91951,4.921156 -2.63514,5.263067 -0.22737,0.104931 -0.3906,0.788754 -0.3906,1.499691 0,0.920801 -0.16178,1.28983 -0.61797,1.28983 -0.32501,0 -0.61797,-0.157986 -0.61797,-0.315974 0,-0.185102 -0.16179,-0.341911 -0.39061,-0.341911 -0.22737,0 -0.42266,0.209864 -0.42266,0.47278 0,0.236981 -0.42267,0.527016 -0.943,0.631947 -1.30153,0.262916 -1.4633,0.946739 -1.4633,5.735845 l -0.0335,4.026295 -2.92662,-0.209862 c -1.62656,-0.106109 -3.83901,-0.290035 -4.91172,-0.448021 -0.42849,-0.05777 -0.81036,-0.08725 -1.1485,-0.08725 -1.33358,0 -1.97488,0.458634 -1.97488,1.403012 0,0.315975 -0.32501,0.685001 -0.71562,0.789932 -0.65004,0.157989 -0.71562,0.736877 -0.58591,7.130608 0.0656,3.842373 -0.0321,7.078731 -0.1953,7.236721 -0.1166,0.07781 -0.59028,0.128509 -1.23157,0.128509 -0.43287,0 -0.94299,-0.0224 -1.46768,-0.07545 -2.31011,-0.185104 -2.3757,-0.211044 -2.11481,-1.052848 0.78121,-2.499489 0.74769,-2.552544 -0.45473,-2.736466 -0.38186,-0.06131 -0.68502,-0.0955 -0.92405,-0.0955 -0.7025,0 -0.86573,0.297108 -0.86573,1.121231 0,1.236775 -0.78122,1.973652 -2.21246,2.078583 l -1.23595,0.10611 -0.29295,-2.631535 c -0.12971,-1.447815 -0.16178,-2.894451 -0.0641,-3.184486 0.0976,-0.315972 0.22736,-5.893833 0.29295,-12.393673 l 0.0641,-11.841904 -1.00857,-0.157986 c -0.0889,-0.01297 -0.18801,-0.02004 -0.29296,-0.02004 -1.07708,0 -2.82167,0.685001 -2.4063,1.021017 0.0335,0.02712 0.086,0.04009 0.15012,0.04009 0.18073,0 0.4562,-0.102573 0.69523,-0.277067 0.0554,-0.03655 0.10493,-0.05895 0.15157,-0.05895 0.41975,0 0.50283,1.79562 0.53198,10.636959 0,6.025882 0.0977,15.367123 0.19531,20.762238 l 0.16178,9.788082 h -3.67577 l -0.0641,-7.341652 c -0.0656,-7.367588 -0.0977,-8.420437 -0.22882,-12.498608 -0.0977,-1.973648 -0.19385,-2.210629 -0.90947,-2.210629 -0.68356,0 -0.81328,-0.23698 -0.87886,-1.39476 l -0.0656,-1.39476 -0.29296,1.473755 c -0.0219,0.11554 -0.0437,0.172134 -0.0641,0.172134 -0.13117,0 -0.223,-2.19059 -0.19531,-5.593189 0.0321,-3.947302 -0.12971,-7.604568 -0.3906,-8.551306 l -0.42267,-1.657678 -0.32502,1.393581 c -0.22882,1.052849 -0.52032,1.421877 -1.07416,1.421877 -0.48825,0 -0.74769,-0.236981 -0.68356,-0.57889 0.0335,-0.315973 0,-1.421877 -0.0321,-2.421671 l -0.0656,-1.841602 -1.20242,0.157985 c -0.27692,0.03183 -0.49263,0.05306 -0.66024,0.05306 -0.52032,0 -0.5757,-0.205147 -0.5757,-0.92198 0,-0.709758 0.19384,-1.025732 0.61797,-1.025732 0.32502,0 0.61797,-0.23698 0.61797,-0.499897 0,-0.260559 -0.11368,-0.372564 -0.42558,-0.372564 -0.16033,0 -0.37312,0.02947 -0.64858,0.08253 -0.23612,0.04598 -0.44016,0.06956 -0.62089,0.06956 -0.43578,0 -0.72874,-0.139122 -1.00566,-0.43741 -0.24486,-0.274706 -0.42413,-0.398503 -0.61943,-0.398503 -0.14283,0 -0.29441,0.06602 -0.4868,0.187462 -0.2157,0.140301 -0.54947,0.222832 -0.86137,0.222832 -0.15741,0 -0.30898,-0.02122 -0.4387,-0.06485 -0.18947,-0.05895 -0.32793,-0.09196 -0.42121,-0.09196 -0.19385,0 -0.18948,0.140301 -0.035,0.460989 0.16324,0.315973 0.0977,1.499691 -0.16178,2.604418 -0.260889,1.105903 -0.48826,2.447609 -0.553842,3.000561 -0.06559,0.525835 -0.129723,1.157781 -0.161782,1.39476 -0.03352,0.235799 -0.358543,0.420904 -0.683563,0.420904 -0.749145,0 -0.749145,-0.448021 0.03207,-2.158754 0.434333,-1.004509 0.604858,-1.448994 0.505744,-1.448994 -0.06558,0 -0.2434,0.187462 -0.537811,0.528192 -1.431244,1.684796 -1.951561,4.421261 -2.244514,12.44673 -0.195305,4.816227 -0.553849,9.052383 -0.976517,10.84211 -0.357079,1.630562 -0.747688,5.314945 -0.877403,8.209396 -0.09765,2.868512 -0.292954,5.34206 -0.390602,5.500046 -0.07142,0.07192 -0.231743,0.112008 -0.425583,0.112008 -0.160324,0 -0.342507,-0.02712 -0.517411,-0.08607 -1.008575,-0.315975 -4.13195,-2.605598 -4.13195,-3.05244 0,-0.183922 -0.454735,-0.9208 -1.072708,-1.631737 -0.715622,-0.894863 -1.367119,-1.315769 -1.985092,-1.315769 -1.560959,0 -3.025727,-0.604828 -3.025727,-1.236775 0,-0.867744 -0.81327,-1.39476 -2.113342,-1.39476 -1.367119,0 -1.431251,0.211045 -0.292953,1.184899 0.779747,0.683822 0.81327,0.867748 0.390602,2.578479 -0.520325,1.920594 -0.358544,2.499485 0.617973,2.499485 0.617966,0 0.747688,0.921982 0.325012,2.236569 -0.137001,0.377281 -0.389145,0.603649 -0.639831,0.603649 -0.04664,0 -0.09474,-0.0071 -0.141373,-0.02476 -0.03935,-0.01061 -0.07871,-0.01533 -0.115143,-0.01533 -0.322105,0 -0.523231,0.419724 -0.698135,1.410088 -0.325012,2.000763 -0.488251,2.368614 -0.975052,2.368614 -0.292954,0 -0.422669,-2.657471 -0.422669,-7.78849 0,-4.209042 -0.125343,-7.556229 -0.28421,-7.556229 -0.0029,0 -0.0058,0.0012 -0.0087,0.0035 -0.195305,0.13205 -0.326477,3.605393 -0.326477,7.710678 v 7.446583 l -2.503952,0.104927 -2.505409,0.104935 -0.129715,-8.946274 c -0.09765,-6.815815 -0.25943,-8.999325 -0.650032,-9.104259 -0.292954,-0.07899 -0.520325,-0.631943 -0.520325,-1.26389 0,-1.236774 -1.139748,-2.42049 -2.375694,-2.42049 -1.072701,0 -1.203873,-0.23698 -0.845337,-1.55275 0.195305,-0.736873 0.813278,-1.499691 1.594482,-1.999588 0.682106,-0.420902 1.235947,-0.920799 1.235947,-1.104725 0,-0.157985 -0.651497,-0.606006 -1.431244,-1.000972 -1.5289,-0.709759 -1.951569,-1.999588 -0.781212,-2.36744 0.781212,-0.262916 0.358536,-0.868923 -0.585907,-0.868923 -0.390602,0 -0.975052,-0.367847 -1.268005,-0.815868 -0.292954,-0.446842 -0.71563,-0.815872 -0.878861,-0.815872 -0.195305,0 -0.357086,-0.393788 -0.357086,-0.841809 0,-0.606006 -0.08891,-0.785213 -0.664612,-0.785213 -0.123886,0 -0.26963,0.0083 -0.441612,0.0224 -0.845345,0.07899 -1.138298,0.315973 -1.235947,0.946739 -0.09765,0.448021 -0.358539,0.947918 -0.617973,1.131844 -0.260887,0.183921 -0.715622,0.762813 -1.008575,1.289829 -0.422669,0.78875 -0.422669,1.02573 0,1.26271 0.237571,0.143837 0.31773,0.209862 0.227367,0.209862 -0.0583,0 -0.186558,-0.02712 -0.390606,-0.07781 -0.119511,-0.03183 -0.233196,-0.04716 -0.342506,-0.04716 -0.636917,0 -1.107685,0.529373 -1.413758,1.651783 -0.163234,0.552952 -0.650035,1.289829 -1.040638,1.631741 -1.008579,0.920799 -1.594486,2.289623 -1.594486,3.762195 0,0.789932 -0.25943,1.447815 -0.683555,1.710732 -0.357083,0.26292 -1.040642,1.131843 -1.528901,1.947715 -0.77975,1.341702 -0.845336,2.18351 -0.975051,9.604153 l -0.129715,8.15752 -1.074166,0.183922 c -5.822632,1.026917 -8.555408,3.526398 -9.205444,8.473496 -0.240486,1.675361 -0.397892,2.141067 -0.854084,2.141067 -0.03935,0 -0.0787,-0.0035 -0.122429,-0.0094 -0.618005,-0.10493 -0.682134,-0.947917 -0.747724,-8.341442 C 42.60169,56.293081 42.276674,52.24085 41.4634,51.503973 41.106317,51.188002 40.19539,50.7671 39.446245,50.583174 38.210302,50.240084 38.048521,50.056158 38.015001,49.00331 37.917349,46.79386 37.85322,46.161913 37.49468,43.793299 c -0.390606,-2.631535 -0.520321,-2.736465 -3.935196,-2.736465 -1.008579,0 -2.017155,-0.157986 -2.278044,-0.341912 -0.180727,-0.15327 -0.396432,-0.221653 -0.613597,-0.221653 -0.565503,0 -1.142666,0.46217 -1.142666,1.089398 0,0.868927 0.78121,0.789932 -11.190533,0.947918 -1.788329,0.02594 -3.773417,0.23698 -4.391389,0.446842 -0.73457,0.240516 -1.416671,0.359596 -1.902011,0.359596 -0.524694,0 -0.817647,-0.139122 -0.699591,-0.411472 0.0787,-0.190998 0.491171,-0.312435 1.157239,-0.312435 0.163238,0 0.34105,0.0071 0.533438,0.0224 0.313358,0.02123 0.56113,0.03183 0.754975,0.03183 0.54947,0 0.641291,-0.09432 0.448904,-0.347805 -0.195303,-0.262916 -0.357083,-0.604828 -0.357083,-0.788753 0,-0.183922 -0.195302,-0.315972 -0.424127,-0.341912 -0.227366,0 -0.811816,-0.1851 -1.333594,-0.420902 -0.367285,-0.168598 -0.851169,-0.257023 -1.251976,-0.257023 -0.164695,0 -0.316273,0.01533 -0.438702,0.04598 -0.6514929,0.157985 -0.7812088,0.499897 -0.7156227,2.236568 0.032065,1.105904 -0.097651,2.342678 -0.2608881,2.736462 -0.2055054,0.501079 -1.2694654,0.9491 -1.8786926,0.9491 -0.2550592,0 -0.4299564,-0.07782 -0.4299564,-0.264099 0,-0.166237 -0.02915,-0.247589 -0.084534,-0.247589 -0.1821852,0 -0.6558662,0.881893 -1.3802338,2.536034 -0.6179719,1.473754 -1.3656592,2.526603 -2.1789331,3.079555 L 2.2979877,52.39883 2.2003367,61.74007 C 2.102685,71.370165 2.005034,71.976175 0.41200796,71.976175 c -0.48825592,0 -0.5859071,2.157578 -0.5859071,14.630241 V 101.23667 H 415.81282 l -0.0977,-23.918432 -0.0977,-23.946724 -0.94296,-1.39476 c -0.48829,-0.788753 -1.10624,-2.341499 -1.3992,-3.499279 l -0.48826,-2.078582 -2.99221,-0.236981 c -0.70542,-0.05306 -1.29862,-0.08489 -1.79853,-0.08489 -2.24597,0 -2.6249,0.657882 -2.91787,3.111389 -0.22736,1.657677 -0.61795,2.631534 -1.69214,4.078171 l -1.43125,1.868717 v 4.998974 5.000149 l -1.39917,-0.211044 c -0.77975,-0.130867 -2.04922,-0.446839 -2.82898,-0.709755 L 396.2957,63.739664 V 61.34511 c 0,-1.473755 -0.22882,-2.631535 -0.55383,-3.026501 -0.29297,-0.367847 -0.6821,-1.078789 -0.81327,-1.578686 -0.1618,-0.473957 -0.45474,-0.894863 -0.68212,-0.894863 -0.22883,0 -0.3906,-0.367847 -0.3906,-0.78875 0,-0.775783 -1.46768,-1.986621 -2.23868,-1.986621 -0.11953,0 -0.22155,0.0283 -0.29879,0.09196 -0.19529,0.157986 -0.45618,3.762196 -0.58591,7.972416 -0.1297,4.237332 -0.3906,7.999531 -0.55237,8.368557 -0.21863,0.484574 -0.52762,0.618981 -2.07254,0.618981 -0.30026,0 -0.64859,-0.0059 -1.05084,-0.01415 -3.18753,-0.02593 -3.77344,-0.209862 -3.77344,-1.104721 0,-0.692078 -1.35983,-0.957352 -5.57629,-0.957352 -0.91678,0 -1.97052,0.01297 -3.17441,0.03655 l -5.2688,0.104927 -0.22882,1.973648 -0.19528,1.973656 h -7.31803 l -0.0976,-12.604721 c -0.0656,-10.868046 0,-12.604717 0.52032,-12.762703 0.32501,-0.104931 0.58591,-0.499897 0.58591,-0.867745 0,-0.338375 -0.11221,-0.496361 -0.33521,-0.496361 -0.0714,0 -0.15597,0.01651 -0.2507,0.04834 -0.0393,0.01179 -0.0743,0.01769 -0.10785,0.01769 -0.45474,0 -0.51013,-1.103546 -0.51013,-6.49041 0,-3.657264 -0.13116,-6.999738 -0.26086,-7.420643 -0.19532,-0.57889 -0.0642,-0.789932 0.61795,-0.920801 1.04065,-0.236978 1.10623,-0.710937 0.19531,-1.263891 -0.58591,-0.34191 -0.71564,-1.104725 -0.77976,-4.394142 -0.0335,-2.631535 -0.22882,-4.157164 -0.5859,-4.473135 -0.35855,-0.341911 -0.35855,-0.499897 -0.0656,-0.499897 0.26089,0 0.45617,-0.315973 0.45617,-0.657885 0,-0.369028 -0.19528,-0.657882 -0.4241,-0.657882 -0.22739,0 -0.32504,-0.290036 -0.19385,-0.631947 0.14136,-0.361954 0.11075,-0.503433 -0.2128,-0.503433 -0.1239,0 -0.28857,0.02004 -0.50284,0.05659 -0.0962,0.01415 -0.19384,0.0224 -0.2915,0.0224 -0.599,0 -1.25052,-0.280604 -2.11624,-0.891325 -0.78122,-0.578892 -1.72421,-1.025733 -2.0813,-1.025733 -0.9765,0 -1.10623,-0.499897 -0.45618,-1.76261 0.52033,-1.026911 0.52033,-1.342884 0.0321,-2.289622 -0.8118,-1.605802 -2.73569,-2.4912331 -5.25711,-2.4912331 -0.20551,0 -0.41684,0.00589 -0.62964,0.017685 -4.4249,0.2629175 -6.5062,2.3945541 -6.60385,6.8676901 -0.0423,1.252102 -0.0845,1.807411 -0.16907,1.807411 -0.0466,0 -0.10785,-0.172134 -0.18945,-0.491644 -0.13993,-0.55413 -0.223,-0.817049 -0.27549,-0.817049 -0.0452,0 -0.067,0.190998 -0.0816,0.554131 -0.0321,0.473959 -0.2609,1.262712 -0.55386,1.762609 -0.42267,0.736878 -0.38913,0.920801 0.29296,1.315768 0.42267,0.262916 0.65149,0.473959 0.48826,0.499897 -0.16324,0.02712 -0.45475,0.05305 -0.65003,0.07899 -0.78122,0.104931 -0.87887,0.552952 -0.8468,3.868307 0,1.868719 -0.12973,5.604979 -0.25943,8.28957 l -0.2609,4.868099 -0.94299,-0.1851 c -0.26089,-0.04952 -0.65295,-0.07546 -1.08874,-0.07546 -0.48825,0 -1.03336,0.03301 -1.51285,0.102574 l -1.62656,0.209861 v 4.552132 4.579247 h -4.81552 c -3.1875,0 -4.94376,0.130867 -5.26877,0.394962 -0.39062,0.288856 -0.42267,4.420082 -0.22885,17.761677 l 0.2609,17.366707 -0.943,0.815872 c -1.07705,0.939667 -3.85501,1.739029 -5.80075,1.739029 -0.2886,0 -0.55969,-0.01769 -0.80307,-0.05424 -1.72421,-0.264092 -5.07495,-2.552536 -5.23672,-3.579453 -0.0933,-0.471596 -0.35855,-0.68618 -0.8541,-0.68618 -0.0291,0 -0.0598,0.0012 -0.0904,0.0024 -0.0729,0.0071 -0.13846,0.01297 -0.19968,0.01297 -0.5859,0 -0.60632,-0.477494 -0.548,-3.960266 0.032,-2.210633 0.19528,-5.210015 0.35852,-6.65783 0.19385,-1.867538 0.12973,-2.736465 -0.16324,-2.920387 -0.58591,-0.262917 -0.61795,-1.710732 -0.0656,-1.999588 0.58591,-0.290039 0.48825,-1.394764 -0.0977,-1.55275 -0.38913,-0.104931 -0.32501,-0.473957 0.2609,-1.36882 0.61798,-0.920803 0.71563,-1.367645 0.39062,-1.788547 -0.26089,-0.290036 -0.32504,-0.841809 -0.13119,-1.210835 0.16324,-0.341911 0.19531,-1.131843 0.0977,-1.710735 -0.14282,-0.71801 -0.33667,-0.988003 -0.82492,-0.988003 -0.067,0 -0.13846,0.0059 -0.21573,0.01533 -0.0423,0.0024 -0.0831,0.0047 -0.12097,0.0047 -0.59463,0 -0.85989,-0.402038 -1.43997,-2.031421 -0.39063,-1.15778 -0.81329,-2.183514 -0.91092,-2.262505 -0.0977,-0.07899 -2.69928,-0.23698 -5.79059,-0.34309 l -5.59524,-0.183926 0.26086,1.28983 c 0.16181,0.709759 0.81329,2.157573 1.49686,3.210422 l 1.23593,1.946533 v 7.368771 7.341644 h -5.04288 c -5.52969,0 -5.65939,0.05188 -6.1156,2.051468 -0.25943,1.236771 -0.29294,1.236771 -2.27658,1.236771 -2.24451,0 -3.80548,-0.867744 -4.26166,-2.394554 -0.1618,-0.499893 -0.45474,-0.893685 -0.65005,-0.893685 -0.19528,0 -0.35852,-8.526543 -0.35852,-20.051296 0,-14.65736 -0.12973,-20.262337 -0.48828,-20.894283 -0.25943,-0.47278 -1.33359,-1.236774 -2.40628,-1.709552 -1.23597,-0.527016 -1.98511,-1.105906 -2.08274,-1.552748 -0.0641,-0.420904 -0.45474,-0.736876 -1.00714,-0.789932 -0.74914,-0.07899 -0.94443,-0.315972 -0.94443,-1.104725 0,-1.710734 -0.61798,-2.236569 -2.6672,-2.236569 -2.60159,0 -3.41486,0.420904 -3.41486,1.815665 0,1.025732 -0.19531,1.236774 -1.3992,1.63174 -2.34216,0.788752 -4.97729,2.420492 -5.82263,3.552334 -0.42267,0.578892 -0.91092,1.788548 -1.04065,2.683411 -0.16324,0.868923 -0.39059,1.684795 -0.52032,1.789726 -0.0262,0.02004 -0.07,0.02948 -0.1297,0.02948 -0.25071,0 -0.77683,-0.169777 -1.30155,-0.424442 -0.64856,-0.299465 -1.5318,-0.528195 -2.03753,-0.528195 -0.0262,0 -0.0525,0 -0.0773,0.0024 -0.68356,0.02594 -0.74915,0.079 -0.16324,0.183925 0.84534,0.183926 0.94299,0.762814 0.0977,0.762814 -0.35709,0 -0.71562,-0.02594 -0.84534,-0.07899 -0.0131,-0.0047 -0.0292,-0.0083 -0.0452,-0.0083 -0.13847,0 -0.36874,0.196896 -0.5728,0.456276 -0.35854,0.551773 -0.48825,29.971424 -0.12972,32.944866 0.0962,0.841812 0.0321,1.55275 -0.19529,1.55275 -0.35854,0 -1.43125,-3.473343 -1.26947,-4.105286 0.16324,-0.657883 0,-1.473755 -0.32501,-1.473755 -0.16324,0 -0.29296,0.394966 -0.32503,0.894867 0,0.499893 -0.0335,1.631737 -0.0976,2.552536 -0.0394,0.953812 -0.067,1.341705 -0.21863,1.341705 -0.10057,0 -0.25214,-0.166236 -0.497,-0.446838 -0.37748,-0.446846 -0.63838,-0.677933 -0.88468,-0.677933 -0.30462,0 -0.58446,0.356064 -1.03483,1.098831 -0.44889,0.762818 -0.83659,1.136559 -1.09893,1.136559 -0.30608,0 -0.44016,-0.511681 -0.30024,-1.505585 0.26088,-1.946533 -0.68211,-7.156543 -1.49537,-8.104462 -0.35855,-0.394966 -0.65151,-0.973858 -0.65151,-1.289829 0,-0.578892 -3.38281,-1.630562 -6.60383,-2.078583 -0.84534,-0.104931 -1.5289,-0.367847 -1.56096,-0.604828 0,-0.21104 -0.0321,-3.631328 -0.0641,-7.631683 -0.0291,-3.476879 -0.0831,-5.886761 -0.16033,-5.886761 -0.0117,0 -0.0233,0.04952 -0.035,0.150914 -0.0656,0.815868 -0.39061,1.631736 -0.71562,1.841602 -0.48827,0.290031 -0.61798,1.499691 -0.61798,6.157928 -0.0262,4.113541 -0.22591,6.115486 -0.64713,6.115486 -0.12389,0 -0.26526,-0.170955 -0.42703,-0.510505 -0.1268,-0.257023 -0.19968,-0.381997 -0.29733,-0.381997 -0.10347,0 -0.2332,0.137944 -0.48389,0.407933 -0.29295,0.315975 -1.13829,0.683822 -1.88597,0.789932 -1.33361,0.23698 -1.33361,0.23698 -1.46477,2.315563 -0.0962,1.736668 -0.22737,2.104519 -0.90947,2.236565 -0.58591,0.130871 -0.7812,0.446842 -0.7812,1.26271 0,1.868721 -0.61798,2.684594 -2.21247,2.92157 -0.94299,0.130875 -1.4633,0.393791 -1.4633,0.762818 0,0.288856 -0.29295,0.815872 -0.68356,1.157775 -0.39061,0.341912 -0.78121,1.315773 -0.91092,2.157578 l -0.22737,1.52681 h -5.27025 v -19.5514 -19.578518 l -0.91092,-1.604626 c -0.83223,-1.424234 -1.05522,-1.806231 -0.72147,-1.806231 0.12244,0 0.32065,0.0507 0.59174,0.121438 0.24341,0.06131 0.42851,0.09432 0.55823,0.09432 0.3731,0 0.29004,-0.272349 -0.16762,-0.936129 -0.22737,-0.367847 -0.74768,-0.630766 -1.17182,-0.630766 -0.42266,0 -0.94299,-0.185102 -1.10476,-0.422083 -0.16324,-0.235799 -0.2609,-3.341293 -0.1953,-6.919565 l 0.0976,-6.499842 -1.26945,-0.369027 c -1.46332,-0.420904 -2.17894,-1.578685 -1.78833,-2.946328 0.19529,-0.789932 0.0641,-0.999794 -0.74915,-1.236774 -0.97505,-0.315972 -0.97505,-0.315972 -2.17894,-5.026088 -0.12971,-0.499897 -0.58591,-1.1577806 -1.00857,-1.447815 -0.42267,-0.3159728 -0.78121,-0.788753 -0.78121,-1.0257325 0,-0.416188 -0.44015,-0.6637785 -0.96194,-0.6637785 -0.30461,0 -0.63692,0.084888 -0.92404,0.2688126 -0.2813,0.1874614 -0.43725,0.2794237 -0.49117,0.2794237 -0.0525,0 -0.0117,-0.084888 0.10057,-0.2534856 0.48825,-0.6578834 -0.91093,-1.7095537 -2.2766,-1.7095537 z"
       fill-rule="evenodd"
       id="path1"
       sodipodi:nodetypes="sccsssccccscsccsscsccccssssssssccsscccscscccsssccssssccsssssssccsscscccsssssssscsssssccscccccsccccsccscsccscscssscscsssccscccccssscccccccccccsssscccccscsssccsccsccscscsccscscccscccccccccssssscccccsscccscccsscccccccssscsccccccscccsscccsccccssssscscscscsccccscscccccscscsssccscscscssscscccccssccsccscssscccccscsccsccccccsccccccscssccscscscsccscccsssccccssccccccccsccccccccsccssscccscsscccccccsscsscccccssscscscsccsccscscccccccccsccccsccccsccscsccccsccccscscscccccccscscssccccsssccccscsccscsccscsccscscsccscccscccscsccccscssccccccscscsccccccccsscscss" /></g><path
     style="fill:#0180c9;fill-opacity:1;stroke-width:1.12399"
     d="m 62.256764,369.43664 c 0,-26.15116 0.264695,-31.47161 1.565726,-31.47161 2.587553,0 2.930219,-2.70067 2.930219,-23.0941 0,-18.39233 0.131938,-19.60888 2.249488,-20.74218 1.237219,-0.66213 3.521811,-3.71469 5.076872,-6.78346 1.797403,-3.54699 3.557506,-5.57957 4.831625,-5.57957 3.227068,0 4.701809,-2.36203 4.701809,-7.53072 0,-5.01083 0.523407,-5.4152 5.338932,-4.12469 3.40156,0.91158 3.216733,2.66352 -0.280996,2.66352 -1.54548,0 -2.809965,0.47476 -2.809965,1.05502 0,0.6304 5.768056,0.83817 14.330826,0.51622 20.06312,-0.75432 26.17418,-1.49555 26.85002,-3.25675 0.43013,-1.12089 2.20982,-1.34661 6.95526,-0.88209 3.50747,0.34333 6.96897,1.08982 7.69221,1.65885 0.72324,0.56904 1.67274,4.85246 2.11,9.5187 0.77087,8.22632 0.90605,8.53046 4.44962,10.01107 2.01003,0.83983 4.04421,2.43096 4.5204,3.53584 0.47619,1.10485 1.06435,11.87182 1.30703,23.92658 0.24268,12.05475 0.68275,23.05576 0.97792,24.44669 0.6299,2.96821 3.86292,3.43744 3.87208,0.562 0.0293,-9.18813 6.39428,-17.1219 15.9695,-19.90549 4.6775,-1.3598 6.43413,-2.45091 6.9313,-4.30529 0.36627,-1.36615 0.67287,-9.36245 0.6813,-17.76956 0.015,-15.09694 0.0568,-15.34675 3.36685,-20.23175 1.84332,-2.72035 3.36405,-5.95766 3.37937,-7.19406 0.0153,-1.23638 1.06617,-3.76536 2.33522,-5.61992 1.26904,-1.85459 2.77059,-4.51001 3.33673,-5.90094 0.56615,-1.39093 1.82275,-2.52897 2.79244,-2.52897 0.96969,0 1.65056,-0.63224 1.51308,-1.40499 -0.32642,-1.8344 3.67227,-8.51567 5.52636,-9.23381 0.80825,-0.31306 1.89597,0.6386 2.47719,2.16734 0.56993,1.499 2.45046,3.49227 4.17897,4.42948 3.12384,1.69376 3.12634,1.70428 0.41785,1.74901 l -2.7249,0.045 2.62167,2.79064 c 1.44193,1.53486 3.49788,3.06873 4.56874,3.40862 1.6912,0.53676 1.52012,1.04493 -1.30175,3.86681 -3.96355,3.96354 -4.28713,7.61388 -0.71987,8.12051 1.64642,0.23385 3.30979,1.92818 4.76641,4.85513 1.90315,3.82422 2.29795,7.30879 2.6423,23.32271 l 0.40486,18.82677 h 5.97494 c 3.72825,0 6.18809,-0.5283 6.54184,-1.40498 0.45354,-1.12399 0.58466,-1.12399 0.65566,0 0.18659,2.95413 2.26772,1.22975 2.95826,-2.45111 0.39787,-2.12085 1.43237,-4.12816 2.2989,-4.46068 1.87971,-0.7213 2.09083,-5.33012 0.32507,-7.0959 -0.68776,-0.68773 -1.05138,-1.84766 -0.80805,-2.57761 0.24331,-0.72995 1.11752,0.11104 1.94269,1.86862 0.82515,1.7577 1.87614,3.95451 2.33552,4.88179 0.45937,0.9273 2.01244,1.68598 3.45124,1.68598 2.01346,0 2.83634,-0.85019 3.57251,-3.69119 1.15966,-4.47528 -1.09009,-7.35401 -5.6788,-7.26649 -2.21344,0.0423 -3.65383,-0.9475 -5.47992,-3.76541 -2.96184,-4.57051 -0.90466,-5.3069 2.82908,-1.01272 1.34379,1.54549 3.52118,2.80998 4.83866,2.80998 1.39912,0 4.66018,2.3374 7.84071,5.61993 3.12147,3.22159 4.74057,5.61992 3.79395,5.61992 -0.90825,0 -1.65136,0.47595 -1.65136,1.05765 0,1.75382 2.36223,2.64967 3.63381,1.37806 0.65448,-0.65445 2.55531,-0.91689 4.22406,-0.58312 l 3.03411,0.60681 0.74657,-9.9406 c 0.41061,-5.46732 1.49765,-16.76879 2.41565,-25.11439 0.91799,-8.34559 2.05123,-20.48464 2.51832,-26.97567 0.78197,-10.86674 1.03879,-11.82888 3.24143,-12.14309 1.96911,-0.2809 2.52685,-1.37413 3.1538,-6.18193 1.14977,-8.81703 1.77627,-10.64366 3.82211,-11.14384 3.13735,-0.76704 6.40632,1.65953 6.00855,4.46016 -0.29249,2.05969 0.17686,2.52899 2.52897,2.52899 2.67368,0 2.88815,0.37561 2.88815,5.05792 0,5.31721 2.19323,6.9646 4.28826,3.22103 0.68383,-1.22194 1.3039,3.51859 1.85218,14.16021 0.70085,13.60274 1.1478,16.3207 2.98624,18.15913 1.93998,1.93998 2.23557,4.52602 2.87808,25.17932 l 0.71602,23.01729 h 4.3415 4.34147 l -0.67969,-44.11647 c -0.3738,-24.26404 -0.87453,-44.74868 -1.11268,-45.52143 -0.24501,-0.79484 0.52785,-1.40499 1.77963,-1.40499 2.15092,0 2.2127,0.92554 2.2127,33.1576 0,35.8975 -0.26511,34.48476 6.02264,32.09416 1.64435,-0.62518 2.94832,-2.13059 3.16413,-3.65296 0.56378,-3.97686 3.75772,-3.2921 3.64952,0.78244 -0.11104,4.18456 1.06657,5.01894 7.11446,5.04072 l 4.77693,0.0173 V 280.2175 c 0,-11.99429 0.3411,-15.31927 1.68601,-16.43543 0.92728,-0.76958 1.68596,-2.17286 1.68596,-3.11839 0,-1.47959 1.64465,-1.61854 11.80186,-0.99706 l 11.80184,0.7221 v -9.03489 c 0,-8.22677 0.25487,-9.27105 2.84943,-11.67561 1.76594,-1.6366 3.6892,-2.42113 5.05795,-2.06322 1.57186,0.41107 2.20851,0.0131 2.20851,-1.38259 0,-1.07807 1.55957,-5.12809 3.46574,-9.00005 2.05269,-4.16957 4.51489,-12.24566 6.03892,-19.80769 1.41522,-7.02228 2.85356,-12.00908 3.19631,-11.08179 0.97853,2.6476 6.5509,24.51611 8.30577,32.59559 1.91351,8.81002 3.35851,10.62537 7.27307,9.13707 5.71836,-2.17413 5.71552,-2.19255 6.32021,40.76365 0.44732,31.77692 0.86393,40.01818 2.02307,40.01818 2.20884,0 2.56298,-1.11029 3.7854,-11.86856 0.77519,-6.8221 1.66427,-10.23138 2.83972,-10.8892 1.3593,-0.76069 1.71124,-3.3348 1.71124,-12.51619 0,-6.35721 0.5738,-14.41567 1.2751,-17.90773 1.16738,-5.81279 1.72167,-6.63576 6.56132,-9.74134 6.20104,-3.97919 7.36717,-4.09865 11.75755,-1.20449 4.93667,3.25427 6.17377,6.43978 6.21788,16.01076 0.0219,4.75452 0.50837,8.93415 1.08103,9.28807 0.93485,0.57778 1.49239,-2.52949 2.71351,-15.12266 0.2099,-2.16367 0.46242,0.69053 0.56135,6.34267 0.14381,8.21471 -0.15846,10.40643 -1.5061,10.92359 -2.26039,0.86739 -2.27586,12.04706 -0.0232,16.84546 0.91446,1.948 2.12847,7.76529 2.69782,12.92734 0.56931,5.16204 1.50367,9.85407 2.07634,10.42674 0.57267,0.57269 3.57559,1.34139 6.67312,1.70825 l 5.63195,0.66701 0.74492,-23.91983 c 0.40971,-13.15592 0.74495,-30.93569 0.74495,-39.51063 0,-14.96304 0.098,-15.62707 2.43478,-16.49149 2.33457,-0.86361 2.42603,-1.47516 2.22171,-14.85659 -0.11704,-7.67575 0.17817,-14.47338 0.65616,-15.10586 0.4781,-0.63247 2.24693,-2.02637 3.93075,-3.09756 2.22268,-1.41399 3.54543,-3.71655 4.82783,-8.40394 2.58726,-9.45672 4.61697,-13.47758 7.22051,-14.30391 1.27157,-0.40358 2.31195,-1.19251 2.31195,-1.75316 0,-0.56067 1.39093,-1.73017 3.09095,-2.59891 3.49287,-1.78492 8.87909,-0.56898 7.48337,1.68934 -0.55415,0.89663 -0.0692,1.11679 1.53585,0.69711 3.15636,-0.82542 6.41587,2.86061 8.18075,9.25122 0.76826,2.78187 2.29253,5.86434 3.38726,6.84996 1.09473,0.9856 2.15807,3.25795 2.36296,5.04963 0.25639,2.242 1.33621,3.71736 3.4635,4.73224 l 3.09096,1.47461 v 14.5783 14.57832 l 3.05289,1.1607 c 2.44823,0.93082 2.7265,1.36628 1.40498,2.19875 -1.42913,0.90022 -1.38678,1.50059 0.31909,4.52248 1.77746,3.14875 1.96695,7.59074 1.96695,46.10484 v 42.6204 h 6.16052 c 5.7867,0 6.20671,-0.18755 6.92172,-3.09096 1.18164,-4.79819 3.6193,-7.87383 7.24131,-9.13647 2.39447,-0.8347 3.50428,-2.09998 3.99524,-4.55483 0.37391,-1.8695 1.37756,-3.97815 2.23034,-4.68589 0.8528,-0.70777 1.55055,-2.76807 1.55055,-4.5785 0,-2.69631 0.70793,-3.58748 3.91385,-4.92701 2.15263,-0.89943 4.55516,-1.50587 5.33893,-1.34765 1.05532,0.21305 1.58197,-2.98005 2.02974,-12.30614 0.33256,-6.92664 0.96481,-12.954 1.40499,-13.39418 0.44017,-0.44017 0.80031,4.85856 0.80031,11.77496 0,14.20834 -0.7022,13.16975 10.67787,15.7932 3.09097,0.71256 6.49848,2.34024 7.57224,3.61706 2.45044,2.91387 4.36723,9.90317 4.61789,16.83854 0.24058,6.65676 1.42298,7.93712 4.07854,4.41656 1.76269,-2.33685 2.32752,-2.51999 3.85709,-1.25057 1.58586,1.31615 1.80191,0.98658 1.87835,-2.86537 l 0.0865,-4.35257 1.32934,4.40584 c 2.94879,9.77326 3.61238,5.31529 3.17051,-21.2991 -0.49975,-30.10038 0.47896,-49.98334 2.46047,-49.98505 0.94825,-8.2e-4 1.20934,6.20071 0.97139,23.07214 -0.17905,12.6903 0.15846,24.82589 0.74995,26.96796 0.64931,2.3516 0.66692,4.14714 0.0445,4.53186 -0.567,0.35043 -1.03092,6.12967 -1.03092,12.84273 0,14.07476 1.31787,19.77236 2.34575,10.14148 l 0.65979,-6.18191 0.18321,7.02491 c 0.21516,8.24653 1.81816,9.26815 2.84038,1.81009 1.08416,-7.90968 0.80254,-57.68096 -0.35458,-62.66917 -0.78308,-3.3757 -0.61533,-4.98991 0.73232,-7.04667 1.14972,-1.75473 1.53079,-4.00702 1.11323,-6.58012 -0.34917,-2.15169 -0.18037,-3.91217 0.37514,-3.91217 0.55548,0 1.52959,-1.92968 2.16468,-4.28815 1.38383,-5.13925 4.2643,-7.9641 12.1388,-11.90461 3.97252,-1.98788 5.90092,-3.64203 5.90092,-5.06166 0,-2.37054 2.09897,-3.47329 6.61106,-3.47329 3.32641,0 5.75279,1.79659 5.75279,4.25959 0,1.84791 3.4253,4.91508 9.30845,8.33517 2.33775,1.35903 4.47184,3.50688 4.74242,4.77299 0.27054,1.26611 0.64798,21.26929 0.83875,44.4515 0.4161,50.56958 0.41846,50.57938 12.11664,50.57938 3.62965,0 4.58551,-0.50751 5.82151,-3.09096 1.45406,-3.03915 1.67177,-3.09635 12.98719,-3.41128 l 11.50835,-0.32033 v -16.2808 c 0,-15.16001 -0.18212,-16.56944 -2.64578,-20.47343 -1.45517,-2.30594 -3.00662,-5.33065 -3.44768,-6.72158 -0.78259,-2.46794 -0.60006,-2.52897 7.56318,-2.52897 13.11579,0 15.42716,0.75803 17.36669,5.69561 0.91332,2.32509 2.6067,4.47485 3.76306,4.77725 1.82383,0.47695 2.02284,1.34635 1.50162,6.55934 -0.33048,3.30523 -0.53357,14.80994 -0.45133,25.56601 l 0.1495,19.55649 3.87929,3.65862 c 6.40529,6.04098 10.80933,7.61468 17.37132,6.20739 3.07624,-0.65974 6.81243,-1.99842 8.30267,-2.97486 l 2.70951,-1.77534 -0.66832,-37.95676 c -0.42842,-24.33217 -0.27269,-38.20128 0.43389,-38.63796 0.60619,-0.37466 5.74285,-1.03152 11.41478,-1.4597 l 10.31257,-0.77849 v -9.3712 c 0,-9.07689 0.0888,-9.39352 2.83074,-10.08168 1.55689,-0.39075 4.06052,-0.47536 5.56361,-0.18803 1.72011,0.32884 2.96201,-0.0747 3.35119,-1.08885 0.34008,-0.88621 0.61831,-8.53849 0.61831,-17.00506 0,-12.42118 0.35442,-15.8998 1.8354,-18.01418 1.38389,-1.97576 1.5017,-2.8266 0.47893,-3.45872 -1.01803,-0.62916 -0.9151,-1.27969 0.41259,-2.60735 0.97297,-0.97297 1.76901,-3.05941 1.76901,-4.63653 0,-1.57714 0.79802,-4.86196 1.77338,-7.29959 2.31078,-5.77517 7.59241,-8.44334 15.25601,-7.70697 7.44331,0.71521 10.28604,3.38424 9.37127,8.79862 -0.66367,3.92827 -0.4857,4.22493 3.90842,6.51528 2.53204,1.31977 5.59974,2.3996 6.81708,2.3996 1.21737,0 2.23338,0.12648 2.25785,0.28099 0.0245,0.15456 0.30942,4.83314 0.6332,10.39687 0.32378,5.56373 1.07836,11.62796 1.67686,13.47604 0.72023,2.224 0.70457,3.48804 -0.0462,3.73832 -1.56408,0.52137 -0.12937,31.933 1.5149,33.16959 0.87759,0.65996 0.82838,1.09347 -0.17028,1.49865 -1.07114,0.43463 -1.40499,7.22465 -1.40499,28.57607 v 28.006 h 8.30964 c 8.69501,0 9.67414,-0.5781 9.67414,-5.71186 0,-1.91075 0.92711,-2.17632 8.1489,-2.33433 13.62866,-0.29817 20.37365,0.32767 21.60761,2.00484 1.10826,1.50636 14.44044,2.68255 15.73484,1.38816 0.3074,-0.30738 0.84273,-6.59371 1.18972,-13.96964 0.34694,-7.37593 0.89785,-15.60473 1.22421,-18.28622 0.57582,-4.73095 0.65757,-4.81741 2.75774,-2.91675 1.19037,1.07726 2.16433,2.63897 2.16433,3.47046 0,0.83146 0.45088,1.51175 1.00194,1.51175 1.559,0 4.61798,8.59568 4.61798,12.97642 0,4.27777 1.16506,5.10534 9.27289,6.58696 l 4.21495,0.77025 v -11.24088 c 0,-10.10471 0.28101,-11.65498 2.78026,-15.33779 1.52913,-2.25331 3.11245,-5.94278 3.51851,-8.19882 1.09142,-6.06399 2.23152,-6.91187 9.29419,-6.91187 h 6.32579 l 2.69797,7.02491 c 2.43819,6.34846 2.77664,9.46025 3.51504,32.31461 0.4494,13.90933 0.87892,37.5552 0.95448,52.54636 l 0.13745,27.25666 H 516.90918 62.256764 Z"
     id="path21" /><path
     style="fill:#0180c9;fill-opacity:1;stroke-width:0.397389"
     d="m 285.45396,219.35864 c -0.37768,-0.27615 -1.56805,-0.62333 -2.64532,-0.77149 -1.07726,-0.14815 -2.34878,-0.5853 -2.82563,-0.97142 -0.85806,-0.69481 -0.84403,-0.7049 1.36551,-0.98096 1.22783,-0.15341 2.40452,-0.49116 2.6148,-0.75054 0.21034,-0.25941 0.3903,-1.22221 0.4,-2.13957 0.0197,-1.9007 0.6323,-3.29943 1.44405,-3.29943 0.92827,0 2.2005,1.99899 2.2005,3.45754 0,2.46923 1.24722,3.67475 2.38435,2.30462 0.72792,-0.87713 1.98694,-0.75769 1.98694,0.18849 0,0.84072 -0.98491,1.46864 -4.24885,2.70885 -1.63549,0.62143 -2.11192,0.66663 -2.67635,0.25392 z"
     id="path23" /><path
     style="fill:#0180c9;fill-opacity:1;stroke-width:0.140499"
     d="m 625.55602,320.34557 c -0.14293,-0.50554 -0.23461,-1.74381 -0.37157,-5.02282 -0.0775,-1.85458 -0.24395,-3.97259 -0.37001,-4.7067 -0.32949,-1.91896 -0.35818,-3.05848 -0.0764,-3.03726 0.58753,0.0442 0.74217,-1.38485 0.3667,-3.38867 -0.2031,-1.08372 -0.20245,-1.20745 0.009,-1.52897 0.32044,-0.48904 1.2534,-0.43295 1.64902,0.0992 0.51559,0.69344 0.65221,3.66438 0.23042,5.01068 -0.15431,0.49239 -0.38755,0.56209 -1.04487,0.31218 -0.59475,-0.22613 -0.5828,-0.0407 0.039,0.60399 0.79788,0.82727 1.06047,1.42088 1.1329,2.56116 0.0543,0.85422 0.0223,1.03426 -0.2436,1.36985 -0.17292,0.21836 -0.44491,0.38637 -0.62534,0.38637 -0.41976,0 -0.81882,0.45471 -0.76049,0.86654 0.0407,0.28684 0.12385,0.3277 0.66735,0.3277 0.55614,0 0.6398,0.0439 0.80152,0.4215 0.43922,1.0251 0.11468,3.61395 -0.64064,5.11019 -0.44739,0.88626 -0.64122,1.0427 -0.7622,0.61511 z"
     id="path24" /><path
     style="fill:#0180c9;fill-opacity:1;stroke-width:0.140499"
     d="m 625.43572,301.0973 c -0.46678,-0.53512 -0.56328,-0.88453 -0.41159,-1.49014 0.27063,-1.08061 0.58408,-5.13022 1.07274,-13.85929 0.24182,-4.31957 0.59259,-8.66772 0.75938,-9.41339 0.35546,-1.58914 0.36989,16.17788 0.0174,20.65325 -0.29439,3.73125 -0.71593,4.93656 -1.43731,4.10957 z"
     id="path25" /><g
     id="g2"
     transform="matrix(1.1400332,0,0,1.1400332,18.102218,-15.54318)"><path
       d="m 0.75951395,86.112149 c 0,-0.737461 0.31837895,-1.162773 0.81037035,-1.162773 z"
       style="fill-rule:evenodd;stroke-width:1.98391"
       id="path1-0" /></g></svg>
