<?xml version="1.0" encoding="UTF-8" standalone="no"?>
<!-- Created with Inkscape (http://www.inkscape.org/) -->

<svg
   width="210mm"
   height="200mm"
   viewBox="0 0 210 200"
   version="1.1"
   id="svg1"
   xmlns="http://www.w3.org/2000/svg"
   xmlns:svg="http://www.w3.org/2000/svg">
  <defs
     id="defs1" />
  <g
     id="layer1">
    <g
       transform="matrix(0.44261882,0,0,0.44261882,-91.851374,2.9541465)"
       id="g4">
      <path
         d="m 484.36803,42.893172 84,41.76 V 193.13317 l -84,41.76 -84,-41.76 V 84.653172 Z"
         stroke="#ffffff"
         stroke-width="1.66667"
         stroke-linejoin="round"
         stroke-miterlimit="10"
         fill="#1cade4"
         fill-rule="evenodd"
         id="path1" />
      <text
         fill="#ffffff"
         font-family="'Tw Cen MT', 'Tw Cen MT_MSFontService', sans-serif"
         font-weight="400"
         font-size="17px"
         id="text1"
         x="425.27411"
         y="133.89317">Computational</text>
      <text
         fill="#ffffff"
         font-family="'Tw Cen MT', 'Tw Cen MT_MSFontService', sans-serif"
         font-weight="400"
         font-size="17px"
         id="text2"
         x="430.1871"
         y="152.89317">Infrastructure</text>
      <path
         d="m 303.86803,42.893172 83.5,41.76 V 193.13317 l -83.5,41.76 -83.5,-41.76 V 84.653172 Z"
         stroke="#ffffff"
         stroke-width="1.66667"
         stroke-linejoin="round"
         stroke-miterlimit="10"
         fill="#1cade4"
         fill-rule="evenodd"
         id="path2" />
      <path
         d="m 393.86803,205.89317 83.5,41.76 v 108.48 l -83.5,41.76 -83.5,-41.76 v -108.48 z"
         stroke="#ffffff"
         stroke-width="1.66667"
         stroke-linejoin="round"
         stroke-miterlimit="10"
         fill="#1cade4"
         fill-rule="evenodd"
         id="path3" />
      <text
         fill="#ffffff"
         font-family="'Tw Cen MT', 'Tw Cen MT_MSFontService', sans-serif"
         font-weight="400"
         font-size="17px"
         id="text3"
         x="333.64914"
         y="295.07718">Computational</text>
      <text
         fill="#ffffff"
         font-family="'Tw Cen MT', 'Tw Cen MT_MSFontService', sans-serif"
         font-weight="400"
         font-size="17px"
         id="text4"
         x="345.41513"
         y="314.07718">Knowledge</text>
      <path
         d="m 574.36803,205.89317 84,41.76 v 108.48 l -84,41.76 -84,-41.76 v -108.48 z"
         stroke="#ffffff"
         stroke-width="1.66667"
         stroke-linejoin="round"
         stroke-miterlimit="10"
         fill="#1cade4"
         fill-rule="evenodd"
         id="path4" />
    </g>
    <g
       transform="matrix(0.44261882,0,0,0.44261882,-93.69627,-55.697581)"
       id="g2"
       style="fill:#ffffff">
      <path
         d="M 60.6667,62.8333 H 8.66667 V 28.1667 H 60.6667 Z M 62.8333,21.6667 H 6.5 c -2.38333,0 -4.33333,1.95 -4.33333,4.3333 v 39 c 0,2.3833 1.95,4.3333 4.33333,4.3333 h 21.6667 v 6.5 h -9.75 v 6.5 h 32.5 v -6.5 h -9.75 v -6.5 h 21.6666 c 2.3834,0 4.3334,-1.95 4.3334,-4.3333 V 26 c 0,-2.3833 -1.95,-4.3333 -4.3334,-4.3333 z"
         stroke="#000000"
         stroke-width="1.08333"
         transform="matrix(1.00962,0,0,1,254,219)"
         id="path1-8"
         style="fill:#ffffff" />
      <path
         d="M 97.5,32.5 H 75.8333 V 26 H 97.5 Z m 0,10.8333 H 75.8333 v -6.5 H 97.5 Z m -10.8333,32.5 c -1.8417,0 -3.25,-1.4083 -3.25,-3.25 0,-1.8416 1.4083,-3.25 3.25,-3.25 1.8416,0 3.25,1.4084 3.25,3.25 0,1.8417 -1.4084,3.25 -3.25,3.25 z M 97.5,21.6667 H 75.8333 C 73.45,21.6667 71.5,23.6167 71.5,26 v 52 c 0,2.3833 1.95,4.3333 4.3333,4.3333 H 97.5 c 2.3833,0 4.333,-1.95 4.333,-4.3333 V 26 c 0,-2.3833 -1.9497,-4.3333 -4.333,-4.3333 z"
         stroke="#000000"
         stroke-width="1.08333"
         transform="matrix(1.00962,0,0,1,254,219)"
         id="path2-7"
         style="fill:#ffffff" />
    </g>
    <g
       transform="matrix(0.44261882,0,0,0.44261882,-93.35015,-59.24451)"
       id="g3"
       style="fill:#ffffff">
      <path
         d="m 52.0062,21.7521 c -2.5395,0 -4.6374,2.0979 -4.6374,4.6375 0,2.5396 2.0979,4.6375 4.6374,4.6375 2.5396,0 4.6375,-2.0979 4.6375,-4.6375 0,-2.5396 -2.0979,-4.6375 -4.6375,-4.6375 z"
         stroke="#000000"
         stroke-width="1.10417"
         transform="matrix(1,0,0,1.01887,525,388)"
         id="path1-5"
         style="fill:#ffffff" />
      <path
         d="m 42.7313,48.8042 c 0,2.5612 -2.0763,4.6375 -4.6375,4.6375 -2.5613,0 -4.6376,-2.0763 -4.6376,-4.6375 0,-2.5613 2.0763,-4.6375 4.6376,-4.6375 2.5612,0 4.6375,2.0762 4.6375,4.6375 z"
         stroke="#000000"
         stroke-width="1.10417"
         transform="matrix(1,0,0,1.01887,525,388)"
         id="path2-2"
         style="fill:#ffffff" />
      <path
         d="m 65.1458,27.9354 -2.7604,1.325 c -0.2208,0.8833 -0.6625,1.6563 -1.1042,2.4292 l 0.9938,2.8708 -2.2083,2.2083 -2.8709,-0.9937 c -0.7729,0.4417 -1.5458,0.7729 -2.4291,0.9937 l -1.325,2.6501 H 50.35 l -1.325,-2.7605 c -0.8833,-0.2208 -1.6562,-0.552 -2.4292,-0.9937 L 43.725,36.6583 41.5167,34.45 42.5104,31.5792 C 42.0687,30.8062 41.7375,30.0333 41.5167,29.15 l -2.7605,-1.325 v -3.0917 l 2.7605,-1.325 c 0.2208,-0.8833 0.552,-1.6562 0.9937,-2.4291 l -0.8833,-2.8709 2.2083,-2.2083 2.8708,0.9937 c 0.773,-0.4416 1.5459,-0.7729 2.4292,-0.9937 l 1.325,-2.7604 h 3.0917 l 1.325,2.65 c 0.8833,0.2208 1.6562,0.5521 2.4292,0.9937 l 2.8708,-0.9937 2.2083,2.2083 -0.9937,2.8708 c 0.4416,0.773 0.7729,1.5459 0.9937,2.4292 l 2.7604,1.325 z M 51.2333,50.35 48.4729,51.675 c -0.2208,0.8833 -0.5521,1.6562 -0.9937,2.4292 l 0.8833,2.8708 -2.2083,2.2083 -2.8709,-0.9937 c -0.7729,0.4416 -1.5458,0.7729 -2.4291,0.9937 l -1.2146,2.65 h -3.0917 l -1.325,-2.7604 c -0.8833,-0.2208 -1.6562,-0.5521 -2.4291,-0.9937 l -2.8709,0.8833 -2.2083,-2.2083 0.9937,-2.8709 c -0.4416,-0.7729 -0.7729,-1.5458 -0.9937,-2.4291 l -2.7604,-1.325 v -3.0917 l 2.7604,-1.325 c 0.2208,-0.8833 0.5521,-1.6562 0.9937,-2.4292 l -0.9937,-2.8708 2.2083,-2.2083 2.8709,0.9937 c 0.7729,-0.4417 1.5458,-0.7729 2.4291,-0.9937 l 1.325,-2.7605 H 39.75 l 1.325,2.7605 c 0.8833,0.2208 1.6563,0.552 2.4292,0.9937 l 2.8708,-0.9937 2.2083,2.2083 -0.9937,2.8708 c 0.4416,0.773 0.7729,1.5459 0.9937,2.4292 l 2.7605,1.325 z m 38.2042,4.0854 -7.6188,-13.25 V 40.6333 C 82.2604,28.4875 76.0771,17.1146 65.5875,10.8208 55.0979,4.6375 42.1792,4.6375 31.6896,10.8208 21.2,17.0042 15.0167,28.4875 15.4583,40.6333 c 0,10.4896 4.7479,20.3167 13.0292,26.7209 v 27.9354 h 34.8917 v -13.25 h 5.4104 c 3.5333,0 6.8458,-1.4354 9.275,-3.8646 2.4292,-2.5396 3.7541,-5.8521 3.7541,-9.3854 v -6.625 h 4.8584 c 2.8708,-0.3313 5.4104,-3.6438 2.7604,-7.7292 z"
         stroke="#000000"
         stroke-width="1.10417"
         transform="matrix(1,0,0,1.01887,525,388)"
         id="path3-9"
         style="fill:#ffffff" />
    </g>
  </g>
</svg>
