<?xml version="1.0" encoding="UTF-8" standalone="no"?>
<svg
   version="1.1"
   viewBox="0 0 422.41699 400"
   stroke="none"
   stroke-linecap="square"
   stroke-miterlimit="10"
   id="svg1"
   sodipodi:docname="pointing.svg"
   xml:space="preserve"
   width="422.41699"
   height="400"
   inkscape:export-filename="pointing.svg"
   inkscape:export-xdpi="96"
   inkscape:export-ydpi="96"
   inkscape:version="1.3.2 (091e20e, 2023-11-25, custom)"
   xmlns:inkscape="http://www.inkscape.org/namespaces/inkscape"
   xmlns:sodipodi="http://sodipodi.sourceforge.net/DTD/sodipodi-0.dtd"
   xmlns="http://www.w3.org/2000/svg"
   xmlns:svg="http://www.w3.org/2000/svg"><defs
     id="defs1" /><sodipodi:namedview
     id="namedview1"
     pagecolor="#ffffff"
     bordercolor="#000000"
     borderopacity="0.25"
     inkscape:showpageshadow="2"
     inkscape:pageopacity="0.0"
     inkscape:pagecheckerboard="0"
     inkscape:deskcolor="#d1d1d1"
     inkscape:zoom="1.9104345"
     inkscape:cx="376.87761"
     inkscape:cy="268.26358"
     inkscape:window-width="2880"
     inkscape:window-height="1514"
     inkscape:window-x="2869"
     inkscape:window-y="-11"
     inkscape:window-maximized="1"
     inkscape:current-layer="svg1" /><g
     clip-path="url(#p.0)"
     id="g1"
     transform="matrix(1.9199021,0,0,1.9199021,3.6036064,203.33439)"><path
       d="m 102.86266,12.233753 c -0.0437,0 -0.0933,0.01179 -0.14574,0.03537 -0.22737,0.104931 -0.32502,0.34191 -0.19531,0.499897 0.15595,0.207504 0.28858,0.308899 0.38624,0.308899 0.1268,0 0.19967,-0.167419 0.19967,-0.492824 0,-0.222831 -0.0962,-0.351342 -0.24486,-0.351342 z m -0.49554,1.58458 c -0.52469,0 -0.91384,1.039879 -0.75643,2.05618 0.0656,0.525835 -0.1953,0.683821 -1.26801,0.762814 -1.106225,0.104933 -1.269464,0.183926 -0.846795,0.578892 0.260887,0.262916 0.878865,0.473959 1.399175,0.473959 0.52033,0 1.07271,0.157985 1.23595,0.341909 0.10348,0.168598 0.27109,0.252308 0.41684,0.252308 0.0364,0 0.0714,-0.0047 0.10348,-0.01533 0.12971,-0.07899 0.84534,-0.341912 1.59449,-0.57889 0.77974,-0.290036 1.30152,-0.71094 1.30152,-1.052851 0,-0.372564 -0.20404,-0.580069 -0.45764,-0.580069 -0.17637,0 -0.37749,0.101395 -0.55093,0.317152 -0.17782,0.224011 -0.35272,0.328942 -0.5043,0.328942 -0.29295,0 -0.50428,-0.390249 -0.50428,-1.065819 -0.0335,-1.15778 -0.32502,-1.683616 -1.10623,-1.815663 -0.0189,-0.0024 -0.0379,-0.0035 -0.0568,-0.0035 z M 68.138195,35.793762 c 0.227364,0 0.422669,0.13205 0.422669,0.315972 0,0.183925 -0.09765,0.341911 -0.195305,0.341911 -0.09765,0 -0.292954,-0.157985 -0.422669,-0.341911 -0.129715,-0.183922 -0.06558,-0.315972 0.195305,-0.315972 z m 183.189245,17.70744 c -0.0641,0 -0.11368,0.262921 -0.11368,0.713299 0,0.440945 0.0481,0.702687 0.10931,0.702687 0.0277,0 0.0568,-0.04834 0.086,-0.150914 0.0977,-0.315975 0.0977,-0.815872 0,-1.130664 -0.0277,-0.09196 -0.0568,-0.134407 -0.0816,-0.134408 z m 4.93357,-7.815609 c -10e-4,0 -0.003,0 -0.006,0.0024 -0.12973,0.07899 -0.32502,2.447609 -0.45474,5.237129 -0.16324,2.788341 -0.32501,5.289005 -0.42267,5.525985 -0.0976,0.236977 -0.0976,0.578888 0.0321,0.736874 0.13408,0.175675 0.25068,0.27235 0.34979,0.27235 0.40665,0 0.548,-1.604622 0.62671,-5.956321 0.0321,-3.22575 -0.0306,-5.818379 -0.12534,-5.818379 z m -4.9292,10.364613 c -0.0525,0 -0.086,0.4044 -0.086,1.110623 0,0.707401 0.0335,1.111797 0.086,1.111797 0.0233,0 0.0481,-0.07074 0.0772,-0.216934 0.0977,-0.473961 0.0977,-1.289829 0,-1.789726 -0.0291,-0.146199 -0.0539,-0.21576 -0.0772,-0.21576 z m -0.0233,3.234005 c -0.0772,0 -0.1268,0.186284 -0.1268,0.508152 0,0.321866 0.0496,0.508149 0.1268,0.508149 0.0306,0 0.0641,-0.02829 0.10057,-0.08725 0.0977,-0.236981 0.0977,-0.604828 0,-0.841809 -0.0364,-0.05895 -0.07,-0.08725 -0.10057,-0.08725 z M 81.930344,55.529088 c 0.260887,0 0.454735,0.290036 0.454735,0.657883 0,0.34309 0.195297,0.657883 0.390602,0.657883 0.227364,0 0.422668,-0.156807 0.422668,-0.341908 0,-0.203968 0.434334,-0.308899 0.957566,-0.308899 0.489715,0 1.056671,0.09196 1.418129,0.282959 0.390602,0.183926 0.422668,0.341912 0.09765,0.499897 -0.228821,0.13205 -0.456192,0.446843 -0.456192,0.736878 0,0.228725 0.03935,0.340732 0.151581,0.340732 0.09619,0 0.243401,-0.07899 0.466393,-0.235801 0.281295,-0.186283 0.505745,-0.269993 0.666069,-0.269993 0.358543,0 0.389145,0.422085 -0.01457,1.059925 -0.292953,0.446842 -0.424125,0.973854 -0.260894,1.15778 0.163238,0.209861 0.06559,0.604828 -0.195298,0.867748 -0.3498,0.338371 -0.743316,0.490463 -1.122261,0.490463 -0.891975,0 -1.708168,-0.840629 -1.708168,-2.095089 0,-0.473957 -0.259429,-1.052849 -0.584449,-1.315765 -0.781212,-0.631947 -1.269463,-2.184693 -0.683556,-2.184693 z m 8.227478,4.944737 c 0.475136,0 1.173271,0.325405 1.173271,0.634304 0,0.183926 -0.259437,0.341911 -0.585907,0.341911 -0.650039,0 -1.268013,-0.604828 -0.910927,-0.894863 0.0787,-0.05659 0.192383,-0.08135 0.323563,-0.08135 z m 161.175448,1.044597 c -0.0539,0 -0.0874,0.326584 -0.0874,0.905472 0,0.577713 0.0335,0.917267 0.086,0.917267 0.0233,0 0.0481,-0.05777 0.0772,-0.180389 0.0977,-0.394966 0.0977,-1.078785 0,-1.473751 -0.0291,-0.114365 -0.0539,-0.168599 -0.0758,-0.168599 z m 5.16533,-24.973633 c 0.82199,0 0.97504,0.156807 1.05811,0.82766 0.29297,2.052643 0.0976,3.026497 -0.84534,4.105286 -0.71561,0.841808 -0.71561,0.973858 -0.16324,1.473755 0.55386,0.499897 0.61798,2.578476 0.65149,15.867016 0.0263,11.468163 -0.12823,16.078056 -0.60046,16.078056 -0.0918,0 -0.19532,-0.172135 -0.31046,-0.499894 -0.13116,-0.341911 -0.19528,-1.762611 -0.13116,-3.183311 0.0335,-1.421875 -0.12973,-2.605591 -0.35709,-2.710526 -0.22737,-0.07899 -0.1953,-0.236976 0.0977,-0.341911 0.7156,-0.264091 0.65002,-1.447815 -0.0977,-1.447815 -0.48825,0 -0.55238,0.578896 -0.48825,3.447403 0.0656,1.894661 -0.0321,3.710327 -0.1953,4.026299 -0.006,0.01533 -0.0131,0.0224 -0.0189,0.0224 -0.1268,0 -0.274,-2.820175 -0.274,-6.496307 -0.0306,-3.788132 0.0933,-6.819347 0.22008,-6.819347 0.003,0 0.006,0.0012 0.009,0.0047 0.16177,0.104931 0.32501,1.28865 0.35709,2.604416 0.067,2.029064 0.1195,2.785984 0.28274,2.785984 0.0743,0 0.17052,-0.155632 0.30316,-0.417366 0.49115,-0.868927 0.51886,-2.651577 0.0831,-2.651577 -0.0262,0 -0.0539,0.0071 -0.0831,0.02004 -0.067,0.0448 -0.13409,0.06485 -0.1924,0.06485 -0.11367,0 -0.19821,-0.07546 -0.19821,-0.196896 0,-0.183925 0.1953,-0.341911 0.39061,-0.341911 0.58591,0 0.52033,-1.446636 -0.0976,-1.973648 -0.24486,-0.21458 -0.33669,-0.314796 -0.27401,-0.314796 0.0364,0 0.12825,0.03537 0.27401,0.104934 0.0656,0.03065 0.12387,0.04716 0.17636,0.04716 0.2536,0 0.34396,-0.391427 0.34396,-1.311051 0,-1.130665 -0.16324,-1.499691 -0.61798,-1.499691 -0.52032,0 -0.58591,0.236981 -0.39059,1.105904 0.16322,0.657882 0.0976,1.209659 -0.16179,1.341705 -0.006,0.0024 -0.0102,0.0035 -0.0146,0.0035 -0.25215,0 -0.40954,-3.402599 -0.44162,-10.581547 -0.032,-5.920952 -0.0976,-11.288952 -0.12971,-11.920895 -0.0656,-1.052848 0,-1.131843 1.3336,-1.209659 0.19092,-0.0083 0.35709,-0.01297 0.50284,-0.01297 z M 201.83433,1.2442715 c -1.26946,0 -3.15545,1.2627118 -3.15545,2.1304576 0,0.3159728 -0.35853,0.4998972 -0.94299,0.4998972 -0.68355,0 -1.10622,0.3159726 -1.59448,1.2367737 -0.61797,1.2108355 -0.81326,1.8427811 -1.5289,4.684177 -0.84534,3.421466 -1.39917,4.394143 -2.63512,4.658239 -0.61796,0.13087 -1.30153,0.420905 -1.46332,0.657884 -0.55383,0.736877 -0.84678,6.314739 -0.48825,10.104054 l 0.32502,3.736259 -1.10622,0.315971 c -0.7477,0.211043 -1.17037,0.57889 -1.20389,1.026913 -0.0321,0.393786 -0.16177,8.499428 -0.29149,17.998653 l -0.26089,17.26178 -1.7242,0.104927 c -0.17343,0.0094 -0.33667,0.01415 -0.49117,0.01415 -0.74186,0 -1.23303,-0.102577 -1.23303,-0.277069 0,-0.183922 -0.45472,-0.341912 -1.00857,-0.341912 -0.81328,0 -1.04064,-0.157982 -1.04064,-0.762817 0,-0.394962 -0.19531,-0.894859 -0.42268,-1.1059 -0.26088,-0.209862 -0.48825,-1.946533 -0.52031,-4.157165 -0.0656,-3.289418 -0.16324,-3.868306 -0.81328,-4.263272 -0.61796,-0.367851 -0.7812,-0.999794 -0.91092,-4.078171 -0.12971,-3.421466 -0.0977,-3.658443 0.65003,-3.815254 0.74914,-0.157986 0.81327,-0.473957 0.81327,-4.789108 0,-2.5266 -0.12971,-4.842163 -0.25942,-5.132198 -0.14576,-0.307721 -0.27547,-0.459809 -0.39061,-0.459809 -0.37603,0 -0.58591,1.625843 -0.58591,4.74902 0,2.710529 -0.12972,4.421261 -0.3906,4.421261 -0.25943,0 -0.42266,-1.473751 -0.42266,-3.71032 -0.0321,-5.263069 -0.32503,-6.262863 -2.43984,-7.815609 -1.16014,-0.868927 -2.07252,-1.296905 -2.95138,-1.296905 -0.77102,0 -1.51578,0.330124 -2.38299,0.98093 -0.74769,0.552956 -1.85392,1.263893 -2.47189,1.55275 -0.7812,0.394966 -1.13829,0.815868 -1.13829,1.420696 0,0.473961 -0.16324,1.315769 -0.42413,1.842781 -0.22736,0.551773 -0.45473,3.999176 -0.48679,7.709499 -0.0918,5.74646 -0.15449,6.615383 -0.67044,6.615383 -0.035,0 -0.0714,-0.0035 -0.11078,-0.01061 -0.0641,-0.0071 -0.12388,-0.01179 -0.18072,-0.01179 -0.71709,0 -0.85117,0.72155 -1.15287,4.721904 -0.3906,4.842163 -0.61798,5.762966 -1.43124,5.762966 -0.65004,0 -0.71562,-1.236774 -0.78122,-18.130703 -0.0641,-9.972004 -0.16177,-18.287512 -0.25943,-18.498552 -0.29587,-0.597753 -0.89197,-0.906652 -1.65715,-0.906652 -0.41392,0 -0.87741,0.09078 -1.36857,0.275886 -0.59465,0.240517 -0.93425,0.36549 -1.18348,0.36549 -0.26817,0 -0.43287,-0.145017 -0.70251,-0.444482 -0.29295,-0.34309 -0.58591,-1.28983 -0.61942,-2.131638 -0.0962,-2.368616 -0.12971,-2.578478 -0.45474,-2.842575 -0.16324,-0.130869 -0.29295,-0.551773 -0.29295,-0.920801 0,-0.367849 -0.39061,-1.789726 -0.84534,-3.15737 -0.81328,-2.447609 -1.23595,-4.000355 -1.98509,-7.7366147 -0.22736,-1.0787868 -0.58444,-2.5525403 -0.74768,-3.2894168 l -0.35709,-1.3157673 -0.22882,0.9997945 c -0.16179,0.5270142 -0.4868,2.3945541 -0.71562,4.1052866 -0.25943,1.7107337 -0.65004,3.7893147 -0.84534,4.6051847 -0.22737,0.81587 -0.68356,2.526603 -1.00857,3.789315 -0.61798,2.289623 -1.91951,4.921156 -2.63514,5.263067 -0.22737,0.104931 -0.3906,0.788754 -0.3906,1.499691 0,0.920801 -0.16178,1.28983 -0.61797,1.28983 -0.32501,0 -0.61797,-0.157986 -0.61797,-0.315974 0,-0.185102 -0.16179,-0.341911 -0.39061,-0.341911 -0.22737,0 -0.42266,0.209864 -0.42266,0.47278 0,0.236981 -0.42267,0.527016 -0.943,0.631947 -1.30153,0.262916 -1.4633,0.946739 -1.4633,5.735845 l -0.0335,4.026295 -2.92662,-0.209862 c -1.62656,-0.106109 -3.83901,-0.290035 -4.91172,-0.448021 -0.42849,-0.05777 -0.81036,-0.08725 -1.1485,-0.08725 -1.33358,0 -1.97488,0.458634 -1.97488,1.403012 0,0.315975 -0.32501,0.685001 -0.71562,0.789932 -0.65004,0.157989 -0.71562,0.736877 -0.58591,7.130608 0.0656,3.842373 -0.0321,7.078731 -0.1953,7.236721 -0.1166,0.07781 -0.59028,0.128509 -1.23157,0.128509 -0.43287,0 -0.94299,-0.0224 -1.46768,-0.07545 -2.31011,-0.185104 -2.3757,-0.211044 -2.11481,-1.052848 0.78121,-2.499489 0.74769,-2.552544 -0.45473,-2.736466 -0.38186,-0.06131 -0.68502,-0.0955 -0.92405,-0.0955 -0.7025,0 -0.86573,0.297108 -0.86573,1.121231 0,1.236775 -0.78122,1.973652 -2.21246,2.078583 l -1.23595,0.10611 -0.29295,-2.631535 c -0.12971,-1.447815 -0.16178,-2.894451 -0.0641,-3.184486 0.0976,-0.315972 0.22736,-5.893833 0.29295,-12.393673 l 0.0641,-11.841904 -1.00857,-0.157986 c -0.0889,-0.01297 -0.18801,-0.02004 -0.29296,-0.02004 -1.07708,0 -2.82167,0.685001 -2.4063,1.021017 0.0335,0.02712 0.086,0.04009 0.15012,0.04009 0.18073,0 0.4562,-0.102573 0.69523,-0.277067 0.0554,-0.03655 0.10493,-0.05895 0.15157,-0.05895 0.41975,0 0.50283,1.79562 0.53198,10.636959 0,6.025882 0.0977,15.367123 0.19531,20.762238 l 0.16178,9.788082 h -3.67577 l -0.0641,-7.341652 c -0.0656,-7.367588 -0.0977,-8.420437 -0.22882,-12.498608 -0.0977,-1.973648 -0.19385,-2.210629 -0.90947,-2.210629 -0.68356,0 -0.81328,-0.23698 -0.87886,-1.39476 l -0.0656,-1.39476 -0.29296,1.473755 c -0.0219,0.11554 -0.0437,0.172134 -0.0641,0.172134 -0.13117,0 -0.223,-2.19059 -0.19531,-5.593189 0.0321,-3.947302 -0.12971,-7.604568 -0.3906,-8.551306 l -0.42267,-1.657678 -0.32502,1.393581 c -0.22882,1.052849 -0.52032,1.421877 -1.07416,1.421877 -0.48825,0 -0.74769,-0.236981 -0.68356,-0.57889 0.0335,-0.315973 0,-1.421877 -0.0321,-2.421671 l -0.0656,-1.841602 -1.20242,0.157985 c -0.27692,0.03183 -0.49263,0.05306 -0.66024,0.05306 -0.52032,0 -0.5757,-0.205147 -0.5757,-0.92198 0,-0.709758 0.19384,-1.025732 0.61797,-1.025732 0.32502,0 0.61797,-0.23698 0.61797,-0.499897 0,-0.260559 -0.11368,-0.372564 -0.42558,-0.372564 -0.16033,0 -0.37312,0.02947 -0.64858,0.08253 -0.23612,0.04598 -0.44016,0.06956 -0.62089,0.06956 -0.43578,0 -0.72874,-0.139122 -1.00566,-0.43741 -0.24486,-0.274706 -0.42413,-0.398503 -0.61943,-0.398503 -0.14283,0 -0.29441,0.06602 -0.4868,0.187462 -0.2157,0.140301 -0.54947,0.222832 -0.86137,0.222832 -0.15741,0 -0.30898,-0.02122 -0.4387,-0.06485 -0.18947,-0.05895 -0.32793,-0.09196 -0.42121,-0.09196 -0.19385,0 -0.18948,0.140301 -0.035,0.460989 0.16324,0.315973 0.0977,1.499691 -0.16178,2.604418 -0.260889,1.105903 -0.48826,2.447609 -0.553842,3.000561 -0.06559,0.525835 -0.129723,1.157781 -0.161782,1.39476 -0.03352,0.235799 -0.358543,0.420904 -0.683563,0.420904 -0.749145,0 -0.749145,-0.448021 0.03207,-2.158754 0.434333,-1.004509 0.604858,-1.448994 0.505744,-1.448994 -0.06558,0 -0.2434,0.187462 -0.537811,0.528192 -1.431244,1.684796 -1.951561,4.421261 -2.244514,12.44673 -0.195305,4.816227 -0.553849,9.052383 -0.976517,10.84211 -0.357079,1.630562 -0.747688,5.314945 -0.877403,8.209396 -0.09765,2.868512 -0.292954,5.34206 -0.390602,5.500046 -0.07142,0.07192 -0.231743,0.112008 -0.425583,0.112008 -0.160324,0 -0.342507,-0.02712 -0.517411,-0.08607 -1.008575,-0.315975 -4.13195,-2.605598 -4.13195,-3.05244 0,-0.183922 -0.454735,-0.9208 -1.072708,-1.631737 -0.715622,-0.894863 -1.367119,-1.315769 -1.985092,-1.315769 -1.560959,0 -3.025727,-0.604828 -3.025727,-1.236775 0,-0.867744 -0.81327,-1.39476 -2.113342,-1.39476 -1.367119,0 -1.431251,0.211045 -0.292953,1.184899 0.779747,0.683822 0.81327,0.867748 0.390602,2.578479 -0.520325,1.920594 -0.358544,2.499485 0.617973,2.499485 0.617966,0 0.747688,0.921982 0.325012,2.236569 -0.137001,0.377281 -0.389145,0.603649 -0.639831,0.603649 -0.04664,0 -0.09474,-0.0071 -0.141373,-0.02476 -0.03935,-0.01061 -0.07871,-0.01533 -0.115143,-0.01533 -0.322105,0 -0.523231,0.419724 -0.698135,1.410088 -0.325012,2.000763 -0.488251,2.368614 -0.975052,2.368614 -0.292954,0 -0.422669,-2.657471 -0.422669,-7.78849 0,-4.209042 -0.125343,-7.556229 -0.28421,-7.556229 -0.0029,0 -0.0058,0.0012 -0.0087,0.0035 -0.195305,0.13205 -0.326477,3.605393 -0.326477,7.710678 v 7.446583 l -2.503952,0.104927 -2.505409,0.104935 -0.129715,-8.946274 c -0.09765,-6.815815 -0.25943,-8.999325 -0.650032,-9.104259 -0.292954,-0.07899 -0.520325,-0.631943 -0.520325,-1.26389 0,-1.236774 -1.139748,-2.42049 -2.375694,-2.42049 -1.072701,0 -1.203873,-0.23698 -0.845337,-1.55275 0.195305,-0.736873 0.813278,-1.499691 1.594482,-1.999588 0.682106,-0.420902 1.235947,-0.920799 1.235947,-1.104725 0,-0.157985 -0.651497,-0.606006 -1.431244,-1.000972 -1.5289,-0.709759 -1.951569,-1.999588 -0.781212,-2.36744 0.781212,-0.262916 0.358536,-0.868923 -0.585907,-0.868923 -0.390602,0 -0.975052,-0.367847 -1.268005,-0.815868 -0.292954,-0.446842 -0.71563,-0.815872 -0.878861,-0.815872 -0.195305,0 -0.357086,-0.393788 -0.357086,-0.841809 0,-0.606006 -0.08891,-0.785213 -0.664612,-0.785213 -0.123886,0 -0.26963,0.0083 -0.441612,0.0224 -0.845345,0.07899 -1.138298,0.315973 -1.235947,0.946739 -0.09765,0.448021 -0.358539,0.947918 -0.617973,1.131844 -0.260887,0.183921 -0.715622,0.762813 -1.008575,1.289829 -0.422669,0.78875 -0.422669,1.02573 0,1.26271 0.237571,0.143837 0.31773,0.209862 0.227367,0.209862 -0.0583,0 -0.186558,-0.02712 -0.390606,-0.07781 -0.119511,-0.03183 -0.233196,-0.04716 -0.342506,-0.04716 -0.636917,0 -1.107685,0.529373 -1.413758,1.651783 -0.163234,0.552952 -0.650035,1.289829 -1.040638,1.631741 -1.008579,0.920799 -1.594486,2.289623 -1.594486,3.762195 0,0.789932 -0.25943,1.447815 -0.683555,1.710732 -0.357083,0.26292 -1.040642,1.131843 -1.528901,1.947715 -0.77975,1.341702 -0.845336,2.18351 -0.975051,9.604153 l -0.129715,8.15752 -1.074166,0.183922 c -5.822632,1.026917 -8.555408,3.526398 -9.205444,8.473496 -0.240486,1.675361 -0.397892,2.141067 -0.854084,2.141067 -0.03935,0 -0.0787,-0.0035 -0.122429,-0.0094 -0.618005,-0.10493 -0.682134,-0.947917 -0.747724,-8.341442 C 42.60169,56.293081 42.276674,52.24085 41.4634,51.503973 41.106317,51.188002 40.19539,50.7671 39.446245,50.583174 38.210302,50.240084 38.048521,50.056158 38.015001,49.00331 37.917349,46.79386 37.85322,46.161913 37.49468,43.793299 c -0.390606,-2.631535 -0.520321,-2.736465 -3.935196,-2.736465 -1.008579,0 -2.017155,-0.157986 -2.278044,-0.341912 -0.180727,-0.15327 -0.396432,-0.221653 -0.613597,-0.221653 -0.565503,0 -1.142666,0.46217 -1.142666,1.089398 0,0.868927 0.78121,0.789932 -11.190533,0.947918 -1.788329,0.02594 -3.773417,0.23698 -4.391389,0.446842 -0.73457,0.240516 -1.416671,0.359596 -1.902011,0.359596 -0.524694,0 -0.817647,-0.139122 -0.699591,-0.411472 0.0787,-0.190998 0.491171,-0.312435 1.157239,-0.312435 0.163238,0 0.34105,0.0071 0.533438,0.0224 0.313358,0.02123 0.56113,0.03183 0.754975,0.03183 0.54947,0 0.641291,-0.09432 0.448904,-0.347805 -0.195303,-0.262916 -0.357083,-0.604828 -0.357083,-0.788753 0,-0.183922 -0.195302,-0.315972 -0.424127,-0.341912 -0.227366,0 -0.811816,-0.1851 -1.333594,-0.420902 -0.367285,-0.168598 -0.851169,-0.257023 -1.251976,-0.257023 -0.164695,0 -0.316273,0.01533 -0.438702,0.04598 -0.6514929,0.157985 -0.7812088,0.499897 -0.7156227,2.236568 0.032065,1.105904 -0.097651,2.342678 -0.2608881,2.736462 -0.2055054,0.501079 -1.2694654,0.9491 -1.8786926,0.9491 -0.2550592,0 -0.4299564,-0.07782 -0.4299564,-0.264099 0,-0.166237 -0.02915,-0.247589 -0.084534,-0.247589 -0.1821852,0 -0.6558662,0.881893 -1.3802338,2.536034 -0.6179719,1.473754 -1.3656592,2.526603 -2.1789331,3.079555 L 2.2979877,52.39883 2.2003367,61.74007 C 2.102685,71.370165 2.005034,71.976175 0.41200796,71.976175 c -0.48825592,0 -0.5859071,2.157578 -0.5859071,14.630241 V 101.23667 H 415.81282 l -0.0977,-23.918432 -0.0977,-23.946724 -0.94296,-1.39476 c -0.48829,-0.788753 -1.10624,-2.341499 -1.3992,-3.499279 l -0.48826,-2.078582 -2.99221,-0.236981 c -0.70542,-0.05306 -1.29862,-0.08489 -1.79853,-0.08489 -2.24597,0 -2.6249,0.657882 -2.91787,3.111389 -0.22736,1.657677 -0.61795,2.631534 -1.69214,4.078171 l -1.43125,1.868717 v 4.998974 5.000149 l -1.39917,-0.211044 c -0.77975,-0.130867 -2.04922,-0.446839 -2.82898,-0.709755 L 396.2957,63.739664 V 61.34511 c 0,-1.473755 -0.22882,-2.631535 -0.55383,-3.026501 -0.29297,-0.367847 -0.6821,-1.078789 -0.81327,-1.578686 -0.1618,-0.473957 -0.45474,-0.894863 -0.68212,-0.894863 -0.22883,0 -0.3906,-0.367847 -0.3906,-0.78875 0,-0.775783 -1.46768,-1.986621 -2.23868,-1.986621 -0.11953,0 -0.22155,0.0283 -0.29879,0.09196 -0.19529,0.157986 -0.45618,3.762196 -0.58591,7.972416 -0.1297,4.237332 -0.3906,7.999531 -0.55237,8.368557 -0.21863,0.484574 -0.52762,0.618981 -2.07254,0.618981 -0.30026,0 -0.64859,-0.0059 -1.05084,-0.01415 -3.18753,-0.02593 -3.77344,-0.209862 -3.77344,-1.104721 0,-0.692078 -1.35983,-0.957352 -5.57629,-0.957352 -0.91678,0 -1.97052,0.01297 -3.17441,0.03655 l -5.2688,0.104927 -0.22882,1.973648 -0.19528,1.973656 h -7.31803 l -0.0976,-12.604721 c -0.0656,-10.868046 0,-12.604717 0.52032,-12.762703 0.32501,-0.104931 0.58591,-0.499897 0.58591,-0.867745 0,-0.338375 -0.11221,-0.496361 -0.33521,-0.496361 -0.0714,0 -0.15597,0.01651 -0.2507,0.04834 -0.0393,0.01179 -0.0743,0.01769 -0.10785,0.01769 -0.45474,0 -0.51013,-1.103546 -0.51013,-6.49041 0,-3.657264 -0.13116,-6.999738 -0.26086,-7.420643 -0.19532,-0.57889 -0.0642,-0.789932 0.61795,-0.920801 1.04065,-0.236978 1.10623,-0.710937 0.19531,-1.263891 -0.58591,-0.34191 -0.71564,-1.104725 -0.77976,-4.394142 -0.0335,-2.631535 -0.22882,-4.157164 -0.5859,-4.473135 -0.35855,-0.341911 -0.35855,-0.499897 -0.0656,-0.499897 0.26089,0 0.45617,-0.315973 0.45617,-0.657885 0,-0.369028 -0.19528,-0.657882 -0.4241,-0.657882 -0.22739,0 -0.32504,-0.290036 -0.19385,-0.631947 0.14136,-0.361954 0.11075,-0.503433 -0.2128,-0.503433 -0.1239,0 -0.28857,0.02004 -0.50284,0.05659 -0.0962,0.01415 -0.19384,0.0224 -0.2915,0.0224 -0.599,0 -1.25052,-0.280604 -2.11624,-0.891325 -0.78122,-0.578892 -1.72421,-1.025733 -2.0813,-1.025733 -0.9765,0 -1.10623,-0.499897 -0.45618,-1.76261 0.52033,-1.026911 0.52033,-1.342884 0.0321,-2.289622 -0.8118,-1.605802 -2.73569,-2.4912331 -5.25711,-2.4912331 -0.20551,0 -0.41684,0.00589 -0.62964,0.017685 -4.4249,0.2629175 -6.5062,2.3945541 -6.60385,6.8676901 -0.0423,1.252102 -0.0845,1.807411 -0.16907,1.807411 -0.0466,0 -0.10785,-0.172134 -0.18945,-0.491644 -0.13993,-0.55413 -0.223,-0.817049 -0.27549,-0.817049 -0.0452,0 -0.067,0.190998 -0.0816,0.554131 -0.0321,0.473959 -0.2609,1.262712 -0.55386,1.762609 -0.42267,0.736878 -0.38913,0.920801 0.29296,1.315768 0.42267,0.262916 0.65149,0.473959 0.48826,0.499897 -0.16324,0.02712 -0.45475,0.05305 -0.65003,0.07899 -0.78122,0.104931 -0.87887,0.552952 -0.8468,3.868307 0,1.868719 -0.12973,5.604979 -0.25943,8.28957 l -0.2609,4.868099 -0.94299,-0.1851 c -0.26089,-0.04952 -0.65295,-0.07546 -1.08874,-0.07546 -0.48825,0 -1.03336,0.03301 -1.51285,0.102574 l -1.62656,0.209861 v 4.552132 4.579247 h -4.81552 c -3.1875,0 -4.94376,0.130867 -5.26877,0.394962 -0.39062,0.288856 -0.42267,4.420082 -0.22885,17.761677 l 0.2609,17.366707 -0.943,0.815872 c -1.07705,0.939667 -3.85501,1.739029 -5.80075,1.739029 -0.2886,0 -0.55969,-0.01769 -0.80307,-0.05424 -1.72421,-0.264092 -5.07495,-2.552536 -5.23672,-3.579453 -0.0933,-0.471596 -0.35855,-0.68618 -0.8541,-0.68618 -0.0291,0 -0.0598,0.0012 -0.0904,0.0024 -0.0729,0.0071 -0.13846,0.01297 -0.19968,0.01297 -0.5859,0 -0.60632,-0.477494 -0.548,-3.960266 0.032,-2.210633 0.19528,-5.210015 0.35852,-6.65783 0.19385,-1.867538 0.12973,-2.736465 -0.16324,-2.920387 -0.58591,-0.262917 -0.61795,-1.710732 -0.0656,-1.999588 0.58591,-0.290039 0.48825,-1.394764 -0.0977,-1.55275 -0.38913,-0.104931 -0.32501,-0.473957 0.2609,-1.36882 0.61798,-0.920803 0.71563,-1.367645 0.39062,-1.788547 -0.26089,-0.290036 -0.32504,-0.841809 -0.13119,-1.210835 0.16324,-0.341911 0.19531,-1.131843 0.0977,-1.710735 -0.14282,-0.71801 -0.33667,-0.988003 -0.82492,-0.988003 -0.067,0 -0.13846,0.0059 -0.21573,0.01533 -0.0423,0.0024 -0.0831,0.0047 -0.12097,0.0047 -0.59463,0 -0.85989,-0.402038 -1.43997,-2.031421 -0.39063,-1.15778 -0.81329,-2.183514 -0.91092,-2.262505 -0.0977,-0.07899 -2.69928,-0.23698 -5.79059,-0.34309 l -5.59524,-0.183926 0.26086,1.28983 c 0.16181,0.709759 0.81329,2.157573 1.49686,3.210422 l 1.23593,1.946533 v 7.368771 7.341644 h -5.04288 c -5.52969,0 -5.65939,0.05188 -6.1156,2.051468 -0.25943,1.236771 -0.29294,1.236771 -2.27658,1.236771 -2.24451,0 -3.80548,-0.867744 -4.26166,-2.394554 -0.1618,-0.499893 -0.45474,-0.893685 -0.65005,-0.893685 -0.19528,0 -0.35852,-8.526543 -0.35852,-20.051296 0,-14.65736 -0.12973,-20.262337 -0.48828,-20.894283 -0.25943,-0.47278 -1.33359,-1.236774 -2.40628,-1.709552 -1.23597,-0.527016 -1.98511,-1.105906 -2.08274,-1.552748 -0.0641,-0.420904 -0.45474,-0.736876 -1.00714,-0.789932 -0.74914,-0.07899 -0.94443,-0.315972 -0.94443,-1.104725 0,-1.710734 -0.61798,-2.236569 -2.6672,-2.236569 -2.60159,0 -3.41486,0.420904 -3.41486,1.815665 0,1.025732 -0.19531,1.236774 -1.3992,1.63174 -2.34216,0.788752 -4.97729,2.420492 -5.82263,3.552334 -0.42267,0.578892 -0.91092,1.788548 -1.04065,2.683411 -0.16324,0.868923 -0.39059,1.684795 -0.52032,1.789726 -0.0262,0.02004 -0.07,0.02948 -0.1297,0.02948 -0.25071,0 -0.77683,-0.169777 -1.30155,-0.424442 -0.64856,-0.299465 -1.5318,-0.528195 -2.03753,-0.528195 -0.0262,0 -0.0525,0 -0.0773,0.0024 -0.68356,0.02594 -0.74915,0.079 -0.16324,0.183925 0.84534,0.183926 0.94299,0.762814 0.0977,0.762814 -0.35709,0 -0.71562,-0.02594 -0.84534,-0.07899 -0.0131,-0.0047 -0.0292,-0.0083 -0.0452,-0.0083 -0.13847,0 -0.36874,0.196896 -0.5728,0.456276 -0.35854,0.551773 -0.48825,29.971424 -0.12972,32.944866 0.0962,0.841812 0.0321,1.55275 -0.19529,1.55275 -0.35854,0 -1.43125,-3.473343 -1.26947,-4.105286 0.16324,-0.657883 0,-1.473755 -0.32501,-1.473755 -0.16324,0 -0.29296,0.394966 -0.32503,0.894867 0,0.499893 -0.0335,1.631737 -0.0976,2.552536 -0.0394,0.953812 -0.067,1.341705 -0.21863,1.341705 -0.10057,0 -0.25214,-0.166236 -0.497,-0.446838 -0.37748,-0.446846 -0.63838,-0.677933 -0.88468,-0.677933 -0.30462,0 -0.58446,0.356064 -1.03483,1.098831 -0.44889,0.762818 -0.83659,1.136559 -1.09893,1.136559 -0.30608,0 -0.44016,-0.511681 -0.30024,-1.505585 0.26088,-1.946533 -0.68211,-7.156543 -1.49537,-8.104462 -0.35855,-0.394966 -0.65151,-0.973858 -0.65151,-1.289829 0,-0.578892 -3.38281,-1.630562 -6.60383,-2.078583 -0.84534,-0.104931 -1.5289,-0.367847 -1.56096,-0.604828 0,-0.21104 -0.0321,-3.631328 -0.0641,-7.631683 -0.0291,-3.476879 -0.0831,-5.886761 -0.16033,-5.886761 -0.0117,0 -0.0233,0.04952 -0.035,0.150914 -0.0656,0.815868 -0.39061,1.631736 -0.71562,1.841602 -0.48827,0.290031 -0.61798,1.499691 -0.61798,6.157928 -0.0262,4.113541 -0.22591,6.115486 -0.64713,6.115486 -0.12389,0 -0.26526,-0.170955 -0.42703,-0.510505 -0.1268,-0.257023 -0.19968,-0.381997 -0.29733,-0.381997 -0.10347,0 -0.2332,0.137944 -0.48389,0.407933 -0.29295,0.315975 -1.13829,0.683822 -1.88597,0.789932 -1.33361,0.23698 -1.33361,0.23698 -1.46477,2.315563 -0.0962,1.736668 -0.22737,2.104519 -0.90947,2.236565 -0.58591,0.130871 -0.7812,0.446842 -0.7812,1.26271 0,1.868721 -0.61798,2.684594 -2.21247,2.92157 -0.94299,0.130875 -1.4633,0.393791 -1.4633,0.762818 0,0.288856 -0.29295,0.815872 -0.68356,1.157775 -0.39061,0.341912 -0.78121,1.315773 -0.91092,2.157578 l -0.22737,1.52681 h -5.27025 v -19.5514 -19.578518 l -0.91092,-1.604626 c -0.83223,-1.424234 -1.05522,-1.806231 -0.72147,-1.806231 0.12244,0 0.32065,0.0507 0.59174,0.121438 0.24341,0.06131 0.42851,0.09432 0.55823,0.09432 0.3731,0 0.29004,-0.272349 -0.16762,-0.936129 -0.22737,-0.367847 -0.74768,-0.630766 -1.17182,-0.630766 -0.42266,0 -0.94299,-0.185102 -1.10476,-0.422083 -0.16324,-0.235799 -0.2609,-3.341293 -0.1953,-6.919565 l 0.0976,-6.499842 -1.26945,-0.369027 c -1.46332,-0.420904 -2.17894,-1.578685 -1.78833,-2.946328 0.19529,-0.789932 0.0641,-0.999794 -0.74915,-1.236774 -0.97505,-0.315972 -0.97505,-0.315972 -2.17894,-5.026088 -0.12971,-0.499897 -0.58591,-1.1577806 -1.00857,-1.447815 -0.42267,-0.3159728 -0.78121,-0.788753 -0.78121,-1.0257325 0,-0.416188 -0.44015,-0.6637785 -0.96194,-0.6637785 -0.30461,0 -0.63692,0.084888 -0.92404,0.2688126 -0.2813,0.1874614 -0.43725,0.2794237 -0.49117,0.2794237 -0.0525,0 -0.0117,-0.084888 0.10057,-0.2534856 0.48825,-0.6578834 -0.91093,-1.7095537 -2.2766,-1.7095537 z"
       fill-rule="evenodd"
       id="path1"
       sodipodi:nodetypes="sccsssccccscsccsscsccccssssssssccsscccscscccsssccssssccsssssssccsscscccsssssssscsssssccscccccsccccsccscsccscscssscscsssccscccccssscccccccccccsssscccccscsssccsccsccscscsccscscccscccccccccssssscccccsscccscccsscccccccssscsccccccscccsscccsccccssssscscscscsccccscscccccscscsssccscscscssscscccccssccsccscssscccccscsccsccccccsccccccscssccscscscsccscccsssccccssccccccccsccccccccsccssscccscsscccccccsscsscccccssscscscsccsccscscccccccccsccccsccccsccscsccccsccccscscscccccccscscssccccsssccccscsccscsccscsccscscsccscccscccscsccccscssccccccscscsccccccccsscscss" /></g><path
     style="fill:#0180c9;fill-opacity:1;stroke-width:0.985924"
     d="m 0.2567641,373.30239 c 0,-22.93894 0.23218187,-27.60587 1.3734033,-27.60587 2.2697175,0 2.570293,-2.36894 2.570293,-20.25739 0,-16.13315 0.1157318,-17.20027 1.973178,-18.19436 1.085248,-0.5808 3.0892171,-3.25841 4.4532666,-5.95023 1.576623,-3.11131 3.120528,-4.89422 4.238144,-4.89422 2.830679,0 4.124273,-2.0719 4.124273,-6.6057 0,-4.39534 0.459116,-4.75004 4.683138,-3.61805 2.983737,0.79961 2.821613,2.33636 -0.246481,2.33636 -1.355645,0 -2.46481,0.41644 -2.46481,0.92543 0,0.55296 5.059551,0.73521 12.570532,0.45281 17.598716,-0.66167 22.959144,-1.31185 23.551962,-2.85672 0.377297,-0.98321 1.938381,-1.1812 6.100928,-0.77374 3.076642,0.30116 6.112951,0.95596 6.747354,1.45509 0.634403,0.49914 1.467273,4.25642 1.850828,8.34949 0.676179,7.21586 0.794759,7.48265 3.903064,8.78139 1.763132,0.73667 3.547447,2.13236 3.965144,3.10152 0.417698,0.96914 0.933615,10.41358 1.146487,20.98762 0.212871,10.57403 0.59888,20.22376 0.857798,21.44384 0.552524,2.60362 3.388426,3.01521 3.396465,0.49297 0.02569,-8.05953 5.608852,-15.01878 14.007923,-17.46045 4.102946,-1.19277 5.643806,-2.14986 6.079906,-3.77646 0.32128,-1.19834 0.59022,-8.21244 0.59762,-15.58688 0.0132,-13.24254 0.0498,-13.46167 2.95329,-17.74663 1.6169,-2.3862 2.95083,-5.22587 2.96427,-6.3104 0.0134,-1.08451 0.93521,-3.30285 2.04838,-4.92961 1.11316,-1.62678 2.43027,-3.95603 2.92687,-5.17611 0.49661,-1.22008 1.59886,-2.21833 2.44944,-2.21833 0.85058,0 1.44782,-0.55458 1.32722,-1.23241 -0.28632,-1.60908 3.2212,-7.46967 4.84755,-8.0996 0.70897,-0.2746 1.66308,0.56016 2.17291,1.90112 0.49992,1.31488 2.14946,3.06331 3.66565,3.8854 2.74013,1.48571 2.74233,1.49494 0.36653,1.53417 l -2.3902,0.0395 2.29965,2.44786 c 1.26481,1.34633 3.06822,2.69179 4.00755,2.98993 1.48346,0.47083 1.3334,0.91658 -1.14186,3.39184 -3.47669,3.47669 -3.76053,6.67865 -0.63144,7.12305 1.44418,0.20512 2.90324,1.69133 4.18094,4.25876 1.66938,3.35448 2.01568,6.41103 2.31774,20.45792 l 0.35513,16.51423 h 5.24102 c 3.2703,0 5.42799,-0.46341 5.73829,-1.2324 0.39783,-0.98593 0.51284,-0.98593 0.57512,0 0.16367,2.59126 1.98917,1.07869 2.59489,-2.15004 0.349,-1.86034 1.25643,-3.62109 2.01652,-3.91276 1.64882,-0.6327 1.83401,-4.67541 0.28514,-6.22429 -0.60328,-0.60326 -0.92223,-1.62071 -0.70879,-2.261 0.21342,-0.64029 0.98025,0.0974 1.70406,1.63909 0.7238,1.5418 1.64569,3.46877 2.04864,4.28215 0.40295,0.8134 1.76525,1.47889 3.02732,1.47889 1.76614,0 2.48794,-0.74576 3.13369,-3.23779 1.01721,-3.92557 -0.95619,-6.4507 -4.98126,-6.37393 -1.94156,0.0371 -3.20502,-0.83112 -4.80681,-3.3029 -2.59803,-4.0091 -0.79354,-4.65504 2.48158,-0.88832 1.17873,1.35565 3.08866,2.46482 4.24431,2.46482 1.22727,0 4.08776,2.05029 6.87762,4.92962 2.73805,2.82587 4.15827,4.92961 3.32793,4.92961 -0.79669,0 -1.44852,0.41749 -1.44852,0.92774 0,1.53839 2.07207,2.3242 3.18746,1.20879 0.57409,-0.57407 2.24143,-0.80427 3.70521,-0.5115 l 2.66142,0.53228 0.65487,-8.71957 c 0.36017,-4.79576 1.31369,-14.70904 2.11893,-22.02953 0.80523,-7.32048 1.79927,-17.96846 2.20898,-23.66218 0.68592,-9.53195 0.9112,-10.37591 2.84328,-10.65152 1.72724,-0.2464 2.21647,-1.20534 2.76641,-5.42259 1.00854,-7.73401 1.55809,-9.33627 3.35263,-9.77501 2.75198,-0.67282 5.61942,1.45568 5.27051,3.91231 -0.25657,1.80669 0.15513,2.21834 2.21833,2.21834 2.34526,0 2.53339,0.32948 2.53339,4.43665 0,4.66408 1.92383,6.10912 3.76152,2.82538 0.59983,-1.07185 1.14374,3.08639 1.62467,12.42087 0.61476,11.93188 1.00681,14.31599 2.61943,15.9286 1.70169,1.70169 1.96097,3.97008 2.52456,22.08648 l 0.62807,20.19002 h 3.80822 3.8082 l -0.5962,-38.69753 c -0.32789,-21.28363 -0.76711,-39.25209 -0.97601,-39.92992 -0.21491,-0.69721 0.46301,-1.23241 1.56103,-1.23241 1.88672,0 1.94091,0.81185 1.94091,29.08477 0,31.48811 -0.23254,30.2489 5.28287,28.15195 1.44237,-0.54839 2.58617,-1.86889 2.77547,-3.20426 0.49453,-3.48837 3.29615,-2.88772 3.20124,0.68633 -0.0974,3.67056 0.93556,4.40245 6.24057,4.42156 l 4.19017,0.0152 v -13.18926 c 0,-10.521 0.2992,-13.43756 1.47891,-14.41662 0.81338,-0.67505 1.47887,-1.90596 1.47887,-2.73535 0,-1.29785 1.44263,-1.41973 10.35221,-0.87459 l 10.35219,0.6334 V 269.724 c 0,-7.21625 0.22356,-8.13226 2.49942,-10.24146 1.54903,-1.43558 3.23605,-2.12374 4.43667,-1.80979 1.37879,0.36057 1.93724,0.0115 1.93724,-1.21277 0,-0.94564 1.368,-4.49819 3.04003,-7.89455 1.80055,-3.65741 3.96031,-10.74149 5.29714,-17.37466 1.24139,-6.15971 2.50305,-10.53397 2.8037,-9.72058 0.85834,2.32239 5.74624,21.50473 7.28555,28.59179 1.67847,7.72786 2.94598,9.32023 6.3797,8.01474 5.01596,-1.90708 5.01347,-1.92324 5.54389,35.75654 0.39237,27.87368 0.75781,35.10265 1.77457,35.10265 1.93752,0 2.24816,-0.97391 3.32043,-10.41072 0.67997,-5.98412 1.45984,-8.97463 2.49091,-9.55165 1.19233,-0.66725 1.50104,-2.92518 1.50104,-10.97879 0,-5.57634 0.50332,-12.64496 1.11848,-15.70808 1.02398,-5.09879 1.51019,-5.82067 5.75537,-8.54479 5.43935,-3.49041 6.46224,-3.5952 10.31334,-1.05654 4.33029,2.85454 5.41543,5.64877 5.45412,14.04412 0.0192,4.17051 0.44593,7.83675 0.94825,8.14719 0.82002,0.50681 1.30907,-2.21878 2.3802,-13.2651 0.18412,-1.8979 0.40562,0.60571 0.4924,5.56358 0.12614,7.20568 -0.139,9.12818 -1.3211,9.58182 -1.98274,0.76085 -1.99631,10.56729 -0.0204,14.77629 0.80214,1.70872 1.86703,6.81146 2.36644,11.33944 0.49938,4.52797 1.31897,8.64367 1.8213,9.146 0.50233,0.50234 3.13639,1.17662 5.85344,1.49842 l 4.94017,0.58508 0.65342,-20.9817 c 0.35938,-11.53994 0.65344,-27.13578 0.65344,-34.65744 0,-13.12509 0.086,-13.70755 2.13571,-14.46579 2.04781,-0.75753 2.12804,-1.29397 1.94881,-13.03172 -0.10266,-6.73292 0.15629,-12.69558 0.57557,-13.25037 0.41937,-0.55478 1.97093,-1.77746 3.44792,-2.71708 1.94966,-1.2403 3.10994,-3.26003 4.23482,-7.37166 2.26946,-8.29513 4.04985,-11.82209 6.33359,-12.54692 1.11538,-0.35401 2.02797,-1.04603 2.02797,-1.53782 0,-0.4918 1.22008,-1.51765 2.71128,-2.27968 3.06383,-1.56567 7.78845,-0.49909 6.56417,1.48184 -0.48608,0.78649 -0.0607,0.97961 1.3472,0.61148 2.76865,-0.72403 5.62779,2.50923 7.17588,8.11487 0.6739,2.44016 2.01094,5.14401 2.9712,6.00856 0.96026,0.86454 1.89299,2.85777 2.07271,4.42937 0.2249,1.96661 1.17208,3.26075 3.03807,4.15097 l 2.71129,1.29348 v 12.78761 12.78762 l 2.67789,1.01813 c 2.14751,0.81649 2.3916,1.19846 1.23241,1.92867 -1.25359,0.78965 -1.21644,1.31627 0.27989,3.96698 1.55913,2.76198 1.72535,6.65835 1.72535,40.44166 v 37.38523 h 5.4038 c 5.07591,0 5.44433,-0.16452 6.07151,-2.71129 1.0365,-4.20882 3.17473,-6.90667 6.35184,-8.01422 2.10035,-0.73217 3.07384,-1.84203 3.5045,-3.99535 0.32798,-1.63986 1.20835,-3.4895 1.95638,-4.11031 0.74805,-0.62083 1.36009,-2.42806 1.36009,-4.01611 0,-2.36511 0.62097,-3.14682 3.4331,-4.32181 1.88822,-0.78895 3.99564,-1.3209 4.68314,-1.18211 0.92569,0.18688 1.38765,-2.61401 1.78042,-10.79455 0.29171,-6.07582 0.8463,-11.36283 1.23241,-11.74894 0.3861,-0.3861 0.70201,4.26177 0.70201,10.32861 0,12.4631 -0.61595,11.55208 9.36628,13.85328 2.71129,0.62504 5.70025,2.05279 6.64212,3.17277 2.14944,2.55595 3.83079,8.68674 4.05066,14.77022 0.21103,5.83909 1.24819,6.96218 3.57756,3.87406 1.54618,-2.04981 2.04163,-2.21045 3.38332,-1.09696 1.39106,1.15449 1.58057,0.8654 1.64762,-2.51341 l 0.0759,-3.81793 1.16605,3.86466 c 2.58658,8.57279 3.16866,4.6624 2.78107,-18.68288 -0.43837,-26.40307 0.42013,-43.84375 2.15824,-43.84525 0.83178,-7.2e-4 1.0608,5.43906 0.85207,20.23813 -0.15705,11.13151 0.139,21.77646 0.65784,23.65541 0.56955,2.06275 0.585,3.63774 0.039,3.9752 -0.49735,0.30739 -0.90429,5.37675 -0.90429,11.26523 0,12.34592 1.156,17.34367 2.05762,8.89577 l 0.57875,-5.42257 0.1607,6.16202 c 0.18873,7.23359 1.59483,8.12972 2.49149,1.58776 0.95099,-6.93812 0.70396,-50.59586 -0.31103,-54.97136 -0.68689,-2.96105 -0.53974,-4.37698 0.64237,-6.18111 1.0085,-1.53919 1.34276,-3.51482 0.97649,-5.77186 -0.30628,-1.8874 -0.15821,-3.43163 0.32906,-3.43163 0.48725,0 1.34171,-1.69265 1.89879,-3.76143 1.21385,-4.50798 3.7405,-6.98585 10.64776,-10.44233 3.48456,-1.74371 5.17609,-3.19467 5.17609,-4.43993 0,-2.07936 1.84115,-3.04665 5.79901,-3.04665 2.91782,0 5.04616,1.57591 5.04616,3.73637 0,1.62093 3.00456,4.31135 8.16507,7.31134 2.0506,1.1921 3.92255,3.07612 4.15989,4.18671 0.23731,1.11059 0.56839,18.65673 0.73573,38.99141 0.36499,44.35799 0.36706,44.36658 10.62832,44.36658 3.18381,0 4.02226,-0.44517 5.10644,-2.71129 1.27545,-2.66584 1.46642,-2.71601 11.39194,-2.99226 l 10.09475,-0.28098 v -14.28099 c 0,-13.29787 -0.15975,-14.53417 -2.32079,-17.95863 -1.27643,-2.02269 -2.63731,-4.67587 -3.0242,-5.89595 -0.68646,-2.16479 -0.52635,-2.21833 6.63418,-2.21833 11.50474,0 13.5322,0.66492 15.23349,4.99601 0.80114,2.03949 2.28652,3.92519 3.30084,4.19044 1.5998,0.41837 1.77437,1.18098 1.31717,5.75364 -0.28989,2.89924 -0.46803,12.9908 -0.39589,22.42567 l 0.13113,17.15432 3.40279,3.20922 c 5.61851,5.29895 9.48159,6.67935 15.23756,5.44492 2.69837,-0.5787 5.97564,-1.75295 7.28283,-2.60945 l 2.37669,-1.55727 -0.58623,-33.29443 c -0.37579,-21.34339 -0.23919,-33.50892 0.3806,-33.89196 0.53173,-0.32864 5.03744,-0.90482 10.01267,-1.2804 l 9.04585,-0.68287 v -8.22011 c 0,-7.96195 0.0779,-8.23969 2.48303,-8.84332 1.36566,-0.34275 3.56176,-0.41697 4.88022,-0.16493 1.50883,0.28844 2.59818,-0.0655 2.93956,-0.95511 0.2983,-0.77735 0.54236,-7.48968 0.54236,-14.91628 0,-10.89546 0.31088,-13.94679 1.60995,-15.80145 1.2139,-1.73308 1.31724,-2.47941 0.4201,-3.03388 -0.89298,-0.55188 -0.80269,-1.1225 0.36191,-2.28708 0.85346,-0.85346 1.55172,-2.68362 1.55172,-4.06702 0,-1.38341 0.7,-4.26475 1.55555,-6.40296 2.02694,-5.06579 6.65982,-7.40622 13.38208,-6.7603 6.52903,0.62736 9.02258,2.96854 8.22017,7.71786 -0.58215,3.44575 -0.42604,3.70597 3.42834,5.71499 2.22102,1.15766 4.91191,2.10485 5.97972,2.10485 1.06784,0 1.95905,0.11095 1.98051,0.24648 0.0215,0.13557 0.27141,4.23947 0.55542,9.11979 0.28401,4.88033 0.94591,10.19967 1.47089,11.82075 0.63176,1.95082 0.61803,3.05959 -0.0405,3.27913 -1.37196,0.45733 -0.11348,28.01059 1.32882,29.09528 0.7698,0.5789 0.72663,0.95916 -0.14936,1.31457 -0.93957,0.38124 -1.23241,6.33723 -1.23241,25.066 v 24.56595 h 7.28894 c 7.62698,0 8.48584,-0.50709 8.48584,-5.01026 0,-1.67605 0.81323,-1.909 7.14795,-2.0476 11.95462,-0.26154 17.8711,0.28742 18.95349,1.75858 0.97213,1.32133 12.66669,2.35305 13.80209,1.21765 0.26964,-0.26962 0.73922,-5.78379 1.04359,-12.25371 0.30432,-6.46993 0.78756,-13.68796 1.07383,-16.04008 0.50509,-4.14983 0.5768,-4.22567 2.419,-2.55848 1.04416,0.94494 1.89848,2.31482 1.89848,3.04418 0,0.72933 0.3955,1.32606 0.87887,1.32606 1.36751,0 4.05074,7.53985 4.05074,11.38249 0,3.75232 1.02196,4.47824 8.13388,5.77787 l 3.69722,0.67563 v -9.86013 c 0,-8.86352 0.24649,-10.22337 2.43875,-13.45381 1.3413,-1.97653 2.73014,-5.21281 3.08632,-7.19174 0.95736,-5.31913 1.95742,-6.06286 8.15256,-6.06286 h 5.54878 l 2.36657,6.16202 c 2.1387,5.56866 2.43558,8.29822 3.08328,28.34532 0.3942,12.20081 0.77096,32.9422 0.83724,46.09196 l 0.12057,23.90865 H 399.06305 0.2567641 Z"
     id="path21" /><path
     style="fill:#0180c9;fill-opacity:1;stroke-width:0.348577"
     d="m 196.03807,241.65886 c -0.33129,-0.24223 -1.37544,-0.54676 -2.32039,-0.67672 -0.94493,-0.12996 -2.06027,-0.51341 -2.47855,-0.8521 -0.75266,-0.60947 -0.74035,-0.61832 1.19778,-0.86047 1.07702,-0.13456 2.10917,-0.43083 2.29362,-0.65835 0.1845,-0.22754 0.34236,-1.07208 0.35087,-1.87676 0.0173,-1.66723 0.55463,-2.89415 1.26667,-2.89415 0.81425,0 1.93021,1.75345 1.93021,3.03284 0,2.16593 1.09402,3.22337 2.09147,2.02154 0.63851,-0.76939 1.74288,-0.66462 1.74288,0.16534 0,0.73745 -0.86393,1.28824 -3.72695,2.37611 -1.4346,0.5451 -1.85251,0.58475 -2.34761,0.22273 z"
     id="path23" /><path
     style="fill:#0180c9;fill-opacity:1;stroke-width:0.123241"
     d="m 494.36452,330.24131 c -0.12538,-0.44345 -0.2058,-1.52962 -0.32593,-4.40586 -0.068,-1.62677 -0.21399,-3.48462 -0.32456,-4.12856 -0.28902,-1.68325 -0.31419,-2.6828 -0.067,-2.66419 0.51536,0.0388 0.65101,-1.21474 0.32166,-2.97243 -0.17816,-0.9506 -0.17759,-1.05913 0.008,-1.34116 0.28108,-0.42897 1.09945,-0.37977 1.44647,0.087 0.45226,0.60826 0.5721,3.21427 0.20212,4.3952 -0.13536,0.43191 -0.33995,0.49305 -0.91653,0.27384 -0.52169,-0.19836 -0.51121,-0.0357 0.0342,0.5298 0.69988,0.72565 0.93021,1.24635 0.99375,2.24656 0.0476,0.7493 0.0196,0.90722 -0.21368,1.20159 -0.15168,0.19154 -0.39026,0.33891 -0.54853,0.33891 -0.3682,0 -0.71824,0.39886 -0.66708,0.7601 0.0357,0.25161 0.10864,0.28745 0.58538,0.28745 0.48783,0 0.56121,0.0385 0.70307,0.36973 0.38527,0.89918 0.10059,3.17004 -0.56195,4.48249 -0.39244,0.7774 -0.56246,0.91462 -0.66858,0.53955 z"
     id="path24" /><path
     style="fill:#0180c9;fill-opacity:1;stroke-width:0.123241"
     d="m 494.25899,313.35735 c -0.40944,-0.46939 -0.49409,-0.77588 -0.36103,-1.3071 0.23739,-0.94788 0.51234,-4.50006 0.94097,-12.15692 0.21212,-3.78898 0.5198,-7.60304 0.66611,-8.25712 0.31179,-1.39394 0.32445,14.19071 0.0153,18.11636 -0.25823,3.27293 -0.62799,4.33019 -1.26076,3.60478 z"
     id="path25" /><g
     id="g2"
     transform="translate(3.6298712,35.61064)"><path
       d="m 0.75951395,86.112149 c 0,-0.737461 0.31837895,-1.162773 0.81037035,-1.162773 z"
       style="fill-rule:evenodd;stroke-width:1.98391"
       id="path1-0" /></g></svg>
