<?xml version="1.0" encoding="UTF-8" standalone="no"?>
<!-- Created with Inkscape (http://www.inkscape.org/) -->

<svg
   width="210mm"
   height="219.99998mm"
   viewBox="0 0 210 219.99998"
   version="1.1"
   id="svg1"
   inkscape:export-filename="pointing.svg"
   inkscape:export-xdpi="300"
   inkscape:export-ydpi="300"
   xmlns:inkscape="http://www.inkscape.org/namespaces/inkscape"
   xmlns:sodipodi="http://sodipodi.sourceforge.net/DTD/sodipodi-0.dtd"
   xmlns="http://www.w3.org/2000/svg"
   xmlns:svg="http://www.w3.org/2000/svg">
  <sodipodi:namedview
     id="namedview1"
     pagecolor="#ffffff"
     bordercolor="#000000"
     borderopacity="0.25"
     inkscape:showpageshadow="2"
     inkscape:pageopacity="0.0"
     inkscape:pagecheckerboard="0"
     inkscape:deskcolor="#d1d1d1"
     inkscape:document-units="mm"
     inkscape:zoom="0.65834035"
     inkscape:cx="397.21096"
     inkscape:cy="561.25984"
     inkscape:window-width="2880"
     inkscape:window-height="1514"
     inkscape:window-x="2869"
     inkscape:window-y="-11"
     inkscape:window-maximized="1"
     inkscape:current-layer="layer1" />
  <defs
     id="defs1" />
  <g
     inkscape:label="Layer 1"
     inkscape:groupmode="layer"
     id="layer1">
    <g
       id="g1">
      <g
         id="g13">
        <path
           d="m 122.53903,56.335319 37.17998,18.483783 V 122.83453 L 122.53903,141.31829 85.359047,122.83453 V 74.819102 Z"
           stroke="#ffffff"
           stroke-width="0.737699"
           stroke-linejoin="round"
           stroke-miterlimit="10"
           fill="#1cade4"
           fill-rule="evenodd"
           id="path1" />
        <text
           fill="#ffffff"
           font-family="'Tw Cen MT', 'Tw Cen MT_MSFontService', sans-serif"
           font-weight="400"
           font-size="7.52452px"
           id="text1"
           x="96.382942"
           y="96.613701"
           style="stroke-width:0.442619">Computational</text>
        <text
           fill="#ffffff"
           font-family="'Tw Cen MT', 'Tw Cen MT_MSFontService', sans-serif"
           font-weight="400"
           font-size="7.52452px"
           id="text2"
           x="98.557533"
           y="105.02345"
           style="stroke-width:0.442619">Infrastructure</text>
        <path
           d="m 42.646332,56.335319 36.95867,18.483783 V 122.83453 L 42.646332,141.31829 5.6876612,122.83453 V 74.819102 Z"
           stroke="#ffffff"
           stroke-width="0.737699"
           stroke-linejoin="round"
           stroke-miterlimit="10"
           fill="#1cade4"
           fill-rule="evenodd"
           id="path2" />
        <path
           d="M 82.482025,128.48235 119.4407,146.96611 V 194.9814 L 82.482025,213.46516 45.523354,194.9814 v -48.01529 z"
           stroke="#ffffff"
           stroke-width="0.737699"
           stroke-linejoin="round"
           stroke-miterlimit="10"
           fill="#1cade4"
           fill-rule="evenodd"
           id="path3"
           style="fill:#1c99e4;fill-opacity:1" />
        <text
           fill="#ffffff"
           font-family="'Tw Cen MT', 'Tw Cen MT_MSFontService', sans-serif"
           font-weight="400"
           font-size="7.52452px"
           id="text3"
           x="55.828011"
           y="167.9563"
           style="stroke-width:0.442619">Computational</text>
        <text
           fill="#ffffff"
           font-family="'Tw Cen MT', 'Tw Cen MT_MSFontService', sans-serif"
           font-weight="400"
           font-size="7.52452px"
           id="text4"
           x="61.035862"
           y="176.36606"
           style="stroke-width:0.442619">Knowledge</text>
        <path
           d="m 162.37472,128.48235 37.17998,18.48376 v 48.01529 l -37.17998,18.48376 -37.17998,-18.48376 v -48.01529 z"
           stroke="#ffffff"
           stroke-width="0.737699"
           stroke-linejoin="round"
           stroke-miterlimit="10"
           fill="#1cade4"
           fill-rule="evenodd"
           id="path4" />
        <g
           transform="matrix(0.44261882,0,0,0.44261882,-93.69627,-21.301726)"
           id="g2"
           style="fill:#ffffff">
          <path
             d="M 60.6667,62.8333 H 8.66667 V 28.1667 H 60.6667 Z M 62.8333,21.6667 H 6.5 c -2.38333,0 -4.33333,1.95 -4.33333,4.3333 v 39 c 0,2.3833 1.95,4.3333 4.33333,4.3333 h 21.6667 v 6.5 h -9.75 v 6.5 h 32.5 v -6.5 h -9.75 v -6.5 h 21.6666 c 2.3834,0 4.3334,-1.95 4.3334,-4.3333 V 26 c 0,-2.3833 -1.95,-4.3333 -4.3334,-4.3333 z"
             stroke="#000000"
             stroke-width="1.08333"
             transform="matrix(1.00962,0,0,1,254,219)"
             id="path1-8"
             style="fill:#ffffff" />
          <path
             d="M 97.5,32.5 H 75.8333 V 26 H 97.5 Z m 0,10.8333 H 75.8333 v -6.5 H 97.5 Z m -10.8333,32.5 c -1.8417,0 -3.25,-1.4083 -3.25,-3.25 0,-1.8416 1.4083,-3.25 3.25,-3.25 1.8416,0 3.25,1.4084 3.25,3.25 0,1.8417 -1.4084,3.25 -3.25,3.25 z M 97.5,21.6667 H 75.8333 C 73.45,21.6667 71.5,23.6167 71.5,26 v 52 c 0,2.3833 1.95,4.3333 4.3333,4.3333 H 97.5 c 2.3833,0 4.333,-1.95 4.333,-4.3333 V 26 c 0,-2.3833 -1.9497,-4.3333 -4.333,-4.3333 z"
             stroke="#000000"
             stroke-width="1.08333"
             transform="matrix(1.00962,0,0,1,254,219)"
             id="path2-7"
             style="fill:#ffffff" />
        </g>
        <g
           transform="matrix(0.44261882,0,0,0.44261882,-93.35015,-24.848655)"
           id="g3"
           style="fill:#ffffff">
          <path
             d="m 52.0062,21.7521 c -2.5395,0 -4.6374,2.0979 -4.6374,4.6375 0,2.5396 2.0979,4.6375 4.6374,4.6375 2.5396,0 4.6375,-2.0979 4.6375,-4.6375 0,-2.5396 -2.0979,-4.6375 -4.6375,-4.6375 z"
             stroke="#000000"
             stroke-width="1.10417"
             transform="matrix(1,0,0,1.01887,525,388)"
             id="path1-5"
             style="fill:#ffffff" />
          <path
             d="m 42.7313,48.8042 c 0,2.5612 -2.0763,4.6375 -4.6375,4.6375 -2.5613,0 -4.6376,-2.0763 -4.6376,-4.6375 0,-2.5613 2.0763,-4.6375 4.6376,-4.6375 2.5612,0 4.6375,2.0762 4.6375,4.6375 z"
             stroke="#000000"
             stroke-width="1.10417"
             transform="matrix(1,0,0,1.01887,525,388)"
             id="path2-2"
             style="fill:#ffffff" />
          <path
             d="m 65.1458,27.9354 -2.7604,1.325 c -0.2208,0.8833 -0.6625,1.6563 -1.1042,2.4292 l 0.9938,2.8708 -2.2083,2.2083 -2.8709,-0.9937 c -0.7729,0.4417 -1.5458,0.7729 -2.4291,0.9937 l -1.325,2.6501 H 50.35 l -1.325,-2.7605 c -0.8833,-0.2208 -1.6562,-0.552 -2.4292,-0.9937 L 43.725,36.6583 41.5167,34.45 42.5104,31.5792 C 42.0687,30.8062 41.7375,30.0333 41.5167,29.15 l -2.7605,-1.325 v -3.0917 l 2.7605,-1.325 c 0.2208,-0.8833 0.552,-1.6562 0.9937,-2.4291 l -0.8833,-2.8709 2.2083,-2.2083 2.8708,0.9937 c 0.773,-0.4416 1.5459,-0.7729 2.4292,-0.9937 l 1.325,-2.7604 h 3.0917 l 1.325,2.65 c 0.8833,0.2208 1.6562,0.5521 2.4292,0.9937 l 2.8708,-0.9937 2.2083,2.2083 -0.9937,2.8708 c 0.4416,0.773 0.7729,1.5459 0.9937,2.4292 l 2.7604,1.325 z M 51.2333,50.35 48.4729,51.675 c -0.2208,0.8833 -0.5521,1.6562 -0.9937,2.4292 l 0.8833,2.8708 -2.2083,2.2083 -2.8709,-0.9937 c -0.7729,0.4416 -1.5458,0.7729 -2.4291,0.9937 l -1.2146,2.65 h -3.0917 l -1.325,-2.7604 c -0.8833,-0.2208 -1.6562,-0.5521 -2.4291,-0.9937 l -2.8709,0.8833 -2.2083,-2.2083 0.9937,-2.8709 c -0.4416,-0.7729 -0.7729,-1.5458 -0.9937,-2.4291 l -2.7604,-1.325 v -3.0917 l 2.7604,-1.325 c 0.2208,-0.8833 0.5521,-1.6562 0.9937,-2.4292 l -0.9937,-2.8708 2.2083,-2.2083 2.8709,0.9937 c 0.7729,-0.4417 1.5458,-0.7729 2.4291,-0.9937 l 1.325,-2.7605 H 39.75 l 1.325,2.7605 c 0.8833,0.2208 1.6563,0.552 2.4292,0.9937 l 2.8708,-0.9937 2.2083,2.2083 -0.9937,2.8708 c 0.4416,0.773 0.7729,1.5459 0.9937,2.4292 l 2.7605,1.325 z m 38.2042,4.0854 -7.6188,-13.25 V 40.6333 C 82.2604,28.4875 76.0771,17.1146 65.5875,10.8208 55.0979,4.6375 42.1792,4.6375 31.6896,10.8208 21.2,17.0042 15.0167,28.4875 15.4583,40.6333 c 0,10.4896 4.7479,20.3167 13.0292,26.7209 v 27.9354 h 34.8917 v -13.25 h 5.4104 c 3.5333,0 6.8458,-1.4354 9.275,-3.8646 2.4292,-2.5396 3.7541,-5.8521 3.7541,-9.3854 v -6.625 h 4.8584 c 2.8708,-0.3313 5.4104,-3.6438 2.7604,-7.7292 z"
             stroke="#000000"
             stroke-width="1.10417"
             transform="matrix(1,0,0,1.01887,525,388)"
             id="path3-9"
             style="fill:#ffffff" />
        </g>
        <path
           style="opacity:1;fill:#1c99e4;fill-opacity:1;stroke-width:0.401894"
           d="m 64.001692,203.60406 -17.984777,-9.02158 v -23.61247 -23.61247 l 18.185722,-9.09023 18.185725,-9.09023 18.185718,9.09022 18.18573,9.09022 v 23.6125 23.61248 l -18.0835,9.0435 c -9.945929,4.97392 -18.219931,9.03363 -18.386674,9.02157 -0.166743,-0.0121 -8.396319,-4.08164 -18.287944,-9.04351 z M 96.575236,177.6243 c 0.273034,-0.27303 0.482272,-1.58078 0.482272,-3.0142 v -2.53194 l -1.306156,0.006 c -1.511591,0.007 -2.061633,0.30734 -2.440323,1.33194 -0.49925,1.35079 0.134863,2.65677 1.4791,3.04628 l 1.262645,0.36586 -1.306158,0.0363 c -0.876991,0.0243 -1.306158,0.23432 -1.306158,0.63909 0,0.7443 2.418048,0.8373 3.134778,0.12057 z m -33.678754,-2.20523 v -1.07992 l 1.127199,1.07992 c 1.10268,1.05643 2.087957,1.40945 2.087957,0.74809 0,-0.18251 -0.452133,-0.75659 -1.004737,-1.27574 -1.26492,-1.18833 -1.256779,-1.50146 0.07519,-2.89174 0.884111,-0.92282 0.95349,-1.1272 0.38262,-1.1272 -0.383522,0 -1.135052,0.49734 -1.670069,1.10521 l -0.972759,1.10521 -0.0127,-1.10521 c -0.0081,-0.70884 -0.228907,-1.10521 -0.615543,-1.10521 -0.478446,0 -0.602842,0.58051 -0.602842,2.81326 0,2.23275 0.124396,2.81326 0.602842,2.81326 0.386295,0 0.602843,-0.38792 0.602842,-1.07993 z m 4.822732,-0.48465 c 0,-0.97151 0.21362,-1.64655 0.56355,-1.78083 0.819343,-0.31441 1.044027,0.074 1.044027,1.80482 0,1.12454 0.168476,1.54059 0.623845,1.54059 0.50007,0 0.599744,-0.41862 0.50237,-2.10995 l -0.121478,-2.10994 -1.70805,-0.12358 -1.708052,-0.12359 v 2.23353 c 0,1.22844 0.180851,2.23353 0.401894,2.23353 0.221041,0 0.401894,-0.70406 0.401894,-1.56458 z m 7.153722,1.08231 c 0.26525,-0.26525 0.482272,-1.04292 0.482272,-1.72815 0,-1.52023 -0.627441,-2.21042 -2.00947,-2.21042 -0.57471,0 -1.261949,0.21702 -1.527199,0.48227 -0.622972,0.62298 -0.622972,2.83332 0,3.4563 0.621697,0.62169 2.432698,0.62169 3.054397,0 z m 3.433271,-0.82389 0.541935,-1.30615 0.294936,1.30615 c 0.414566,1.83593 1.32075,1.63832 1.843006,-0.40189 0.240474,-0.93943 0.513048,-1.93412 0.605718,-2.21042 0.09267,-0.2763 -0.09194,-0.50237 -0.410247,-0.50237 -0.318304,0 -0.735793,0.58777 -0.927753,1.30616 l -0.349015,1.30615 -0.297248,-1.30615 c -0.352068,-1.54704 -1.319221,-1.72266 -1.675231,-0.3042 -0.283422,1.12924 -0.969521,0.97221 -0.969521,-0.22189 0,-0.44883 -0.274481,-0.78007 -0.646411,-0.78007 -0.496506,0 -0.5852,0.24388 -0.382468,1.05162 0.145166,0.5784 0.368231,1.57309 0.495699,2.21042 0.308084,1.54042 1.205566,1.46995 1.8766,-0.14736 z m 5.086892,-1.70805 c 0,-2.41137 -0.120571,-3.01421 -0.602843,-3.01421 -0.482274,0 -0.602842,0.60284 -0.602842,3.01421 0,2.41137 0.120568,3.01421 0.602842,3.01421 0.482272,0 0.602843,-0.60284 0.602843,-3.01421 z m 4.738812,2.2685 c 0.135572,-0.4122 -0.11021,-0.4812 -1.0101,-0.28355 -0.83216,0.18277 -1.343956,0.0748 -1.704411,-0.3595 -0.450329,-0.54261 -0.306684,-0.62071 1.141645,-0.62071 1.714997,0 1.94977,-0.30919 1.240753,-1.634 -0.471519,-0.88104 -2.356448,-1.05928 -3.120639,-0.2951 -0.631319,0.63133 -0.619659,2.83664 0.01839,3.47467 0.642411,0.64241 3.199421,0.4326 3.434376,-0.28181 z m 4.504759,-2.2685 c 0,-2.41137 -0.120568,-3.01421 -0.602843,-3.01421 -0.33491,0 -0.60284,0.35724 -0.60284,0.80379 0,0.57081 -0.26793,0.80379 -0.924359,0.80379 -1.22656,0 -1.888902,0.72128 -1.888902,2.05698 0,1.99006 0.356335,2.36386 2.253419,2.36386 h 1.765525 z m 9.24357,2.45258 c 0,-0.37436 -0.42123,-0.54186 -1.26333,-0.50237 -0.696365,0.0327 -1.342675,-0.16619 -1.440124,-0.4431 -0.120113,-0.34132 0.284879,-0.50237 1.263334,-0.50237 1.14089,0 1.44012,-0.15679 1.44012,-0.75458 0,-1.06582 -0.96498,-1.73704 -2.27919,-1.58536 -1.418148,0.16369 -2.115118,1.79927 -1.418362,3.32848 0.385895,0.84695 0.740593,1.02093 2.081362,1.02093 1.11597,0 1.61619,-0.17383 1.61619,-0.56163 z m -27.32882,-7.07436 c 0,-0.57081 0.26793,-0.80379 0.924356,-0.80379 1.265251,0 1.888906,-0.72981 1.888906,-2.21042 0,-1.64383 -0.638705,-2.21042 -2.491746,-2.21042 h -1.527198 v 3.01421 c 0,2.41136 0.120568,3.0142 0.602839,3.0142 0.334913,0 0.602843,-0.35724 0.602843,-0.80378 z m -13.743823,-1.6824 c 0.112154,-0.59161 -0.02365,-0.62024 -1.069523,-0.22547 -1.503328,0.56744 -2.468115,-0.10068 -2.468115,-1.70918 0,-1.59644 0.966367,-2.27603 2.443586,-1.71844 1.042122,0.39335 1.173464,0.35687 1.173464,-0.32595 0,-0.76034 -0.715534,-0.98745 -2.612314,-0.82915 -1.908082,0.15924 -2.83646,3.00657 -1.569894,4.81485 0.521994,0.74525 0.948997,0.89195 2.307426,0.79274 1.182227,-0.0863 1.704255,-0.31878 1.79537,-0.7994 z m 4.017978,0.39633 c 0.26525,-0.26525 0.482272,-1.04291 0.482272,-1.72814 0,-1.54025 -0.62933,-2.21042 -2.075709,-2.21042 -1.683645,0 -2.689059,2.71047 -1.460961,3.93856 0.621697,0.6217 2.432699,0.6217 3.054398,0 z m 2.491745,-1.0823 c 0,-0.97939 0.213037,-1.64633 0.569582,-1.78315 0.665173,-0.25525 1.037995,0.52593 1.037995,2.17491 0,0.64505 0.180853,1.17282 0.401894,1.17282 0.221043,0 0.401897,-0.70406 0.401897,-1.56458 0,-0.97151 0.213616,-1.64655 0.563549,-1.78084 0.81934,-0.31441 1.044027,0.074 1.044027,1.80482 0,1.10149 0.171826,1.5406 0.602843,1.5406 0.442261,0 0.601202,-0.45498 0.596685,-1.70805 -0.0034,-0.93943 -0.139289,-1.91729 -0.302016,-2.17301 -0.17657,-0.27749 -1.470427,-0.47595 -3.208999,-0.49223 l -2.913139,-0.0273 v 2.20028 c 0,1.68787 0.14039,2.20028 0.60284,2.20028 0.432625,0 0.602842,-0.44177 0.602842,-1.56458 z m 14.4682,-0.64584 c 0,-1.21573 -0.180853,-2.21042 -0.401894,-2.21042 -0.221041,0 -0.401894,0.72341 -0.401894,1.60758 0,0.88416 -0.07564,1.60757 -0.16808,1.60757 -0.09244,0 -0.454146,0.10978 -0.803788,0.24395 -0.522994,0.20069 -0.635712,-0.0844 -0.635712,-1.60758 0,-1.37787 -0.154217,-1.85152 -0.60284,-1.85152 -0.45271,0 -0.602842,0.48376 -0.602842,1.94249 0,1.06837 0.120568,2.06305 0.26793,2.21042 0.14736,0.14736 0.961197,0.26793 1.808525,0.26793 h 1.540595 z m 3.61705,1.80852 c 0,-0.22104 -0.271278,-0.40189 -0.602843,-0.40189 -0.421031,0 -0.60284,-0.42422 -0.60284,-1.40663 0,-0.98241 0.181809,-1.40663 0.60284,-1.40663 0.331565,0 0.602843,-0.18086 0.602843,-0.4019 0,-0.22104 -0.206129,-0.40189 -0.458063,-0.40189 -0.251933,0 -0.689279,-0.31621 -0.971875,-0.70269 -0.282599,-0.38647 -0.657516,-0.55898 -0.833152,-0.38334 -0.343236,0.34324 -0.273656,4.57696 0.08475,5.15688 0.3003,0.4859 2.178339,0.44114 2.178339,-0.0519 z m 3.939474,-1.70805 -0.121476,-2.10994 -1.708052,-0.12359 c -1.375397,-0.0995 -1.708052,0.007 -1.708052,0.54594 0,0.50898 0.235008,0.61054 0.980104,0.42353 0.539062,-0.1353 1.092292,-0.0645 1.229405,0.15738 0.141507,0.22896 -0.186746,0.40337 -0.759188,0.40337 -1.134697,0 -1.844923,0.94579 -1.551844,2.06655 0.15327,0.5861 0.578688,0.74671 1.977924,0.74671 h 1.782657 z m 3.69652,1.75493 c 0,-0.19527 -0.361704,-0.44961 -0.803789,-0.56522 -0.585279,-0.15305 -0.803788,-0.54819 -0.803788,-1.4535 0,-0.97538 0.173212,-1.24331 0.803788,-1.24331 0.442085,0 0.803789,-0.18086 0.803789,-0.4019 0,-0.22104 -0.361704,-0.40189 -0.803789,-0.40189 -0.446547,0 -0.803788,-0.26793 -0.803788,-0.60284 0,-0.33157 -0.27128,-0.60285 -0.602842,-0.60285 -0.794541,0 -0.911794,1.29872 -0.390054,4.32037 0.19477,1.12802 0.387482,1.30616 1.412999,1.30616 0.653111,0 1.187474,-0.15976 1.187474,-0.35502 z m 1.205685,-1.8554 c 0,-1.21573 -0.180854,-2.21042 -0.401894,-2.21042 -0.221044,0 -0.401897,0.99469 -0.401897,2.21042 0,1.21573 0.180853,2.21042 0.401897,2.21042 0.22104,0 0.401894,-0.99469 0.401894,-2.21042 z m 4.869267,1.10521 c 0.659159,-1.7 -0.277283,-3.11468 -2.061739,-3.11468 -1.14,0 -1.448504,0.19039 -1.764528,1.08901 -0.625236,1.77785 0.227211,3.13088 1.972538,3.13088 1.182939,0 1.498036,-0.18787 1.853729,-1.10521 z m 1.962934,-0.45937 c 0,-0.97151 0.21362,-1.64655 0.56355,-1.78084 0.81934,-0.31441 1.04403,0.074 1.04403,1.80482 0,1.10149 0.17183,1.5406 0.60284,1.5406 0.4424,0 0.60284,-0.45995 0.60284,-1.72815 0,-2.1264 -0.52403,-2.69269 -2.49174,-2.69269 h -1.527201 v 2.21042 c 0,1.69689 0.140051,2.21042 0.602841,2.21042 0.43262,0 0.60284,-0.44177 0.60284,-1.56458 z m 7.15463,-0.54537 -0.12147,-2.10994 -1.70806,-0.12359 c -1.37539,-0.0995 -1.70805,0.007 -1.70805,0.54594 0,0.50898 0.23501,0.61054 0.98011,0.42353 0.53906,-0.1353 1.09229,-0.0645 1.2294,0.15738 0.14165,0.22919 -0.18867,0.40337 -0.76502,0.40337 -1.12329,0 -1.98665,1.1763 -1.601,2.1813 0.17021,0.44353 0.77518,0.63196 2.02904,0.63196 h 1.78653 z m 2.08894,-0.90426 c 0,-2.41137 -0.12056,-3.01421 -0.60283,-3.01421 -0.48228,0 -0.60285,0.60284 -0.60285,3.01421 0,2.41137 0.12057,3.01421 0.60285,3.01421 0.48227,0 0.60283,-0.60284 0.60283,-3.01421 z m -15.673877,-2.21042 c 0,-0.22104 -0.27128,-0.4019 -0.602843,-0.4019 -0.331562,0 -0.602842,0.18086 -0.602842,0.4019 0,0.22104 0.27128,0.40189 0.602842,0.40189 0.331563,0 0.602843,-0.18085 0.602843,-0.40189 z"
           id="path5" />
        <path
           style="opacity:1;fill:#1c99e4;fill-opacity:1;stroke-width:0.401894"
           d="M 104.19113,131.53957 85.804464,122.49766 V 98.828123 75.158705 l 18.362106,-9.041302 18.3621,-9.041302 18.31077,9.043009 18.31076,9.043008 0.0877,23.640984 0.0877,23.641098 -18.37391,9.06865 -18.37391,9.06864 z m -2.71278,-26.77882 c 0,-0.33156 -0.18085,-0.60285 -0.4019,-0.60285 -0.22104,0 -0.40189,-0.90426 -0.40189,-2.00948 0,-1.10522 0.18085,-2.00948 0.40189,-2.00948 0.22105,0 0.4019,-0.180853 0.4019,-0.401896 0,-0.221041 -0.49735,-0.401662 -1.10521,-0.401373 l -1.105211,5.29e-4 v 3.01374 3.01374 l 1.105211,-4e-5 c 0.71446,-3e-5 1.10521,-0.21318 1.10521,-0.60289 z m 1.93331,-1.36218 c 0.0986,-1.34385 0.26756,-1.67455 0.8038,-1.57289 0.48524,0.092 0.71426,0.61514 0.80257,1.83332 0.068,0.93753 0.29404,1.7046 0.50237,1.7046 0.44519,0 0.52113,-4.39432 0.0774,-4.47709 -0.16578,-0.0309 -0.97962,-0.0953 -1.80853,-0.1431 l -1.5071,-0.0869 v 2.38702 c 0,2.82707 0.92687,3.11839 1.12952,0.35502 z m 4.497,0.15649 c 0,-1.33965 0.15629,-1.80853 0.60284,-1.80853 0.72805,0 0.80717,-1.05627 0.10048,-1.34142 -0.30012,-0.1211 -0.21921,-0.21549 0.20094,-0.23444 0.85479,-0.0386 0.95213,-1.237415 0.10047,-1.237415 -1.03092,0 -2.30978,1.588505 -2.05211,2.549005 0.12794,0.47691 0.23508,1.54531 0.2381,2.37422 0.003,0.82891 0.18634,1.50712 0.40738,1.50712 0.22105,0 0.4019,-0.81385 0.4019,-1.80854 z m 2.89063,0.10047 0.12358,-1.70806 2.21042,-0.0906 c 2.20167,-0.0903 2.20487,-0.0887 0.80868,0.4019 -2.53729,0.8915 -1.94312,3.07012 0.82688,3.03189 l 1.57959,-0.0218 v -1.93839 c 0,-1.11038 -0.21459,-2.07646 -0.50236,-2.26162 -0.27631,-0.17779 -1.81355,-0.34292 -3.41611,-0.36696 l -2.91373,-0.0437 v 2.35272 c 0,1.7817 0.1407,2.35272 0.57973,2.35272 0.39472,0 0.61917,-0.54509 0.70332,-1.70806 z m 9.10089,1.35504 c 0.79908,-0.50651 0.41338,-2.22481 -0.53753,-2.39468 -1.45134,-0.25927 -1.72788,-0.97926 -0.30142,-0.78477 1.46926,0.20033 1.86462,-0.65697 0.50237,-1.08934 -2.45014,-0.777644 -3.43527,1.73198 -1.10521,2.81553 l 1.30615,0.6074 -1.5071,-0.17908 c -1.08757,-0.12924 -1.5071,-0.0276 -1.5071,0.365 0,0.90945 2.07149,1.34346 3.14984,0.65994 z m 3.68236,-0.24982 c 0,-0.33156 -0.27128,-0.60285 -0.60284,-0.60285 -0.40189,0 -0.60284,-0.40189 -0.60284,-1.20569 0,-0.80379 0.20095,-1.20568 0.60284,-1.20568 0.33156,0 0.60284,-0.27129 0.60284,-0.60285 0,-0.33157 -0.27128,-0.60285 -0.60284,-0.60285 -0.33156,0 -0.60284,-0.18085 -0.60284,-0.40189 0,-0.606078 -1.08885,-0.482271 -1.33203,0.15146 -0.29343,0.76467 0.14797,3.9584 0.63173,4.57082 0.5534,0.70059 1.90598,0.62929 1.90598,-0.10047 z m 1.68495,-1.10522 c 0.10273,-1.41991 0.27613,-1.72973 1.02784,-1.83648 0.78771,-0.11188 0.90426,0.0501 0.90426,1.25695 0,1.71397 0.57081,2.21232 2.5307,2.20945 l 1.52596,-0.002 -0.11933,-2.23896 c -0.15115,-2.83598 -1.12407,-3.46641 -1.12407,-0.72837 0,1.57409 -0.11691,1.84202 -0.80378,1.84202 -0.68255,0 -0.8038,-0.26793 -0.8038,-1.77624 v -1.77624 l -2.10994,0.0826 -2.10995,0.0826 -0.12053,2.29652 c -0.0956,1.82208 0.003,2.29653 0.47926,2.29653 0.41832,0 0.63718,-0.51679 0.72338,-1.70807 z m 9.73617,1.46412 c 1.16821,-0.44829 0.70937,-1.28455 -0.67044,-1.22195 -1.14111,0.0518 -1.30616,-0.0677 -1.30616,-0.94549 0,-0.8908 0.17091,-1.0062 1.5071,-1.01767 1.47051,-0.0126 1.50711,0.0229 1.50711,1.46411 0,0.97613 0.21559,1.55978 0.63571,1.721 1.07704,0.4133 1.77566,0.2721 1.77566,-0.3589 0,-0.33156 -0.27128,-0.60285 -0.60284,-0.60285 -0.4019,0 -0.60285,-0.40189 -0.60285,-1.20569 0,-0.80379 0.20095,-1.20568 0.60285,-1.20568 0.33156,0 0.60284,-0.27129 0.60284,-0.60285 0,-0.33157 -0.27128,-0.60285 -0.60284,-0.60285 -0.33157,0 -0.60285,-0.18085 -0.60285,-0.40189 0,-0.628271 -1.09316,-0.471021 -1.34833,0.19396 -0.15754,0.41052 -0.57717,0.52776 -1.34916,0.37694 -1.57148,-0.30703 -2.6611,0.61113 -2.6611,2.24237 0,1.8465 1.40475,2.82384 3.1153,2.16744 z m 7.78798,-2.08285 c -0.15106,-2.83012 -1.12385,-3.454141 -1.12385,-0.72092 0,1.57409 -0.11691,1.84202 -0.80379,1.84202 -0.6847,0 -0.80378,-0.26793 -0.80378,-1.80853 0,-1.33966 -0.1563,-1.80854 -0.60285,-1.80854 -0.45213,0 -0.60284,0.48228 -0.60284,1.92911 0,2.34462 0.44369,2.84825 2.48444,2.82008 l 1.57177,-0.0217 z m 2.09131,0.68158 c 0,-1.30722 0.16513,-1.6884 0.80379,-1.85541 1.32535,-0.34659 0.91784,-1.1596 -0.60284,-1.2027 l -1.40663,-0.0399 v 2.3716 c 0,1.84016 0.13508,2.3716 0.60284,2.3716 0.43768,0 0.60284,-0.45073 0.60284,-1.64521 z m 5.53914,0.80813 c 0.0932,-0.49206 -0.14561,-0.5971 -1.05418,-0.46375 -0.64604,0.0948 -1.29714,-0.0259 -1.44688,-0.26812 -0.18034,-0.2918 0.27848,-0.44053 1.35904,-0.44053 1.79341,0 2.03177,-0.45508 1.00567,-1.92006 -1.0888,-1.554483 -3.1074,-0.89306 -3.6071,1.18191 -0.19073,0.792 -0.0333,1.29484 0.60519,1.93336 0.99346,0.99346 2.94854,0.97925 3.13826,-0.0228 z m -35.27933,-6.949649 c 0,-0.303932 0.53773,-0.660151 1.19497,-0.791599 1.31387,-0.262773 1.89042,-1.535761 1.46438,-3.233253 -0.29187,-1.162897 -1.066,-1.508398 -2.66375,-1.18885 -1.194,0.238803 -1.20129,0.257019 -1.20129,3.003283 0,2.188091 0.12545,2.763025 0.60285,2.763025 0.33156,0 0.60284,-0.248674 0.60284,-0.552606 z m -14.30012,-0.897025 c 0.34964,-0.13417 0.63571,-0.484502 0.63571,-0.77852 0,-0.389324 -0.39313,-0.470779 -1.44685,-0.299784 -1.63169,0.264785 -2.154086,-0.212997 -2.164047,-1.979239 -0.0076,-1.353831 1.227913,-2.151314 2.378787,-1.535383 1.02663,0.549434 1.23211,0.525452 1.23211,-0.143809 0,-0.64798 -0.85591,-1.047734 -2.243292,-1.047734 -1.421577,0 -2.579444,1.353024 -2.579444,3.014208 0,2.301401 1.985496,3.615068 4.187026,2.770261 z m 4.57427,-0.238326 c 1.20239,-1.202386 0.17302,-4.34046 -1.42378,-4.34046 -1.79364,0 -2.80658,2.865943 -1.48134,4.191185 0.74955,0.749551 2.22884,0.825563 2.90512,0.149275 z m 2.49175,-1.35572 c 0,-1.533363 0.11657,-1.815883 0.70332,-1.704586 0.51304,0.09732 0.73674,0.594567 0.82689,1.837995 0.15982,2.20436 0.79871,2.20436 0.95852,0 0.0901,-1.243428 0.31386,-1.740678 0.8269,-1.837995 0.58675,-0.111297 0.70331,0.171223 0.70331,1.704586 0,1.393344 0.15093,1.837992 0.62385,1.837992 0.49879,0 0.59949,-0.414644 0.50237,-2.068552 -0.1393,-2.37195 -0.98205,-3.288551 -2.27894,-2.478633 -0.4708,0.294024 -0.89549,0.328743 -1.13171,0.09252 -0.20796,-0.207963 -0.95458,-0.262821 -1.65916,-0.121907 -1.24945,0.249891 -1.28103,0.309465 -1.28103,2.416389 0,1.652233 0.14175,2.160183 0.60284,2.160183 0.44798,0 0.60284,-0.472152 0.60284,-1.837992 z m 14.4682,-0.438311 c 0,-2.433928 -0.68995,-2.933697 -0.88,-0.637431 -0.0991,1.197596 -0.28981,1.507103 -0.92853,1.507103 -0.63872,0 -0.8294,-0.309507 -0.92852,-1.507103 -0.0686,-0.828908 -0.29467,-1.507104 -0.50237,-1.507104 -0.42252,0 -0.52613,3.736477 -0.11501,4.1476 0.14444,0.144442 0.95828,0.23536 1.80852,0.202044 l 1.54591,-0.06057 z m 3.61705,1.720337 c 0,-0.305784 -0.36171,-0.650558 -0.80379,-0.766165 -0.54315,-0.142039 -0.80379,-0.54819 -0.80379,-1.252556 0,-0.774433 0.20661,-1.042363 0.80379,-1.042363 0.44208,0 0.80379,-0.18085 0.80379,-0.401894 0,-0.221041 -0.36171,-0.401894 -0.80379,-0.401894 -0.44655,0 -0.80379,-0.26793 -0.80379,-0.602843 0,-0.848143 -0.79208,-0.755361 -0.85776,0.100476 -0.0903,1.177229 0.1264,4.301162 0.32067,4.621784 0.32764,0.540742 2.14467,0.32508 2.14467,-0.254545 z m 4.01894,-1.439365 c 0,-2.236034 -0.86406,-3.10115 -2.64974,-2.652972 -1.40081,0.351581 -1.187,1.025157 0.33885,1.067501 l 1.30616,0.03625 -1.26331,0.366036 c -2.54097,0.736232 -2.02262,3.178521 0.6746,3.178521 h 1.59344 z m 3.51859,1.292016 c 0.0968,-0.294079 -0.1817,-0.502367 -0.67184,-0.502367 -0.66237,0 -0.83727,-0.251855 -0.83727,-1.205683 0,-0.937755 0.17861,-1.205685 0.80379,-1.205685 0.44208,0 0.80378,-0.18085 0.80378,-0.401894 0,-0.221041 -0.3617,-0.401894 -0.80378,-0.401894 -0.44656,0 -0.80379,-0.26793 -0.80379,-0.602843 0,-0.849722 -1.19306,-0.754896 -1.26411,0.100476 -0.11621,1.399042 0.14964,3.532158 0.52896,4.244279 0.42964,0.806553 1.97614,0.789749 2.24426,-0.02439 z m 1.30415,-1.507104 c 0,-1.215731 -0.18085,-2.210419 -0.4019,-2.210419 -0.22104,0 -0.40189,0.994688 -0.40189,2.210419 0,1.215731 0.18085,2.210419 0.40189,2.210419 0.22105,0 0.4019,-0.994688 0.4019,-2.210419 z m 4.34046,1.728147 c 0.26525,-0.26525 0.48227,-1.17339 0.48227,-2.018088 0,-1.241375 -0.18947,-1.622145 -0.98827,-1.986103 -2.17784,-0.99229 -4.12217,2.131865 -2.39913,3.854916 0.74956,0.749551 2.22884,0.825563 2.90513,0.149275 z m 2.56911,-1.222311 c 0.0901,-1.243428 0.31385,-1.740678 0.8269,-1.837995 0.58674,-0.111297 0.70331,0.171223 0.70331,1.704586 0,1.36584 0.15486,1.837992 0.60284,1.837992 0.44511,0 0.60284,-0.465685 0.60284,-1.779818 0,-2.065525 -0.87494,-3.226281 -2.16986,-2.878661 -0.46439,0.124666 -1.07041,0.229135 -1.34671,0.232153 -0.34034,0.0037 -0.50237,0.718429 -0.50237,2.215907 0,1.657728 0.14495,2.210419 0.57973,2.210419 0.3945,0 0.61922,-0.544639 0.70332,-1.704583 z m 7.15673,-0.290748 c 0,-2.236034 -0.86406,-3.10115 -2.64974,-2.652972 -1.40081,0.351581 -1.187,1.025157 0.33885,1.067501 l 1.30616,0.03625 -1.28063,0.370523 c -1.42243,0.411551 -2.06843,1.683475 -1.31568,2.59048 0.27101,0.326546 1.17064,0.583554 2.04267,0.583554 h 1.55837 z m 2.00947,-1.018876 c 0,-2.411368 -0.12056,-3.014208 -0.60284,-3.014208 -0.48227,0 -0.60284,0.60284 -0.60284,3.014208 0,2.411367 0.12057,3.014207 0.60284,3.014207 0.48228,0 0.60284,-0.60284 0.60284,-3.014207 z m -16.01549,-2.411368 c 0,-0.209989 -0.19441,-0.446603 -0.43204,-0.525812 -0.23762,-0.0792 -0.43203,0.157409 -0.43203,0.525812 0,0.368403 0.19441,0.60502 0.43203,0.525812 0.23763,-0.07921 0.43204,-0.315823 0.43204,-0.525812 z"
           id="path6" />
        <path
           style="opacity:1;fill:#1c99e4;fill-opacity:1;stroke-width:0.401894"
           d="m 143.77774,203.58977 -18.18572,-9.00613 2.6e-4,-23.61099 2.6e-4,-23.611 18.38714,-9.06049 18.38714,-9.06049 18.38593,9.045 18.38592,9.045 v 23.64408 23.64409 l -18.34359,9.02533 c -10.08897,4.96393 -18.4534,9.00877 -18.58761,8.98854 -0.13422,-0.0202 -8.42761,-4.08956 -18.42976,-9.04294 z m 23.6113,-16.44057 v -3.01421 h 2.06251 c 3.76335,0 5.78429,-2.0728 6.23618,-6.39625 0.24524,-2.34633 0.30097,-2.44542 1.37532,-2.44542 1.39756,0 2.38282,-0.94694 2.38282,-2.29013 0,-0.56486 -0.76862,-2.40568 -1.70805,-4.09071 -1.22183,-2.19156 -1.83906,-3.88522 -2.16827,-5.94969 -0.61391,-3.84987 -2.08977,-6.93678 -4.43814,-9.28278 -7.17178,-7.16454 -19.43357,-5.28629 -23.82622,3.64969 -3.15931,6.42699 -2.18473,13.99465 2.41229,18.73156 l 1.59578,1.64434 v 6.22891 6.2289 h 8.03789 8.03789 z"
           id="path7" />
        <path
           style="opacity:1;fill:#1c99e4;fill-opacity:1;stroke-width:0.401894"
           d="M 24.415088,131.53855 6.2293639,122.44833 V 98.834264 75.220321 l 18.1886491,-9.0917 18.18865,-9.091702 18.182799,9.093155 18.182796,9.093158 v 23.61248 23.612598 l -18.185722,9.09023 -18.185725,9.09023 z m 17.582883,-20.9503 v -2.00948 h -2.210422 c -2.089851,0 -2.210419,-0.0548 -2.210419,-1.00474 v -1.00475 h 5.092509 c 4.174644,0 5.224979,-0.11988 5.827469,-0.66513 0.67165,-0.60783 0.734963,-1.46562 0.734963,-9.957969 0,-7.760261 -0.10318,-9.440111 -0.625631,-10.186019 L 47.980808,84.86695 H 34.18745 c -12.331701,0 -13.85181,0.07032 -14.344938,0.66363 -0.785654,0.945261 -1.000264,18.36928 -0.244282,19.83302 0.508926,0.98538 0.6213,1.0069 5.83281,1.11688 l 5.313884,0.11214 v 0.97207 c 0,0.8893 -0.179657,0.98242 -2.109946,1.09355 -2.070867,0.11923 -2.11233,0.14637 -2.238735,1.4659 -0.242638,2.53286 -0.433181,2.4736 7.953118,2.4736 h 7.64861 z m 21.612873,1.38385 c 0.891288,-0.62428 0.893215,-0.65328 0.893215,-13.449388 0,-12.267089 -0.03374,-12.84175 -0.777367,-13.239729 -1.126726,-0.603004 -12.19467,-0.545758 -12.806664,0.06624 -0.354846,0.354846 -0.482275,3.853124 -0.482275,13.239731 0,15.419996 -0.708504,14.008786 7.033154,14.008786 4.098245,0 5.442244,-0.13695 6.139937,-0.62564 z"
           id="path8" />
        <path
           style="opacity:1;fill:#1c99e4;fill-opacity:1;stroke-width:0.401894"
           d="M 23.108931,95.7181 V 88.484 h 11.052097 11.052099 v 7.2341 7.23411 H 34.161028 23.108931 Z"
           id="path9" />
        <path
           style="opacity:1;fill:#1c99e4;fill-opacity:1;stroke-width:0.401894"
           d="m 53.251015,88.684946 v -1.004734 h 4.219892 4.21989 v 1.004734 1.004736 h -4.21989 -4.219892 z"
           id="path10" />
        <path
           style="opacity:1;fill:#1c99e4;fill-opacity:1;stroke-width:0.401894"
           d="m 53.251015,93.507681 v -1.004737 h 4.219892 4.21989 v 1.004737 1.004736 h -4.21989 -4.219892 z"
           id="path11" />
        <path
           style="opacity:1;fill:#1c99e4;fill-opacity:1;stroke-width:0.401894"
           d="m 160.85213,163.19687 c -0.50044,-0.54769 -1.00362,-0.70258 -1.70805,-0.52578 -0.92316,0.2317 -0.99862,0.14278 -0.99862,-1.17677 0,-1.01569 -0.25539,-1.6063 -0.88542,-2.04759 l -0.88543,-0.62018 0.88543,-0.8249 c 0.52757,-0.4915 0.88542,-1.30587 0.88542,-2.01492 0,-1.05085 0.13919,-1.19003 1.19003,-1.19003 0.70685,0 1.52292,-0.35731 2.0099,-0.88002 0.77577,-0.83269 0.84792,-0.84166 1.34144,-0.16673 0.28687,0.39232 1.13012,0.83777 1.87388,0.98988 1.13436,0.232 1.36033,0.46019 1.40217,1.4159 0.0274,0.62663 0.35954,1.36576 0.73802,1.6425 0.89929,0.65758 0.86808,1.08661 -0.14198,1.95144 -0.54622,0.46769 -0.78675,1.08237 -0.70331,1.79737 0.11495,0.98512 -0.003,1.09302 -1.26204,1.15537 -0.76386,0.0378 -1.59763,0.35431 -1.85283,0.70331 -0.58955,0.80625 -1.00284,0.76055 -1.88861,-0.20885 z m 3.30921,-3.27602 c 0.55258,-0.99241 0.55258,-1.218 0,-2.21042 -0.68659,-1.23311 -2.8178,-1.72394 -3.83171,-0.88247 -0.83602,0.69384 -0.74806,3.45298 0.12673,3.9751 1.25474,0.74891 3.03248,0.32561 3.70498,-0.88221 z"
           id="path12" />
        <path
           style="opacity:1;fill:#1c99e4;fill-opacity:1;stroke-width:0.401894"
           d="m 155.13126,173.68574 c -0.14032,-0.44208 -0.55942,-0.82301 -0.93135,-0.84651 -2.29715,-0.14512 -2.28607,-0.13883 -2.15953,-1.2256 0.082,-0.70394 -0.18333,-1.35395 -0.7791,-1.909 l -0.90337,-0.84162 0.90337,-0.84163 c 0.59577,-0.55504 0.86106,-1.20506 0.7791,-1.90899 -0.10983,-0.94331 0.0291,-1.08213 1.19498,-1.1943 0.76563,-0.0737 1.523,-0.45313 1.80473,-0.90426 0.62037,-0.99337 1.1746,-0.98526 1.80642,0.0264 0.32025,0.5128 0.93723,0.80379 1.70425,0.80379 1.06443,0 1.20228,0.13645 1.20228,1.19003 0,0.70666 0.35727,1.52287 0.87957,2.00947 l 0.87957,0.81945 -0.87957,0.81944 c -0.5223,0.4866 -0.87957,1.30281 -0.87957,2.00947 0,1.0898 -0.11728,1.19003 -1.39249,1.19003 -0.98117,0 -1.51956,0.23743 -1.82266,0.80379 -0.2366,0.44208 -0.59248,0.80379 -0.79085,0.80379 -0.19837,0 -0.47547,-0.36171 -0.61578,-0.80379 z m 2.63008,-3.03562 c 0.77301,-0.93143 0.64261,-3.01552 -0.22855,-3.65252 -1.1512,-0.84179 -2.8681,-0.67545 -3.58443,0.34725 -0.79041,1.12847 -0.79041,1.90784 0,3.03631 0.74735,1.06699 3.01776,1.22714 3.81298,0.26896 z"
           id="path13" />
      </g>
    </g>
  </g>
</svg>
