<?xml version="1.0" encoding="UTF-8" standalone="no"?>
<!-- Created with Inkscape (http://www.inkscape.org/) -->

<svg
   width="210mm"
   height="219.99998mm"
   viewBox="0 0 210 219.99998"
   version="1.1"
   id="svg1"
   xmlns="http://www.w3.org/2000/svg"
   xmlns:svg="http://www.w3.org/2000/svg">
  <defs
     id="defs1" />
  <g
     id="layer1">
    <g
       id="g1">
      <g
         id="g13">
        <path
           d="m 122.53903,56.335319 37.17998,18.483783 V 122.83453 L 122.53903,141.31829 85.359047,122.83453 V 74.819102 Z"
           stroke="#ffffff"
           stroke-width="0.737699"
           stroke-linejoin="round"
           stroke-miterlimit="10"
           fill="#1cade4"
           fill-rule="evenodd"
           id="path1" />
        <path
           d="m 42.646332,56.335319 36.95867,18.483783 V 122.83453 L 42.646332,141.31829 5.6876612,122.83453 V 74.819102 Z"
           stroke="#ffffff"
           stroke-width="0.737699"
           stroke-linejoin="round"
           stroke-miterlimit="10"
           fill="#1cade4"
           fill-rule="evenodd"
           id="path2" />
        <path
           d="M 82.482025,128.48235 119.4407,146.96611 V 194.9814 L 82.482025,213.46516 45.523354,194.9814 v -48.01529 z"
           stroke="#ffffff"
           stroke-width="0.737699"
           stroke-linejoin="round"
           stroke-miterlimit="10"
           fill="#1cade4"
           fill-rule="evenodd"
           id="path3"
           style="fill:#1c99e4;fill-opacity:1" />
        <path
           d="m 162.37472,128.48235 37.17998,18.48376 v 48.01529 l -37.17998,18.48376 -37.17998,-18.48376 v -48.01529 z"
           stroke="#ffffff"
           stroke-width="0.737699"
           stroke-linejoin="round"
           stroke-miterlimit="10"
           fill="#1cade4"
           fill-rule="evenodd"
           id="path4" />
        <path
           d="M 45.839451,103.443 H 22.601844 V 88.098908 H 45.839451 Z M 46.807655,85.221885 H 21.633609 c -1.065055,0 -1.936464,0.863107 -1.936464,1.918 v 17.262135 c 0,1.05489 0.871409,1.918 1.936464,1.918 h 9.682346 v 2.87702 h -4.357049 v 2.87702 h 14.523496 v -2.87702 h -4.357048 v -2.87702 h 9.682301 c 1.065086,0 1.936496,-0.86311 1.936496,-1.918 V 87.139885 c 0,-1.054893 -0.87141,-1.918 -1.936496,-1.918 z"
           stroke="#000000"
           stroke-width="0.481803"
           id="path1-8"
           style="fill:#ffffff" />
        <path
           d="m 62.299399,90.016908 h -9.682346 v -2.877023 h 9.682346 z m 0,4.795022 h -9.682346 v -2.877022 h 9.682346 z m -4.841151,14.38511 c -0.823013,0 -1.452349,-0.62334 -1.452349,-1.43851 0,-0.81513 0.629336,-1.43851 1.452349,-1.43851 0.822969,0 1.45235,0.62338 1.45235,1.43851 0,0.81517 -0.629381,1.43851 -1.45235,1.43851 z m 4.841151,-23.975155 h -9.682346 c -1.065041,0 -1.936451,0.863107 -1.936451,1.918 v 23.016175 c 0,1.0549 0.87141,1.918 1.936451,1.918 h 9.682346 c 1.065041,0 1.936317,-0.8631 1.936317,-1.918 V 87.139885 c 0,-1.054893 -0.871276,-1.918 -1.936317,-1.918 z"
           stroke="#000000"
           stroke-width="0.481803"
           id="path2-7"
           style="fill:#ffffff" />
        <path
           d="m 162.04365,156.69702 c -1.12403,0 -2.0526,0.94609 -2.0526,2.09138 0,1.14528 0.92857,2.09137 2.0526,2.09137 1.12408,0 2.05265,-0.94609 2.05265,-2.09137 0,-1.14529 -0.92857,-2.09138 -2.05265,-2.09138 z"
           stroke="#000000"
           stroke-width="0.493316"
           id="path1-5"
           style="fill:#ffffff" />
        <path
           d="m 157.93841,168.89673 c 0,1.15503 -0.91901,2.09138 -2.05265,2.09138 -1.13368,0 -2.05269,-0.93635 -2.05269,-2.09138 0,-1.15507 0.91901,-2.09138 2.05269,-2.09138 1.13364,0 2.05265,0.93631 2.05265,2.09138 z"
           stroke="#000000"
           stroke-width="0.493316"
           id="path2-2"
           style="fill:#ffffff" />
        <path
           d="m 167.85949,159.48551 -1.22181,0.59753 c -0.0977,0.39835 -0.29323,0.74695 -0.48874,1.0955 l 0.43988,1.29465 -0.97744,0.99588 -1.27071,-0.44813 c -0.3421,0.19919 -0.6842,0.34855 -1.07517,0.44813 l -0.58647,1.19512 h -1.36844 l -0.58647,-1.24491 c -0.39097,-0.0996 -0.73307,-0.24893 -1.07521,-0.44813 l -1.27067,0.44813 -0.97744,-0.99588 0.43983,-1.29465 c -0.1955,-0.3486 -0.3421,-0.69715 -0.43983,-1.09549 l -1.22185,-0.59754 v -1.39427 l 1.22185,-0.59753 c 0.0977,-0.39835 0.24433,-0.7469 0.43983,-1.09546 l -0.39096,-1.29469 0.97743,-0.99588 1.27067,0.44813 c 0.34215,-0.19915 0.68425,-0.34856 1.07521,-0.44813 l 0.58647,-1.24486 h 1.36845 l 0.58647,1.19507 c 0.39096,0.0996 0.73306,0.24898 1.07521,0.44813 l 1.27067,-0.44813 0.97743,0.99588 -0.43983,1.29465 c 0.19546,0.3486 0.3421,0.69716 0.43983,1.0955 l 1.22181,0.59753 z m -6.15794,10.10833 -1.2218,0.59754 c -0.0977,0.39834 -0.24437,0.7469 -0.43983,1.0955 l 0.39096,1.29465 -0.97743,0.99587 -1.27072,-0.44813 c -0.3421,0.19915 -0.6842,0.34856 -1.07516,0.44813 l -0.53761,1.19508 h -1.36844 l -0.58647,-1.24486 c -0.39097,-0.0996 -0.73307,-0.24898 -1.07517,-0.44813 l -1.27071,0.39834 -0.97744,-0.99588 0.43983,-1.29469 c -0.19546,-0.34856 -0.3421,-0.69711 -0.43983,-1.09546 l -1.2218,-0.59753 V 168.1 l 1.2218,-0.59754 c 0.0977,-0.39834 0.24437,-0.74689 0.43983,-1.0955 l -0.43983,-1.29464 0.97744,-0.99588 1.27071,0.44813 c 0.3421,-0.1992 0.6842,-0.34856 1.07517,-0.44813 l 0.58647,-1.24491 h 1.41731 l 0.58647,1.24491 c 0.39096,0.0996 0.73311,0.24893 1.07521,0.44813 l 1.27067,-0.44813 0.97743,0.99588 -0.43983,1.29464 c 0.19546,0.34861 0.3421,0.69716 0.43983,1.0955 l 1.22185,0.59754 z m 16.9099,1.8424 -3.37222,-5.97537 v -0.24898 c 0.1955,-5.4774 -2.54134,-10.60625 -7.18424,-13.44457 -4.64289,-2.78849 -10.36095,-2.78849 -15.00385,0 -4.64289,2.78853 -7.37974,7.96717 -7.18428,13.44457 0,4.73051 2.10151,9.16224 5.76697,12.05035 v 12.59806 h 15.44373 v -5.97537 h 2.39474 c 1.56391,0 3.03008,-0.64732 4.10529,-1.74282 1.07521,-1.14529 1.66164,-2.63913 1.66164,-4.23254 v -2.98769 h 2.15042 c 1.27067,-0.1494 2.39474,-1.64324 1.2218,-3.48564 z"
           stroke="#000000"
           stroke-width="0.493316"
           id="path3-9"
           style="fill:#ffffff" />
        <path
           style="opacity:1;fill:#1c99e4;fill-opacity:1;stroke-width:0.401894"
           d="m 64.001692,203.60406 -17.984777,-9.02158 v -23.61247 -23.61247 l 18.185722,-9.09023 18.185725,-9.09023 18.185718,9.09022 18.18573,9.09022 v 23.6125 23.61248 l -18.0835,9.0435 c -9.945929,4.97392 -18.219931,9.03363 -18.386674,9.02157 -0.166743,-0.0121 -8.396319,-4.08164 -18.287944,-9.04351 z M 96.575236,177.6243 c 0.273034,-0.27303 0.482272,-1.58078 0.482272,-3.0142 v -2.53194 l -1.306156,0.006 c -1.511591,0.007 -2.061633,0.30734 -2.440323,1.33194 -0.49925,1.35079 0.134863,2.65677 1.4791,3.04628 l 1.262645,0.36586 -1.306158,0.0363 c -0.876991,0.0243 -1.306158,0.23432 -1.306158,0.63909 0,0.7443 2.418048,0.8373 3.134778,0.12057 z m -33.678754,-2.20523 v -1.07992 l 1.127199,1.07992 c 1.10268,1.05643 2.087957,1.40945 2.087957,0.74809 0,-0.18251 -0.452133,-0.75659 -1.004737,-1.27574 -1.26492,-1.18833 -1.256779,-1.50146 0.07519,-2.89174 0.884111,-0.92282 0.95349,-1.1272 0.38262,-1.1272 -0.383522,0 -1.135052,0.49734 -1.670069,1.10521 l -0.972759,1.10521 -0.0127,-1.10521 c -0.0081,-0.70884 -0.228907,-1.10521 -0.615543,-1.10521 -0.478446,0 -0.602842,0.58051 -0.602842,2.81326 0,2.23275 0.124396,2.81326 0.602842,2.81326 0.386295,0 0.602843,-0.38792 0.602842,-1.07993 z m 4.822732,-0.48465 c 0,-0.97151 0.21362,-1.64655 0.56355,-1.78083 0.819343,-0.31441 1.044027,0.074 1.044027,1.80482 0,1.12454 0.168476,1.54059 0.623845,1.54059 0.50007,0 0.599744,-0.41862 0.50237,-2.10995 l -0.121478,-2.10994 -1.70805,-0.12358 -1.708052,-0.12359 v 2.23353 c 0,1.22844 0.180851,2.23353 0.401894,2.23353 0.221041,0 0.401894,-0.70406 0.401894,-1.56458 z m 7.153722,1.08231 c 0.26525,-0.26525 0.482272,-1.04292 0.482272,-1.72815 0,-1.52023 -0.627441,-2.21042 -2.00947,-2.21042 -0.57471,0 -1.261949,0.21702 -1.527199,0.48227 -0.622972,0.62298 -0.622972,2.83332 0,3.4563 0.621697,0.62169 2.432698,0.62169 3.054397,0 z m 3.433271,-0.82389 0.541935,-1.30615 0.294936,1.30615 c 0.414566,1.83593 1.32075,1.63832 1.843006,-0.40189 0.240474,-0.93943 0.513048,-1.93412 0.605718,-2.21042 0.09267,-0.2763 -0.09194,-0.50237 -0.410247,-0.50237 -0.318304,0 -0.735793,0.58777 -0.927753,1.30616 l -0.349015,1.30615 -0.297248,-1.30615 c -0.352068,-1.54704 -1.319221,-1.72266 -1.675231,-0.3042 -0.283422,1.12924 -0.969521,0.97221 -0.969521,-0.22189 0,-0.44883 -0.274481,-0.78007 -0.646411,-0.78007 -0.496506,0 -0.5852,0.24388 -0.382468,1.05162 0.145166,0.5784 0.368231,1.57309 0.495699,2.21042 0.308084,1.54042 1.205566,1.46995 1.8766,-0.14736 z m 5.086892,-1.70805 c 0,-2.41137 -0.120571,-3.01421 -0.602843,-3.01421 -0.482274,0 -0.602842,0.60284 -0.602842,3.01421 0,2.41137 0.120568,3.01421 0.602842,3.01421 0.482272,0 0.602843,-0.60284 0.602843,-3.01421 z m 4.738812,2.2685 c 0.135572,-0.4122 -0.11021,-0.4812 -1.0101,-0.28355 -0.83216,0.18277 -1.343956,0.0748 -1.704411,-0.3595 -0.450329,-0.54261 -0.306684,-0.62071 1.141645,-0.62071 1.714997,0 1.94977,-0.30919 1.240753,-1.634 -0.471519,-0.88104 -2.356448,-1.05928 -3.120639,-0.2951 -0.631319,0.63133 -0.619659,2.83664 0.01839,3.47467 0.642411,0.64241 3.199421,0.4326 3.434376,-0.28181 z m 4.504759,-2.2685 c 0,-2.41137 -0.120568,-3.01421 -0.602843,-3.01421 -0.33491,0 -0.60284,0.35724 -0.60284,0.80379 0,0.57081 -0.26793,0.80379 -0.924359,0.80379 -1.22656,0 -1.888902,0.72128 -1.888902,2.05698 0,1.99006 0.356335,2.36386 2.253419,2.36386 h 1.765525 z m 9.24357,2.45258 c 0,-0.37436 -0.42123,-0.54186 -1.26333,-0.50237 -0.696365,0.0327 -1.342675,-0.16619 -1.440124,-0.4431 -0.120113,-0.34132 0.284879,-0.50237 1.263334,-0.50237 1.14089,0 1.44012,-0.15679 1.44012,-0.75458 0,-1.06582 -0.96498,-1.73704 -2.27919,-1.58536 -1.418148,0.16369 -2.115118,1.79927 -1.418362,3.32848 0.385895,0.84695 0.740593,1.02093 2.081362,1.02093 1.11597,0 1.61619,-0.17383 1.61619,-0.56163 z m -27.32882,-7.07436 c 0,-0.57081 0.26793,-0.80379 0.924356,-0.80379 1.265251,0 1.888906,-0.72981 1.888906,-2.21042 0,-1.64383 -0.638705,-2.21042 -2.491746,-2.21042 h -1.527198 v 3.01421 c 0,2.41136 0.120568,3.0142 0.602839,3.0142 0.334913,0 0.602843,-0.35724 0.602843,-0.80378 z m -13.743823,-1.6824 c 0.112154,-0.59161 -0.02365,-0.62024 -1.069523,-0.22547 -1.503328,0.56744 -2.468115,-0.10068 -2.468115,-1.70918 0,-1.59644 0.966367,-2.27603 2.443586,-1.71844 1.042122,0.39335 1.173464,0.35687 1.173464,-0.32595 0,-0.76034 -0.715534,-0.98745 -2.612314,-0.82915 -1.908082,0.15924 -2.83646,3.00657 -1.569894,4.81485 0.521994,0.74525 0.948997,0.89195 2.307426,0.79274 1.182227,-0.0863 1.704255,-0.31878 1.79537,-0.7994 z m 4.017978,0.39633 c 0.26525,-0.26525 0.482272,-1.04291 0.482272,-1.72814 0,-1.54025 -0.62933,-2.21042 -2.075709,-2.21042 -1.683645,0 -2.689059,2.71047 -1.460961,3.93856 0.621697,0.6217 2.432699,0.6217 3.054398,0 z m 2.491745,-1.0823 c 0,-0.97939 0.213037,-1.64633 0.569582,-1.78315 0.665173,-0.25525 1.037995,0.52593 1.037995,2.17491 0,0.64505 0.180853,1.17282 0.401894,1.17282 0.221043,0 0.401897,-0.70406 0.401897,-1.56458 0,-0.97151 0.213616,-1.64655 0.563549,-1.78084 0.81934,-0.31441 1.044027,0.074 1.044027,1.80482 0,1.10149 0.171826,1.5406 0.602843,1.5406 0.442261,0 0.601202,-0.45498 0.596685,-1.70805 -0.0034,-0.93943 -0.139289,-1.91729 -0.302016,-2.17301 -0.17657,-0.27749 -1.470427,-0.47595 -3.208999,-0.49223 l -2.913139,-0.0273 v 2.20028 c 0,1.68787 0.14039,2.20028 0.60284,2.20028 0.432625,0 0.602842,-0.44177 0.602842,-1.56458 z m 14.4682,-0.64584 c 0,-1.21573 -0.180853,-2.21042 -0.401894,-2.21042 -0.221041,0 -0.401894,0.72341 -0.401894,1.60758 0,0.88416 -0.07564,1.60757 -0.16808,1.60757 -0.09244,0 -0.454146,0.10978 -0.803788,0.24395 -0.522994,0.20069 -0.635712,-0.0844 -0.635712,-1.60758 0,-1.37787 -0.154217,-1.85152 -0.60284,-1.85152 -0.45271,0 -0.602842,0.48376 -0.602842,1.94249 0,1.06837 0.120568,2.06305 0.26793,2.21042 0.14736,0.14736 0.961197,0.26793 1.808525,0.26793 h 1.540595 z m 3.61705,1.80852 c 0,-0.22104 -0.271278,-0.40189 -0.602843,-0.40189 -0.421031,0 -0.60284,-0.42422 -0.60284,-1.40663 0,-0.98241 0.181809,-1.40663 0.60284,-1.40663 0.331565,0 0.602843,-0.18086 0.602843,-0.4019 0,-0.22104 -0.206129,-0.40189 -0.458063,-0.40189 -0.251933,0 -0.689279,-0.31621 -0.971875,-0.70269 -0.282599,-0.38647 -0.657516,-0.55898 -0.833152,-0.38334 -0.343236,0.34324 -0.273656,4.57696 0.08475,5.15688 0.3003,0.4859 2.178339,0.44114 2.178339,-0.0519 z m 3.939474,-1.70805 -0.121476,-2.10994 -1.708052,-0.12359 c -1.375397,-0.0995 -1.708052,0.007 -1.708052,0.54594 0,0.50898 0.235008,0.61054 0.980104,0.42353 0.539062,-0.1353 1.092292,-0.0645 1.229405,0.15738 0.141507,0.22896 -0.186746,0.40337 -0.759188,0.40337 -1.134697,0 -1.844923,0.94579 -1.551844,2.06655 0.15327,0.5861 0.578688,0.74671 1.977924,0.74671 h 1.782657 z m 3.69652,1.75493 c 0,-0.19527 -0.361704,-0.44961 -0.803789,-0.56522 -0.585279,-0.15305 -0.803788,-0.54819 -0.803788,-1.4535 0,-0.97538 0.173212,-1.24331 0.803788,-1.24331 0.442085,0 0.803789,-0.18086 0.803789,-0.4019 0,-0.22104 -0.361704,-0.40189 -0.803789,-0.40189 -0.446547,0 -0.803788,-0.26793 -0.803788,-0.60284 0,-0.33157 -0.27128,-0.60285 -0.602842,-0.60285 -0.794541,0 -0.911794,1.29872 -0.390054,4.32037 0.19477,1.12802 0.387482,1.30616 1.412999,1.30616 0.653111,0 1.187474,-0.15976 1.187474,-0.35502 z m 1.205685,-1.8554 c 0,-1.21573 -0.180854,-2.21042 -0.401894,-2.21042 -0.221044,0 -0.401897,0.99469 -0.401897,2.21042 0,1.21573 0.180853,2.21042 0.401897,2.21042 0.22104,0 0.401894,-0.99469 0.401894,-2.21042 z m 4.869267,1.10521 c 0.659159,-1.7 -0.277283,-3.11468 -2.061739,-3.11468 -1.14,0 -1.448504,0.19039 -1.764528,1.08901 -0.625236,1.77785 0.227211,3.13088 1.972538,3.13088 1.182939,0 1.498036,-0.18787 1.853729,-1.10521 z m 1.962934,-0.45937 c 0,-0.97151 0.21362,-1.64655 0.56355,-1.78084 0.81934,-0.31441 1.04403,0.074 1.04403,1.80482 0,1.10149 0.17183,1.5406 0.60284,1.5406 0.4424,0 0.60284,-0.45995 0.60284,-1.72815 0,-2.1264 -0.52403,-2.69269 -2.49174,-2.69269 h -1.527201 v 2.21042 c 0,1.69689 0.140051,2.21042 0.602841,2.21042 0.43262,0 0.60284,-0.44177 0.60284,-1.56458 z m 7.15463,-0.54537 -0.12147,-2.10994 -1.70806,-0.12359 c -1.37539,-0.0995 -1.70805,0.007 -1.70805,0.54594 0,0.50898 0.23501,0.61054 0.98011,0.42353 0.53906,-0.1353 1.09229,-0.0645 1.2294,0.15738 0.14165,0.22919 -0.18867,0.40337 -0.76502,0.40337 -1.12329,0 -1.98665,1.1763 -1.601,2.1813 0.17021,0.44353 0.77518,0.63196 2.02904,0.63196 h 1.78653 z m 2.08894,-0.90426 c 0,-2.41137 -0.12056,-3.01421 -0.60283,-3.01421 -0.48228,0 -0.60285,0.60284 -0.60285,3.01421 0,2.41137 0.12057,3.01421 0.60285,3.01421 0.48227,0 0.60283,-0.60284 0.60283,-3.01421 z m -15.673877,-2.21042 c 0,-0.22104 -0.27128,-0.4019 -0.602843,-0.4019 -0.331562,0 -0.602842,0.18086 -0.602842,0.4019 0,0.22104 0.27128,0.40189 0.602842,0.40189 0.331563,0 0.602843,-0.18085 0.602843,-0.40189 z"
           id="path5" />
        <path
           style="opacity:1;fill:#1c99e4;fill-opacity:1;stroke-width:0.401894"
           d="m 143.77774,203.58977 -18.18572,-9.00613 2.6e-4,-23.61099 2.6e-4,-23.611 18.38714,-9.06049 18.38714,-9.06049 18.38593,9.045 18.38592,9.045 v 23.64408 23.64409 l -18.34359,9.02533 c -10.08897,4.96393 -18.4534,9.00877 -18.58761,8.98854 -0.13422,-0.0202 -8.42761,-4.08956 -18.42976,-9.04294 z m 23.6113,-16.44057 v -3.01421 h 2.06251 c 3.76335,0 5.78429,-2.0728 6.23618,-6.39625 0.24524,-2.34633 0.30097,-2.44542 1.37532,-2.44542 1.39756,0 2.38282,-0.94694 2.38282,-2.29013 0,-0.56486 -0.76862,-2.40568 -1.70805,-4.09071 -1.22183,-2.19156 -1.83906,-3.88522 -2.16827,-5.94969 -0.61391,-3.84987 -2.08977,-6.93678 -4.43814,-9.28278 -7.17178,-7.16454 -19.43357,-5.28629 -23.82622,3.64969 -3.15931,6.42699 -2.18473,13.99465 2.41229,18.73156 l 1.59578,1.64434 v 6.22891 6.2289 h 8.03789 8.03789 z"
           id="path7" />
        <path
           style="opacity:1;fill:#1c99e4;fill-opacity:1;stroke-width:0.401894"
           d="M 24.415088,131.53855 6.2293639,122.44833 V 98.834264 75.220321 l 18.1886491,-9.0917 18.18865,-9.091702 18.182799,9.093155 18.182796,9.093158 v 23.61248 23.612598 l -18.185722,9.09023 -18.185725,9.09023 z m 17.582883,-20.9503 v -2.00948 h -2.210422 c -2.089851,0 -2.210419,-0.0548 -2.210419,-1.00474 v -1.00475 h 5.092509 c 4.174644,0 5.224979,-0.11988 5.827469,-0.66513 0.67165,-0.60783 0.734963,-1.46562 0.734963,-9.957969 0,-7.760261 -0.10318,-9.440111 -0.625631,-10.186019 L 47.980808,84.86695 H 34.18745 c -12.331701,0 -13.85181,0.07032 -14.344938,0.66363 -0.785654,0.945261 -1.000264,18.36928 -0.244282,19.83302 0.508926,0.98538 0.6213,1.0069 5.83281,1.11688 l 5.313884,0.11214 v 0.97207 c 0,0.8893 -0.179657,0.98242 -2.109946,1.09355 -2.070867,0.11923 -2.11233,0.14637 -2.238735,1.4659 -0.242638,2.53286 -0.433181,2.4736 7.953118,2.4736 h 7.64861 z m 21.612873,1.38385 c 0.891288,-0.62428 0.893215,-0.65328 0.893215,-13.449388 0,-12.267089 -0.03374,-12.84175 -0.777367,-13.239729 -1.126726,-0.603004 -12.19467,-0.545758 -12.806664,0.06624 -0.354846,0.354846 -0.482275,3.853124 -0.482275,13.239731 0,15.419996 -0.708504,14.008786 7.033154,14.008786 4.098245,0 5.442244,-0.13695 6.139937,-0.62564 z"
           id="path8" />
        <path
           style="opacity:1;fill:#1c99e4;fill-opacity:1;stroke-width:0.401894"
           d="M 23.108931,95.7181 V 88.484 h 11.052097 11.052099 v 7.2341 7.23411 H 34.161028 23.108931 Z"
           id="path9" />
        <path
           style="opacity:1;fill:#1c99e4;fill-opacity:1;stroke-width:0.401894"
           d="m 53.251015,88.684946 v -1.004734 h 4.219892 4.21989 v 1.004734 1.004736 h -4.21989 -4.219892 z"
           id="path10" />
        <path
           style="opacity:1;fill:#1c99e4;fill-opacity:1;stroke-width:0.401894"
           d="m 53.251015,93.507681 v -1.004737 h 4.219892 4.21989 v 1.004737 1.004736 h -4.21989 -4.219892 z"
           id="path11" />
        <path
           style="opacity:1;fill:#1c99e4;fill-opacity:1;stroke-width:0.401894"
           d="m 160.85213,163.19687 c -0.50044,-0.54769 -1.00362,-0.70258 -1.70805,-0.52578 -0.92316,0.2317 -0.99862,0.14278 -0.99862,-1.17677 0,-1.01569 -0.25539,-1.6063 -0.88542,-2.04759 l -0.88543,-0.62018 0.88543,-0.8249 c 0.52757,-0.4915 0.88542,-1.30587 0.88542,-2.01492 0,-1.05085 0.13919,-1.19003 1.19003,-1.19003 0.70685,0 1.52292,-0.35731 2.0099,-0.88002 0.77577,-0.83269 0.84792,-0.84166 1.34144,-0.16673 0.28687,0.39232 1.13012,0.83777 1.87388,0.98988 1.13436,0.232 1.36033,0.46019 1.40217,1.4159 0.0274,0.62663 0.35954,1.36576 0.73802,1.6425 0.89929,0.65758 0.86808,1.08661 -0.14198,1.95144 -0.54622,0.46769 -0.78675,1.08237 -0.70331,1.79737 0.11495,0.98512 -0.003,1.09302 -1.26204,1.15537 -0.76386,0.0378 -1.59763,0.35431 -1.85283,0.70331 -0.58955,0.80625 -1.00284,0.76055 -1.88861,-0.20885 z m 3.30921,-3.27602 c 0.55258,-0.99241 0.55258,-1.218 0,-2.21042 -0.68659,-1.23311 -2.8178,-1.72394 -3.83171,-0.88247 -0.83602,0.69384 -0.74806,3.45298 0.12673,3.9751 1.25474,0.74891 3.03248,0.32561 3.70498,-0.88221 z"
           id="path12" />
        <path
           style="opacity:1;fill:#1c99e4;fill-opacity:1;stroke-width:0.401894"
           d="m 155.13126,173.68574 c -0.14032,-0.44208 -0.55942,-0.82301 -0.93135,-0.84651 -2.29715,-0.14512 -2.28607,-0.13883 -2.15953,-1.2256 0.082,-0.70394 -0.18333,-1.35395 -0.7791,-1.909 l -0.90337,-0.84162 0.90337,-0.84163 c 0.59577,-0.55504 0.86106,-1.20506 0.7791,-1.90899 -0.10983,-0.94331 0.0291,-1.08213 1.19498,-1.1943 0.76563,-0.0737 1.523,-0.45313 1.80473,-0.90426 0.62037,-0.99337 1.1746,-0.98526 1.80642,0.0264 0.32025,0.5128 0.93723,0.80379 1.70425,0.80379 1.06443,0 1.20228,0.13645 1.20228,1.19003 0,0.70666 0.35727,1.52287 0.87957,2.00947 l 0.87957,0.81945 -0.87957,0.81944 c -0.5223,0.4866 -0.87957,1.30281 -0.87957,2.00947 0,1.0898 -0.11728,1.19003 -1.39249,1.19003 -0.98117,0 -1.51956,0.23743 -1.82266,0.80379 -0.2366,0.44208 -0.59248,0.80379 -0.79085,0.80379 -0.19837,0 -0.47547,-0.36171 -0.61578,-0.80379 z m 2.63008,-3.03562 c 0.77301,-0.93143 0.64261,-3.01552 -0.22855,-3.65252 -1.1512,-0.84179 -2.8681,-0.67545 -3.58443,0.34725 -0.79041,1.12847 -0.79041,1.90784 0,3.03631 0.74735,1.06699 3.01776,1.22714 3.81298,0.26896 z"
           id="path13" />
        <path
           style="opacity:1;fill:#1c99e4;fill-opacity:1;stroke-width:1.51897"
           d="M 242.65564,769.66108 173.9222,735.19766 v -89.24957 -89.24955 l 68.7445,-34.36234 68.7445,-34.36233 68.72239,34.36783 68.72239,34.36783 v 89.6127 89.61269 l -68.3471,34.18016 c -37.5909,18.79908 -68.52096,34.14173 -68.73345,34.09478 -0.21249,-0.047 -31.31639,-15.59391 -69.11979,-34.54878 z"
           id="path14"
           transform="scale(0.26458333)" />
        <path
           style="opacity:1;fill:#1c99e4;fill-opacity:1;stroke-width:1.51897"
           d="m 392.2743,496.61732 -67.97396,-34.0973 v -88.85324 -88.85322 l 69.49303,-34.75295 69.49302,-34.75294 69.49283,34.75299 69.49284,34.75299 v 88.96526 88.96528 l -68.9142,34.06811 c -37.90281,18.73746 -69.85816,34.03081 -71.0119,33.98523 -1.15373,-0.0456 -32.68598,-15.42667 -70.07166,-34.18021 z"
           id="path18"
           transform="scale(0.26458333)" />
        <text
           xml:space="preserve"
           style="font-size:9.87778px;opacity:1;fill:#ffffff;fill-opacity:1;stroke-width:0.264583"
           x="122.19171"
           y="96.454674"
           id="text18"><tspan
             id="tspan18"
             style="font-size:9.87778px;text-align:center;text-anchor:middle;fill:#ffffff;stroke-width:0.264583"
             x="122.19171"
             y="96.454674">Computational</tspan><tspan
             style="font-size:9.87778px;text-align:center;text-anchor:middle;fill:#ffffff;stroke-width:0.264583"
             x="122.19171"
             y="108.8019"
             id="tspan19">Infrastructure</tspan></text>
        <text
           xml:space="preserve"
           style="font-size:9.87778px;fill:#ffffff;fill-opacity:1;stroke-width:0.264583"
           x="81.996666"
           y="168.69238"
           id="text18-4"><tspan
             id="tspan18-0"
             style="font-size:9.87778px;text-align:center;text-anchor:middle;fill:#ffffff;stroke-width:0.264583"
             x="81.996666"
             y="168.69238">Computational</tspan><tspan
             style="font-size:9.87778px;text-align:center;text-anchor:middle;fill:#ffffff;stroke-width:0.264583"
             x="81.996666"
             y="181.03961"
             id="tspan19-9">Knowledge</tspan></text>
      </g>
    </g>
  </g>
</svg>
