<svg version="1.1" viewBox="0.0 0.0 315.005249343832 360.6771653543307" fill="none" stroke="none" stroke-linecap="square" stroke-miterlimit="10" xmlns:xlink="http://www.w3.org/1999/xlink" xmlns="http://www.w3.org/2000/svg"><clipPath id="p.0"><path d="m0 0l315.00525 0l0 360.67715l-315.00525 0l0 -360.67715z" clip-rule="nonzero"/></clipPath><g clip-path="url(#p.0)"><path fill="#000000" fill-opacity="0.0" d="m0 0l315.00525 0l0 360.67715l-315.00525 0z" fill-rule="evenodd"/><path fill="#ffffff" d="m10.494932 169.21494l0 0c19.090788 -81.28588 100.46215 -131.70496 181.74803 -112.614174l0 0c39.03485 9.167717 72.82909 33.46649 93.94835 67.55086c21.119232 34.08436 27.833527 75.162315 18.665833 114.19717l0 0c-19.09079 81.28589 -100.46216 131.70496 -181.74805 112.61417l0 0c-81.28588 -19.09079 -131.70496 -100.46214 -112.614174 -181.74802z" fill-rule="evenodd"/><path stroke="#0180c9" stroke-width="8.0" stroke-linejoin="round" stroke-linecap="butt" d="m10.494932 169.21494l0 0c19.090788 -81.28588 100.46215 -131.70496 181.74803 -112.614174l0 0c39.03485 9.167717 72.82909 33.46649 93.94835 67.55086c21.119232 34.08436 27.833527 75.162315 18.665833 114.19717l0 0c-19.09079 81.28589 -100.46216 131.70496 -181.74805 112.61417l0 0c-81.28588 -19.09079 -131.70496 -100.46214 -112.614174 -181.74802z" fill-rule="evenodd"/><path fill="#0180c9" d="m284.3182 242.00093l0 0c-16.893494 55.959976 -68.51285 94.19777 -126.96698 94.05269c-58.454132 -0.14505005 -109.88306 -38.63861 -126.49857 -94.68173l126.82688 -37.60132z" fill-rule="evenodd"/><path stroke="#0180c9" stroke-width="8.0" stroke-linejoin="round" stroke-linecap="butt" d="m284.3182 242.00093l0 0c-16.893494 55.959976 -68.51285 94.19777 -126.96698 94.05269c-58.454132 -0.14505005 -109.88306 -38.63861 -126.49857 -94.68173l126.82688 -37.60132z" fill-rule="evenodd"/><path fill="#0180c9" d="m293.19788 53.5338l0 0c1.782959 -4.9053345 7.204895 -7.436512 12.1102295 -5.6535454l0 0c2.3556213 0.8562126 4.2746277 2.613121 5.3348694 4.8842316c1.0602722 2.2711105 1.1748962 4.870384 0.31866455 7.2260056l0 0c-1.782959 4.9053307 -7.204895 7.436512 -12.1102295 5.6535454l0 0c-4.9053345 -1.7829666 -7.436493 -7.2049065 -5.653534 -12.110237z" fill-rule="evenodd"/><path stroke="#0180c9" stroke-width="1.0" stroke-linejoin="round" stroke-linecap="butt" d="m293.19788 53.5338l0 0c1.782959 -4.9053345 7.204895 -7.436512 12.1102295 -5.6535454l0 0c2.3556213 0.8562126 4.2746277 2.613121 5.3348694 4.8842316c1.0602722 2.2711105 1.1748962 4.870384 0.31866455 7.2260056l0 0c-1.782959 4.9053307 -7.204895 7.436512 -12.1102295 5.6535454l0 0c-4.9053345 -1.7829666 -7.436493 -7.2049065 -5.653534 -12.110237z" fill-rule="evenodd"/><path fill="#0180c9" d="m257.10703 12.341404l0 0c2.8701477 -7.8450527 11.556519 -11.8780155 19.40158 -9.0078745l0 0c3.767334 1.3782904 6.8328247 4.1966944 8.522125 7.8351955c1.689331 3.6385012 1.8640442 7.7990522 0.4857483 11.566379l0 0c-2.8701477 7.8450527 -11.556519 11.878017 -19.40158 9.007875l0 0c-7.8450317 -2.870142 -11.878006 -11.556522 -9.007874 -19.401575z" fill-rule="evenodd"/><path stroke="#0180c9" stroke-width="1.0" stroke-linejoin="round" stroke-linecap="butt" d="m257.10703 12.341404l0 0c2.8701477 -7.8450527 11.556519 -11.8780155 19.40158 -9.0078745l0 0c3.767334 1.3782904 6.8328247 4.1966944 8.522125 7.8351955c1.689331 3.6385012 1.8640442 7.7990522 0.4857483 11.566379l0 0c-2.8701477 7.8450527 -11.556519 11.878017 -19.40158 9.007875l0 0c-7.8450317 -2.870142 -11.878006 -11.556522 -9.007874 -19.401575z" fill-rule="evenodd"/><path fill="#0180c9" d="m273.61047 42.361794l0 0c1.0784912 -2.9397202 4.3358765 -4.448559 7.2756042 -3.370079l0 0c1.4117126 0.5179024 2.559845 1.5753899 3.191864 2.939827c0.63201904 1.3644409 0.69610596 2.9240608 0.17822266 4.335762l0 0c-1.0784912 2.9397202 -4.3358765 4.448555 -7.2756042 3.370079l0 0c-2.9397278 -1.078476 -4.4485474 -4.335869 -3.3700867 -7.275589z" fill-rule="evenodd"/><path stroke="#0180c9" stroke-width="1.0" stroke-linejoin="round" stroke-linecap="butt" d="m273.61047 42.361794l0 0c1.0784912 -2.9397202 4.3358765 -4.448559 7.2756042 -3.370079l0 0c1.4117126 0.5179024 2.559845 1.5753899 3.191864 2.939827c0.63201904 1.3644409 0.69610596 2.9240608 0.17822266 4.335762l0 0c-1.0784912 2.9397202 -4.3358765 4.448555 -7.2756042 3.370079l0 0c-2.9397278 -1.078476 -4.4485474 -4.335869 -3.3700867 -7.275589z" fill-rule="evenodd"/><path fill="#ffffff" d="m255.1195 48.15815l27.62204 21.133858l-18.519684 24.283463l-27.62204 -21.133858z" fill-rule="evenodd"/><path stroke="#0180c9" stroke-width="8.0" stroke-linejoin="round" stroke-linecap="butt" d="m255.1195 48.15815l27.62204 21.133858l-18.519684 24.283463l-27.62204 -21.133858z" fill-rule="evenodd"/><path fill="#ffffff" d="m255.07481 45.727894l29.96904 22.578686l0 0c3.926056 2.9578705 5.0654297 8.067795 2.5449219 11.413338c-2.5204773 3.345543 -7.7464294 3.659813 -11.672455 0.70194244l-29.96907 -22.57869l0 0c-3.9260254 -2.9578667 -5.0654297 -8.067791 -2.5449219 -11.413334c2.5205078 -3.345539 7.74646 -3.659809 11.672485 -0.70194244z" fill-rule="evenodd"/><path stroke="#0180c9" stroke-width="8.0" stroke-linejoin="round" stroke-linecap="butt" d="m255.07481 45.727894l29.96904 22.578686l0 0c3.926056 2.9578705 5.0654297 8.067795 2.5449219 11.413338c-2.5204773 3.345543 -7.7464294 3.659813 -11.672455 0.70194244l-29.96907 -22.57869l0 0c-3.9260254 -2.9578667 -5.0654297 -8.067791 -2.5449219 -11.413334c2.5205078 -3.345539 7.74646 -3.659809 11.672485 -0.70194244z" fill-rule="evenodd"/><path fill="#ffffff" d="m256.1716 53.546833l21.763794 17.165356l-30.425201 38.708664l-21.763779 -17.16536z" fill-rule="evenodd"/><path fill="#ffffff" d="m25.380577 185.60892l266.36218 0l0 55.874023l-266.36218 0z" fill-rule="evenodd"/><path stroke="#ffffff" stroke-width="1.0" stroke-linejoin="round" stroke-linecap="butt" d="m25.380577 185.60892l266.36218 0l0 55.874023l-266.36218 0z" fill-rule="evenodd"/><path fill="#0180c9" d="m93.879745 183.4559c-0.026535034 0 -0.056610107 0.008453369 -0.0884552 0.025375366c-0.13798523 0.075286865 -0.19724274 0.24531555 -0.118522644 0.3586731c0.09464264 0.14888 0.17513275 0.22163391 0.23439789 0.22163391c0.07695007 0 0.12117767 -0.12011719 0.12117767 -0.35359192c0 -0.15988159 -0.058380127 -0.25209045 -0.14859772 -0.25209045zm-0.30073547 1.1369324c-0.31842804 0 -0.5545883 0.746109 -0.45906067 1.475296c0.03980255 0.37728882 -0.11853027 0.49064636 -0.76953125 0.5473175c-0.6713486 0.075286865 -0.77040863 0.13197327 -0.51390076 0.4153595c0.1583252 0.18864441 0.53336334 0.34005737 0.8491287 0.34005737c0.315773 0 0.6510086 0.113357544 0.75006866 0.24533081c0.062805176 0.12095642 0.16452026 0.18103027 0.25297546 0.18103027c0.022109985 0 0.04334259 -0.0033874512 0.06279755 -0.011001587c0.07872009 -0.0566864 0.5130234 -0.24531555 0.967659 -0.4153595c0.47322083 -0.20809937 0.7898712 -0.51008606 0.7898712 -0.75541687c0 -0.26730347 -0.1238327 -0.41619873 -0.27773285 -0.41619873c-0.10702515 0 -0.22909546 0.072753906 -0.3343506 0.22755432c-0.107910156 0.16073608 -0.2140503 0.23602295 -0.3060379 0.23602295c-0.17778778 0 -0.30604553 -0.27999878 -0.30604553 -0.76472473c-0.020339966 -0.83070374 -0.19724274 -1.2079926 -0.6713486 -1.3027344c-0.011497498 -0.0016937256 -0.022994995 -0.002532959 -0.034492493 -0.002532959zm-20.77282 15.767319c0.13798523 0 0.25650787 0.09474182 0.25650787 0.22671509c0 0.13195801 -0.059265137 0.24531555 -0.118522644 0.24531555c-0.059265137 0 -0.17778778 -0.113357544 -0.2565155 -0.24531555c-0.07872009 -0.13197327 -0.03980255 -0.22671509 0.11853027 -0.22671509zm111.17373 12.705048c-0.038909912 0 -0.068984985 0.18864441 -0.068984985 0.51179504c0 0.31637573 0.029190063 0.50416565 0.066329956 0.50416565c0.016815186 0 0.034500122 -0.034683228 0.05218506 -0.10827637c0.059265137 -0.22671509 0.059265137 -0.5853882 0 -0.8112488c-0.016799927 -0.065979004 -0.034484863 -0.09643555 -0.04953003 -0.09643555zm2.9940796 -5.6076813c-8.8500977E-4 0 -0.0017700195 0 -0.003540039 0.0016937256c-0.07872009 0.056671143 -0.1972351 1.7561493 -0.2759552 3.7576294c-0.09907532 2.0006256 -0.19725037 3.7948456 -0.2565155 3.9648743c-0.059265137 0.17004395 -0.059265137 0.4153595 0.019454956 0.52871704c0.08137512 0.1260376 0.15214539 0.19540405 0.21229553 0.19540405c0.24676514 0 0.3325653 -1.1513062 0.38034058 -4.273651c0.019454956 -2.3144684 -0.018585205 -4.1746674 -0.07608032 -4.1746674zm-2.9914246 7.4365845c-0.031845093 0 -0.05218506 0.29016113 -0.05218506 0.796875c0 0.5075531 0.020339966 0.79771423 0.05218506 0.79771423c0.014160156 0 0.029190063 -0.05076599 0.046875 -0.1556549c0.059265137 -0.34007263 0.059265137 -0.92544556 0 -1.2841339c-0.017684937 -0.104888916 -0.032714844 -0.15480042 -0.046875 -0.15480042zm-0.014144897 2.3203888c-0.04689026 0 -0.07696533 0.13366699 -0.07696533 0.3645935c0 0.23094177 0.030075073 0.36460876 0.07696533 0.36460876c0.018569946 0 0.038909912 -0.020309448 0.061019897 -0.06260681c0.059265137 -0.17002869 0.059265137 -0.43395996 0 -0.60398865c-0.022109985 -0.042297363 -0.04244995 -0.06260681 -0.061019897 -0.06260681zm-102.79208 -2.6942902c0.15833282 0 0.27597046 0.20809937 0.27597046 0.47203064c0 0.24617004 0.118522644 0.47203064 0.23705292 0.47203064c0.13798523 0 0.25650787 -0.11250305 0.25650787 -0.24531555c0 -0.14634705 0.26358032 -0.22163391 0.58112335 -0.22163391c0.29719543 0 0.6412735 0.065979004 0.86063385 0.20301819c0.23705292 0.13195801 0.25650787 0.24531555 0.059265137 0.3586731c-0.13887024 0.09474182 -0.27685547 0.32061768 -0.27685547 0.52871704c0 0.16410828 0.023880005 0.24446106 0.09198761 0.24446106c0.058380127 0 0.14771271 -0.056671143 0.2830429 -0.1691742c0.17071533 -0.13366699 0.30693054 -0.19372559 0.4042282 -0.19372559c0.21759033 0 0.23616028 0.3028412 -0.008850098 0.76049805c-0.17778778 0.32060242 -0.25739288 0.69873047 -0.1583252 0.83070374c0.09906769 0.15057373 0.03980255 0.43395996 -0.118522644 0.62260437c-0.2122879 0.2427826 -0.4511032 0.3518982 -0.68107605 0.3518982c-0.54132843 0 -1.0366516 -0.6031494 -1.0366516 -1.5032196c0 -0.34005737 -0.15744781 -0.75541687 -0.35469055 -0.944046c-0.4740982 -0.45343018 -0.77041626 -1.5675201 -0.4148407 -1.5675201zm4.993088 3.5478363c0.28835297 0 0.71203613 0.23347473 0.71203613 0.45510864c0 0.13197327 -0.15744781 0.24533081 -0.35557556 0.24533081c-0.3944931 0 -0.76953125 -0.43397522 -0.5528259 -0.6420746c0.04776764 -0.040603638 0.116760254 -0.05836487 0.19636536 -0.05836487zm97.814026 0.74949646c-0.032730103 0 -0.05307007 0.23432922 -0.05307007 0.64967346c0 0.414505 0.020339966 0.6581421 0.05218506 0.6581421c0.014160156 0 0.029190063 -0.04145813 0.046875 -0.12942505c0.059265137 -0.28338623 0.059265137 -0.7740326 0 -1.0574188c-0.017684937 -0.08206177 -0.032714844 -0.12097168 -0.04598999 -0.12097168zm3.1347198 -17.918518c0.49887085 0 0.59173584 0.11250305 0.6421509 0.59384155c0.17779541 1.4727631 0.059265137 2.1715088 -0.51301575 2.9455261c-0.43429565 0.6040039 -0.43429565 0.6987457 -0.09906006 1.0574188c0.3361206 0.3586731 0.37503052 1.8500519 0.39537048 11.384552c0.015930176 8.228378 -0.07783508 11.535965 -0.3644104 11.535965c-0.055725098 0 -0.11853027 -0.12350464 -0.18840027 -0.3586731c-0.0796051 -0.24531555 -0.11853027 -1.2646637 -0.0796051 -2.2840118c0.020339966 -1.0202026 -0.07872009 -1.8695068 -0.21670532 -1.9447937c-0.13798523 -0.0566864 -0.11853027 -0.17004395 0.059249878 -0.24533081c0.43429565 -0.18948364 0.39450073 -1.0388031 -0.059249878 -1.0388031c-0.29632568 0 -0.3352356 0.4153595 -0.29632568 2.4735107c0.03981018 1.3594055 -0.019454956 2.66214 -0.118515015 2.888855c-0.003540039 0.011001587 -0.007965088 0.016067505 -0.011505127 0.016067505c-0.07695007 0 -0.16629028 -2.023468 -0.16629028 -4.661072c-0.018569946 -2.717987 0.056610107 -4.8928833 0.13356018 -4.8928833c0.0017700195 0 0.003540039 8.544922E-4 0.0053100586 0.0033874512c0.09819031 0.075286865 0.19725037 0.9246063 0.21670532 1.8686676c0.04069519 1.4558411 0.07254028 1.9989319 0.17160034 1.9989319c0.04510498 0 0.10348511 -0.11166382 0.18397522 -0.29945374c0.29808044 -0.62345886 0.31489563 -1.9024963 0.05041504 -1.9024963c-0.015914917 0 -0.032714844 0.005065918 -0.05041504 0.014373779c-0.04067993 0.03215027 -0.08137512 0.046524048 -0.116744995 0.046524048c-0.069000244 0 -0.12030029 -0.054138184 -0.12030029 -0.14126587c0 -0.13197327 0.11853027 -0.24531555 0.23704529 -0.24531555c0.35557556 0 0.31578064 -1.0379639 -0.059265137 -1.4160919c-0.14859009 -0.15396118 -0.20431519 -0.22587585 -0.16627502 -0.22587585c0.022109985 0 0.07783508 0.025390625 0.16627502 0.075302124c0.03981018 0.021987915 0.07519531 0.033828735 0.10702515 0.033828735c0.1539154 0 0.2087555 -0.28085327 0.2087555 -0.9406738c0 -0.8112488 -0.09907532 -1.0760193 -0.37503052 -1.0760193c-0.31578064 0 -0.35557556 0.17002869 -0.23706055 0.7934723c0.09907532 0.47203064 0.059265137 0.8679352 -0.09817505 0.962677c-0.003540039 0.0016937256 -0.0061950684 0.002532959 -0.008850098 0.002532959c-0.15301514 0 -0.24855042 -2.4413605 -0.26800537 -7.5922394c-0.019454956 -4.2482605 -0.059265137 -8.0997925 -0.07872009 -8.553207c-0.03981018 -0.75541687 0 -0.8121033 0.8093262 -0.8679352c0.115875244 -0.00592041 0.21670532 -0.009292603 0.30516052 -0.009292603zm-33.17459 -25.328049c-0.77041626 0 -1.914978 0.9059906 -1.914978 1.528595c0 0.22671509 -0.21759033 0.3586731 -0.5722809 0.3586731c-0.4148407 0 -0.6713562 0.22671509 -0.9676666 0.88739014c-0.37503052 0.8687744 -0.4935608 1.3221893 -0.92785645 3.3608856c-0.51301575 2.454895 -0.8491211 3.1527863 -1.5991974 3.34227c-0.37503052 0.09390259 -0.7898712 0.30200195 -0.88804626 0.47203064c-0.3361206 0.52871704 -0.51390076 4.5308075 -0.29631042 7.249634l0.1972351 2.6807556l-0.67134094 0.22671509c-0.4537506 0.15142822 -0.7102661 0.4153595 -0.7306061 0.73680115c-0.019470215 0.282547 -0.09819031 6.0983276 -0.1769104 12.914001l-0.1583252 12.385284l-1.0463867 0.075286865c-0.10525513 0.0067749023 -0.20431519 0.0101623535 -0.29808044 0.0101623535c-0.45021057 0 -0.748291 -0.0736084 -0.748291 -0.19880676c0 -0.13195801 -0.27597046 -0.24531555 -0.61209106 -0.24531555c-0.4935608 0 -0.63153076 -0.113357544 -0.63153076 -0.5473175c0 -0.28338623 -0.11853027 -0.6420593 -0.2565155 -0.79348755c-0.1583252 -0.15057373 -0.29631042 -1.3966217 -0.31576538 -2.9827576c-0.03981018 -2.360138 -0.09907532 -2.7754974 -0.4935608 -3.0588837c-0.37504578 -0.26393127 -0.47410583 -0.7173462 -0.5528259 -2.9260712c-0.07872009 -2.454895 -0.059265137 -2.624939 0.39448547 -2.737442c0.45465088 -0.113357544 0.4935608 -0.34005737 0.4935608 -3.4361725c0 -1.8128357 -0.07872009 -3.4742432 -0.15744019 -3.6823425c-0.0884552 -0.22079468 -0.1671753 -0.32991028 -0.23704529 -0.32991028c-0.22821045 0 -0.35557556 1.1665344 -0.35557556 3.4074097c0 1.9447937 -0.07872009 3.1722412 -0.23704529 3.1722412c-0.15745544 0 -0.2565155 -1.0574188 -0.2565155 -2.66214c-0.019454956 -3.776245 -0.19725037 -4.4935913 -1.4806824 -5.6076813c-0.70407104 -0.62345886 -1.257782 -0.93052673 -1.7911377 -0.93052673c-0.46791077 0 -0.91989136 0.23686218 -1.4461823 0.70381165c-0.4537506 0.39674377 -1.1251068 0.9068451 -1.5001373 1.11409c-0.47409058 0.28338623 -0.6907959 0.5853882 -0.6907959 1.0193481c0 0.34007263 -0.09907532 0.9440613 -0.2574005 1.3221893c-0.13798523 0.39590454 -0.27597046 2.8694 -0.29542542 5.531555c-0.055725098 4.123062 -0.09376526 4.746521 -0.4068756 4.746521c-0.021224976 0 -0.04335022 -0.002532959 -0.067230225 -0.0076141357c-0.038909912 -0.0050811768 -0.07518005 -0.008453369 -0.109680176 -0.008453369c-0.43518066 0 -0.5165558 0.5177002 -0.699646 3.3879547c-0.23704529 3.4742432 -0.37503052 4.134918 -0.8685913 4.134918c-0.39450073 0 -0.43429565 -0.88739014 -0.47410583 -13.008743c-0.038909912 -7.154892 -0.09817505 -13.121246 -0.15744019 -13.272675c-0.17955017 -0.42887878 -0.5413208 -0.6505127 -1.0056915 -0.6505127c-0.25120544 0 -0.53248596 0.06512451 -0.8305588 0.19793701c-0.36088562 0.1725769 -0.56697845 0.26223755 -0.7182312 0.26223755c-0.16275024 0 -0.2626953 -0.10404968 -0.42633057 -0.3189087c-0.17778778 -0.24617004 -0.35557556 -0.92544556 -0.37592316 -1.5294495c-0.058372498 -1.6994781 -0.07872009 -1.8500519 -0.27596283 -2.0395355c-0.09906769 -0.09390259 -0.17778778 -0.39590454 -0.17778778 -0.66067505c0 -0.26393127 -0.23705292 -1.2841187 -0.5130234 -2.2654114c-0.49355316 -1.7561493 -0.75006866 -2.8702393 -1.2047043 -5.550995c-0.13798523 -0.7740326 -0.35469055 -1.8314514 -0.45375824 -2.3601532l-0.21670532 -0.9440613l-0.13887024 0.7173462c-0.09818268 0.3781433 -0.29542542 1.7180939 -0.43429565 2.9455414c-0.15744019 1.2274475 -0.3944931 2.7188263 -0.51301575 3.3042145c-0.13798523 0.5853729 -0.4148407 1.8128204 -0.61208344 2.718811c-0.37503815 1.642807 -1.1649094 3.5309296 -1.599205 3.776245c-0.13798523 0.075286865 -0.23705292 0.5659332 -0.23705292 1.0760193c0 0.66067505 -0.09817505 0.9254608 -0.37503052 0.9254608c-0.19725037 0 -0.37503815 -0.113357544 -0.37503815 -0.22671509c0 -0.1328125 -0.09817505 -0.24531555 -0.23704529 -0.24531555c-0.13798523 0 -0.25650787 0.15057373 -0.25650787 0.33921814c0 0.17002869 -0.25650787 0.37812805 -0.5722809 0.45341492c-0.7898712 0.18864441 -0.8880539 0.6792908 -0.8880539 4.1154633l-0.020347595 2.888855l-1.7761002 -0.15057373c-0.9871216 -0.07614136 -2.329811 -0.20809937 -2.980812 -0.3214569c-0.2600479 -0.04145813 -0.49179077 -0.06260681 -0.6969986 -0.06260681c-0.8093338 0 -1.1985168 0.32907104 -1.1985168 1.0066681c0 0.22669983 -0.19725037 0.4914856 -0.43429565 0.56677246c-0.3944931 0.113357544 -0.43430328 0.5287018 -0.35557556 5.1161957c0.03980255 2.756897 -0.019462585 5.0789795 -0.11853027 5.192322c-0.070755005 0.05583191 -0.35822296 0.09220886 -0.74741364 0.09220886c-0.26270294 0 -0.5722809 -0.016067505 -0.8907013 -0.054138184c-1.4019623 -0.1328125 -1.4417648 -0.15141296 -1.283432 -0.75541687c0.4740982 -1.7933807 0.4537506 -1.8314362 -0.27597046 -1.9634094c-0.23174286 -0.04399109 -0.41571808 -0.06851196 -0.5607834 -0.06851196c-0.42633057 0 -0.52539825 0.21316528 -0.52539825 0.8044739c0 0.88739014 -0.4740982 1.4160919 -1.3426971 1.4913788l-0.75006866 0.07614136l-0.17778778 -1.8881226c-0.07872009 -1.0388031 -0.09817505 -2.076767 -0.03891754 -2.2848663c0.059265137 -0.22671509 0.13798523 -4.2288055 0.17778778 -8.892426l0.03891754 -8.4965515l-0.61208344 -0.113342285c-0.053955078 -0.009307861 -0.114097595 -0.014389038 -0.17778778 -0.014389038c-0.653656 0 -1.7124176 0.4914856 -1.4603271 0.73257446c0.020339966 0.019454956 0.05218506 0.028762817 0.0911026 0.028762817c0.109680176 0 0.27685547 -0.07359314 0.42191315 -0.1987915c0.033607483 -0.026229858 0.063682556 -0.042297363 0.09198761 -0.042297363c0.25473785 0 0.30516052 1.2883606 0.32284546 7.632004c0 4.3235474 0.059265137 11.025864 0.11853027 14.896851l0.09818268 7.022934l-2.230751 0l-0.03891754 -5.267624c-0.03980255 -5.2862244 -0.059265137 -6.041641 -0.13887024 -8.967728c-0.059257507 -1.4160919 -0.117637634 -1.5861206 -0.5519333 -1.5861206c-0.4148407 0 -0.4935608 -0.17002869 -0.53336334 -1.0007324l-0.03980255 -1.0007324l-0.17778778 1.0574036c-0.013267517 0.082901 -0.026535034 0.12350464 -0.03891754 0.12350464c-0.0796051 0 -0.1353302 -1.5717316 -0.118522644 -4.013092c0.019454956 -2.8321838 -0.07872772 -5.4562683 -0.23705292 -6.135544l-0.25650787 -1.1893768l-0.19725037 0.9998932c-0.13887024 0.75541687 -0.315773 1.0201874 -0.651886 1.0201874c-0.29631042 0 -0.45375824 -0.17002869 -0.41483307 -0.4153595c0.020339966 -0.22669983 0 -1.0201874 -0.019462585 -1.7375336l-0.03980255 -1.3213501l-0.7297287 0.113357544c-0.16805267 0.022842407 -0.29896545 0.03807068 -0.40068054 0.03807068c-0.315773 0 -0.34938812 -0.14720154 -0.34938812 -0.66152954c0 -0.5092468 0.11764526 -0.7359619 0.37503815 -0.7359619c0.19724274 0 0.37503052 -0.17002869 0.37503052 -0.3586731c0 -0.18695068 -0.068992615 -0.26730347 -0.2582779 -0.26730347c-0.09729004 0 -0.2264328 0.021148682 -0.3936081 0.0592041c-0.14328766 0.032989502 -0.26712036 0.0499115 -0.37680054 0.0499115c-0.26447296 0 -0.44226074 -0.099823 -0.6103134 -0.31384277c-0.14859772 -0.19709778 -0.25739288 -0.2859192 -0.37592316 -0.2859192c-0.08667755 0 -0.17867279 0.04737854 -0.29542542 0.13450623c-0.13090515 0.10066223 -0.33346558 0.15988159 -0.52275085 0.15988159c-0.09552765 0 -0.18751526 -0.0152282715 -0.26623535 -0.046524048c-0.114990234 -0.042297363 -0.19901276 -0.06599426 -0.25562286 -0.06599426c-0.11764526 0 -0.114990234 0.10067749 -0.021232605 0.33076477c0.09906769 0.22671509 0.059265137 1.0760193 -0.09818268 1.8686676c-0.1583252 0.7934723 -0.29631042 1.7561493 -0.33611298 2.152893c-0.03980255 0.37728882 -0.07872009 0.83070374 -0.09818268 1.0007324c-0.020339966 0.16918945 -0.21759033 0.30200195 -0.41483307 0.30200195c-0.45464325 0 -0.45464325 -0.3214569 0.019454956 -1.5489044c0.26358795 -0.72073364 0.36707306 -1.0396423 0.30693054 -1.0396423c-0.03980255 0 -0.14771271 0.13449097 -0.3263855 0.3789673c-0.8685913 1.208847 -1.1843643 3.1722565 -1.3621521 8.930511c-0.11853027 3.4556274 -0.3361206 6.495056 -0.5926285 7.77919c-0.21670532 1.1699219 -0.4537506 3.8134613 -0.53247833 5.890213c-0.059257507 2.0581512 -0.17778778 3.8329163 -0.23704529 3.9462738c-0.04334259 0.051605225 -0.14064026 0.08036804 -0.2582779 0.08036804c-0.09729767 0 -0.20786285 -0.019454956 -0.314003 -0.06175232c-0.61208344 -0.22671509 -2.5075989 -1.8695068 -2.5075989 -2.1901245c0 -0.13195801 -0.27597046 -0.66067505 -0.651001 -1.1707611c-0.43430328 -0.6420746 -0.8296814 -0.9440613 -1.2047119 -0.9440613c-0.9473114 0 -1.8362503 -0.43395996 -1.8362503 -0.88739014c0 -0.62260437 -0.4935608 -1.0007324 -1.282547 -1.0007324c-0.82967377 0 -0.8685913 0.15142822 -0.17778778 0.8501587c0.4732132 0.49064636 0.4935608 0.62260437 0.23705292 1.8500519c-0.315773 1.3780212 -0.21759033 1.7933807 0.37503052 1.7933807c0.37503815 0 0.45375824 0.6615143 0.19725037 1.6047363c-0.08314514 0.27069092 -0.23616791 0.43310547 -0.38830566 0.43310547c-0.028305054 0 -0.057495117 -0.005065918 -0.08580017 -0.01776123c-0.023880005 -0.0076141357 -0.04776001 -0.011001587 -0.069869995 -0.011001587c-0.19548035 0 -0.31754303 0.30116272 -0.42368317 1.011734c-0.19725037 1.4355469 -0.29631805 1.6994781 -0.59174347 1.6994781c-0.17778778 0 -0.25650787 -1.906723 -0.25650787 -5.5882263c0 -3.0199738 -0.07607269 -5.42157 -0.17247772 -5.42157c-0.0017700195 0 -0.003540039 8.392334E-4 -0.0053100586 0.002532959c-0.118522644 0.09474182 -0.19813538 2.5868683 -0.19813538 5.5323944l0 5.342911l-1.5195923 0.075286865l-1.5204773 0.075286865l-0.07872772 -6.41893c-0.059257507 -4.890335 -0.15744019 -6.4570007 -0.3944931 -6.5322876c-0.17778778 -0.056671143 -0.31576538 -0.45341492 -0.31576538 -0.90682983c0 -0.88739014 -0.69169617 -1.7367096 -1.4417648 -1.7367096c-0.651001 0 -0.7306061 -0.17002869 -0.51301575 -1.11409c0.118522644 -0.5287018 0.4935608 -1.0760193 0.967659 -1.4346924c0.4139557 -0.30200195 0.75006866 -0.66067505 0.75006866 -0.7926483c0 -0.113342285 -0.3953781 -0.4347992 -0.8685913 -0.7181854c-0.92785645 -0.5092621 -1.1843643 -1.4347076 -0.47410583 -1.6986389c0.47410583 -0.18864441 0.21759796 -0.6234436 -0.35556793 -0.6234436c-0.23705292 0 -0.59174347 -0.26393127 -0.76953125 -0.5853882c-0.17778778 -0.32060242 -0.43429565 -0.5853882 -0.53336334 -0.5853882c-0.118522644 0 -0.21670532 -0.282547 -0.21670532 -0.60398865c0 -0.43481445 -0.053955078 -0.56340027 -0.40333557 -0.56340027c-0.07518768 0 -0.16363525 0.00592041 -0.268013 0.016082764c-0.51301575 0.056671143 -0.6908035 0.22669983 -0.75006866 0.6792755c-0.059257507 0.3214569 -0.21759033 0.68013 -0.37503052 0.8121033c-0.1583252 0.13195801 -0.43429565 0.5473175 -0.61208344 0.92544556c-0.25650787 0.5659332 -0.25650787 0.7359619 0 0.9059906c0.14417267 0.10321045 0.19282532 0.15057373 0.13798523 0.15057373c-0.03538513 0 -0.113220215 -0.019454956 -0.23705292 -0.05583191c-0.072525024 -0.022842407 -0.14151764 -0.033828735 -0.20786285 -0.033828735c-0.38652802 0 -0.67222595 0.37982178 -0.8579788 1.1851501c-0.09906006 0.39672852 -0.3944931 0.92544556 -0.6315384 1.1707611c-0.61208344 0.66067505 -0.967659 1.642807 -0.967659 2.6993713c0 0.56677246 -0.15744781 1.0388031 -0.4148407 1.2274475c-0.21670532 0.18864441 -0.6315384 0.812088 -0.92785645 1.3974762c-0.4732132 0.962677 -0.51301575 1.5666656 -0.59173584 6.8909607l-0.07872009 5.852997l-0.6518898 0.13197327c-3.5336342 0.73680115 -5.1921005 2.530182 -5.5865936 6.079712c-0.1459465 1.2020721 -0.24147415 1.5362091 -0.5183258 1.5362091c-0.023880005 0 -0.047763824 -0.002532959 -0.07429886 -0.0067596436c-0.37503433 -0.075302124 -0.41395187 -0.68013 -0.45375443 -5.98497c-0.039806366 -7.8164062 -0.23705292 -10.723877 -0.7306099 -11.252594c-0.21670532 -0.22669983 -0.76952744 -0.5287018 -1.2241669 -0.6606598c-0.75006866 -0.24617004 -0.84825134 -0.3781433 -0.8685951 -1.1335602c-0.059261322 -1.5852661 -0.09818268 -2.0386963 -0.315773 -3.7381744c-0.2370491 -1.8881073 -0.3157692 -1.9633942 -2.3881874 -1.9633942c-0.61208344 0 -1.2241669 -0.113357544 -1.3824959 -0.24533081c-0.109680176 -0.10997009 -0.24058914 -0.1590271 -0.3723793 -0.1590271c-0.34319305 0 -0.6934624 0.331604 -0.6934624 0.78163147c0 0.62345886 0.47410202 0.56677246 -6.7913017 0.68013c-1.0852966 0.018615723 -2.2900047 0.17004395 -2.665039 0.32061768c-0.44579697 0.17256165 -0.85974884 0.25801086 -1.1542931 0.25801086c-0.31842422 0 -0.496212 -0.099823 -0.42456818 -0.2952423c0.047763824 -0.13703918 0.29808426 -0.22416687 0.70230484 -0.22416687c0.09906769 0 0.20697784 0.0050811768 0.32373428 0.016067505c0.19017029 0.0152282715 0.34053802 0.022842407 0.45817566 0.022842407c0.33346558 0 0.38918686 -0.06767273 0.27243042 -0.24954224c-0.118522644 -0.18864441 -0.21670532 -0.43397522 -0.21670532 -0.5659332c0 -0.13195801 -0.118522644 -0.22671509 -0.25739288 -0.24531555c-0.13798523 0 -0.49267578 -0.1328125 -0.80933 -0.30200195c-0.22289658 -0.12097168 -0.5165558 -0.18441772 -0.75979996 -0.18441772c-0.09994888 0 -0.1919365 0.011001587 -0.26623535 0.032989502c-0.3953781 0.113357544 -0.47410202 0.35868835 -0.43429947 1.6047363c0.01945877 0.79348755 -0.059261322 1.6808624 -0.1583252 1.9634094c-0.12471771 0.3595276 -0.77041245 0.68096924 -1.1401405 0.68096924c-0.15478897 0 -0.26093292 -0.05583191 -0.26093292 -0.18948364c0 -0.119277954 -0.017688751 -0.17764282 -0.05130005 -0.17764282c-0.110565186 0 -0.39803314 0.63275146 -0.83763504 1.8195953c-0.37503433 1.0574188 -0.8287926 1.8128357 -1.3223495 2.2095795l-0.7306099 0.5853882l-0.059261322 6.7023163c-0.059265137 6.909561 -0.11852646 7.3443756 -1.0853004 7.3443756c-0.29631233 0 -0.35557365 1.5480499 -0.35557365 10.497162l0 10.497177l252.45367 0l-0.059265137 -17.161423l-0.05923462 -17.181717l-0.57229614 -1.0007477c-0.29632568 -0.56591797 -0.6713562 -1.6800079 -0.8491211 -2.5107117l-0.29632568 -1.4913788l-1.815918 -0.17004395c-0.4281006 -0.03805542 -0.78808594 -0.060897827 -1.0914917 -0.060897827c-1.3630371 0 -1.5929871 0.47203064 -1.7707825 2.2324066c-0.13800049 1.1893768 -0.37503052 1.8881226 -1.0269165 2.9260864l-0.8685913 1.3407898l0 3.5867615l0 3.5875854l-0.8491516 -0.15141296c-0.47320557 -0.09390259 -1.2436218 -0.32060242 -1.7168274 -0.5092468l-0.8685913 -0.34007263l0 -1.7180786c0 -1.0574188 -0.1388855 -1.8881226 -0.3361206 -2.1715088c-0.17779541 -0.26393127 -0.41397095 -0.7740326 -0.4935608 -1.1327057c-0.09817505 -0.34007263 -0.27597046 -0.6420593 -0.41394043 -0.6420593c-0.1388855 0 -0.23706055 -0.26393127 -0.23706055 -0.5659332c0 -0.55662537 -0.89071655 -1.4253998 -1.3586121 -1.4253998c-0.07254028 0 -0.13446045 0.020309448 -0.18133545 0.06599426c-0.11853027 0.113342285 -0.27685547 2.699356 -0.3555603 5.7201843c-0.07873535 3.0402832 -0.23706055 5.7396545 -0.3352356 6.004425c-0.13269043 0.3476715 -0.32019043 0.44410706 -1.257782 0.44410706c-0.18222046 0 -0.39361572 -0.0042266846 -0.63772583 -0.010147095c-1.9344482 -0.018615723 -2.2900085 -0.15057373 -2.2900085 -0.79263306c0 -0.49656677 -0.82525635 -0.6869049 -3.3841553 -0.6869049c-0.55636597 0 -1.1958618 0.009307861 -1.9264832 0.026229858l-3.197525 0.075286865l-0.13885498 1.4160919l-0.11853027 1.4160919l-4.441147 0l-0.059265137 -9.043854c-0.039794922 -7.797806 0 -9.043869 0.31576538 -9.157211c0.19725037 -0.075302124 0.35557556 -0.35868835 0.35557556 -0.6226196c0 -0.2427826 -0.068099976 -0.35612488 -0.20343018 -0.35612488c-0.04335022 0 -0.09465027 0.01184082 -0.15214539 0.034683228c-0.023880005 0.008453369 -0.04510498 0.012680054 -0.06544495 0.012680054c-0.27597046 0 -0.30958557 -0.7917938 -0.30958557 -4.656845c0 -2.6240845 -0.0796051 -5.0223083 -0.1583252 -5.324295c-0.11853027 -0.4153595 -0.03892517 -0.56677246 0.37503052 -0.66067505c0.631546 -0.17002869 0.6713562 -0.5101013 0.11853027 -0.9068451c-0.35557556 -0.24531555 -0.43429565 -0.79263306 -0.47322083 -3.1527863c-0.020339966 -1.8881226 -0.13887024 -2.9827576 -0.35557556 -3.2094574c-0.21759033 -0.24533081 -0.21759033 -0.35868835 -0.039794922 -0.35868835c0.1583252 0 0.27685547 -0.22669983 0.27685547 -0.47201538c0 -0.26478577 -0.11853027 -0.47203064 -0.2574005 -0.47203064c-0.13798523 0 -0.19725037 -0.20809937 -0.11764526 -0.45343018c0.08580017 -0.25968933 0.067230225 -0.36120605 -0.12913513 -0.36120605c-0.07518005 0 -0.17512512 0.014373779 -0.30516052 0.040603638c-0.05836487 0.010147095 -0.117630005 0.016067505 -0.17689514 0.016067505c-0.36354065 0 -0.75891113 -0.20132446 -1.284317 -0.63952637c-0.47410583 -0.41534424 -1.0463867 -0.7359619 -1.263092 -0.7359619c-0.59262085 0 -0.67134094 -0.3586731 -0.2768402 -1.2646637c0.31576538 -0.73680115 0.31576538 -0.96351624 0.019454956 -1.6427917c-0.49267578 -1.1521606 -1.6602325 -1.7874603 -3.190445 -1.7874603c-0.12472534 0 -0.25297546 0.0042266846 -0.3821106 0.0126953125c-2.6853943 0.18864441 -3.948471 1.7180786 -4.007736 4.9275513c-0.025650024 0.89837646 -0.05130005 1.296814 -0.1026001 1.296814c-0.028305054 0 -0.065460205 -0.12350464 -0.114990234 -0.3527527c-0.08491516 -0.39759827 -0.1353302 -0.5862427 -0.1671753 -0.5862427c-0.027420044 0 -0.04067993 0.13705444 -0.04953003 0.39759827c-0.019454956 0.34005737 -0.1583252 0.9059906 -0.3361206 1.2646637c-0.25650024 0.5287018 -0.23616028 0.66067505 0.17779541 0.9440613c0.25650024 0.18864441 0.39537048 0.34005737 0.29631042 0.3586731c-0.09906006 0.019454956 -0.27597046 0.03807068 -0.39450073 0.0566864c-0.47409058 0.075286865 -0.5333557 0.39672852 -0.51390076 2.7754974c0 1.340805 -0.07872009 4.0215607 -0.15744019 5.9477386l-0.1583252 3.492859l-0.5722809 -0.1328125c-0.1583252 -0.03552246 -0.39627075 -0.054138184 -0.6607361 -0.054138184c-0.29631042 0 -0.627121 0.02368164 -0.91812134 0.07359314l-0.9871216 0.15057373l0 3.2661438l0 3.2855988l-2.9224396 0c-1.934433 0 -3.0002747 0.09390259 -3.1975098 0.28338623c-0.23706055 0.20726013 -0.2565155 3.171402 -0.13887024 12.7439575l0.1583252 12.460587l-0.5722809 0.5853729c-0.653656 0.6742096 -2.3395386 1.247757 -3.5203705 1.247757c-0.17514038 0 -0.3396454 -0.0126953125 -0.48736572 -0.038909912c-1.0463867 -0.1894989 -3.0798798 -1.8314514 -3.1780548 -2.5682526c-0.056610107 -0.3383789 -0.21759033 -0.49232483 -0.5183258 -0.49232483c-0.017700195 0 -0.03627014 8.392334E-4 -0.054840088 0.0016784668c-0.04423523 0.0050811768 -0.08403015 0.009307861 -0.1211853 0.009307861c-0.35557556 0 -0.36795044 -0.3426056 -0.33258057 -2.8414764c0.019470215 -1.5861206 0.11853027 -3.7381744 0.21759033 -4.7769775c0.11764526 -1.3399658 0.07872009 -1.9634094 -0.09906006 -2.0953827c-0.35557556 -0.18862915 -0.37503052 -1.2274475 -0.03981018 -1.4346924c0.35557556 -0.20809937 0.29632568 -1.0007324 -0.059249878 -1.11409c-0.23617554 -0.075286865 -0.19725037 -0.34007263 0.1583252 -0.98213196c0.37503052 -0.66067505 0.43429565 -0.98127747 0.23704529 -1.2832794c-0.1583252 -0.20809937 -0.19725037 -0.60398865 -0.0796051 -0.8687744c0.09906006 -0.24531555 0.11853027 -0.812088 0.059265137 -1.2274475c-0.08668518 -0.51516724 -0.20433044 -0.7088928 -0.50064087 -0.7088928c-0.04067993 0 -0.08403015 0.0042419434 -0.13090515 0.011001587c-0.025650024 0.0016937256 -0.05041504 0.0033874512 -0.073410034 0.0033874512c-0.36088562 0 -0.52186584 -0.2884674 -0.87390137 -1.4575348c-0.23706055 -0.830719 -0.4935608 -1.5666656 -0.5528259 -1.623352c-0.059265137 -0.056671143 -1.6381226 -0.17002869 -3.5141754 -0.24617004l-3.3956451 -0.13195801l0.1583252 0.92544556c0.09817505 0.5092468 0.4935608 1.5480652 0.90838623 2.303482l0.7500763 1.3966217l0 5.287079l0 5.2676086l-3.0604248 0c-3.3558502 0 -3.4345703 0.037231445 -3.7114258 1.4719238c-0.15744019 0.88739014 -0.17778015 0.88739014 -1.381607 0.88739014c-1.3621521 0 -2.3094635 -0.62260437 -2.586319 -1.7180939c-0.09817505 -0.3586731 -0.27597046 -0.6412201 -0.39448547 -0.6412201c-0.11853027 0 -0.21759033 -6.1177673 -0.21759033 -14.386749c0 -10.516632 -0.07873535 -14.538193 -0.29632568 -14.991608c-0.15744019 -0.33921814 -0.8093262 -0.8873749 -1.4603271 -1.2266083c-0.75006104 -0.37812805 -1.2047119 -0.7934723 -1.263977 -1.11409c-0.038909912 -0.3019867 -0.2759552 -0.5287018 -0.6111908 -0.56677246c-0.45463562 -0.056671143 -0.5731659 -0.22669983 -0.5731659 -0.79263306c0 -1.2274475 -0.37503052 -1.6047363 -1.6186676 -1.6047363c-1.5788574 0 -2.0724182 0.30200195 -2.0724182 1.3027344c0 0.7359619 -0.118515015 0.88739014 -0.8491211 1.1707764c-1.4214172 0.56591797 -3.02063 1.7366943 -3.5336456 2.5487823c-0.25650024 0.4153595 -0.5528259 1.2832794 -0.631546 1.925354c-0.09906006 0.6234436 -0.23704529 1.2088318 -0.31576538 1.2841187c-0.015914917 0.014373779 -0.04244995 0.021148682 -0.07872009 0.021148682c-0.15214539 0 -0.4714508 -0.12181091 -0.7898712 -0.3045349c-0.39361572 -0.21487427 -0.92962646 -0.37898254 -1.236557 -0.37898254c-0.015914917 0 -0.031845093 0 -0.046875 0.0016937256c-0.4148407 0.018615723 -0.45463562 0.056671143 -0.09906006 0.13197327c0.51301575 0.13195801 0.5722809 0.5473175 0.059249878 0.5473175c-0.21670532 0 -0.43429565 -0.018615723 -0.51301575 -0.0566864c-0.007949829 -0.0033874512 -0.017684937 -0.00592041 -0.027420044 -0.00592041c-0.08403015 0 -0.2237854 0.14126587 -0.34761047 0.32737732c-0.21759033 0.39588928 -0.29631042 21.504425 -0.07872009 23.637863c0.058380127 0.6040039 0.019454956 1.1141052 -0.11853027 1.1141052c-0.21759033 0 -0.8685913 -2.4921265 -0.770401 -2.9455414c0.09906006 -0.47203064 0 -1.0574188 -0.19725037 -1.0574188c-0.09907532 0 -0.17779541 0.28338623 -0.19725037 0.6420746c0 0.3586731 -0.020339966 1.1707611 -0.059265137 1.8314362c-0.023880005 0.6843567 -0.04067993 0.962677 -0.13267517 0.962677c-0.061035156 0 -0.15301514 -0.119277954 -0.30162048 -0.32061768c-0.2290802 -0.32060242 -0.38742065 -0.48640442 -0.53689575 -0.48640442c-0.18486023 0 -0.35469055 0.25546265 -0.628006 0.7884064c-0.27243042 0.5473175 -0.50772095 0.81547546 -0.66693115 0.81547546c-0.18574524 0 -0.26712036 -0.36712646 -0.1822052 -1.0802612c0.1583252 -1.3966217 -0.4139557 -5.134796 -0.9075165 -5.814926c-0.21759033 -0.28338623 -0.39537048 -0.6987457 -0.39537048 -0.92544556c0 -0.4153595 -2.0529633 -1.1699219 -4.007736 -1.4913788c-0.51301575 -0.075286865 -0.92785645 -0.26393127 -0.9473114 -0.43395996c0 -0.15142822 -0.019470215 -2.605484 -0.03892517 -5.4757233c-0.017684937 -2.4946594 -0.05041504 -4.2237396 -0.09729004 -4.2237396c-0.007080078 0 -0.014160156 0.03553772 -0.021240234 0.10827637c-0.039794922 0.5853882 -0.23704529 1.1707764 -0.43429565 1.3213501c-0.29631042 0.20809937 -0.37503052 1.0760193 -0.37503052 4.4183044c-0.015914917 2.9514465 -0.13710022 4.387848 -0.39271545 4.387848c-0.07519531 0 -0.16099548 -0.122665405 -0.25917053 -0.36628723c-0.07695007 -0.18441772 -0.121170044 -0.27407837 -0.18043518 -0.27407837c-0.062805176 0 -0.14152527 0.098968506 -0.29367065 0.29267883c-0.17778015 0.22671509 -0.6907959 0.49064636 -1.1445465 0.5667877c-0.80934143 0.17002869 -0.80934143 0.17002869 -0.88894653 1.6614075c-0.058380127 1.246048 -0.13798523 1.5099792 -0.5519409 1.6047211c-0.35557556 0.09390259 -0.47409058 0.32061768 -0.47409058 0.90600586c0 1.3407898 -0.37503052 1.926178 -1.3426971 2.0962067c-0.5722809 0.09390259 -0.88804626 0.282547 -0.88804626 0.5473175c0 0.20726013 -0.17779541 0.5853882 -0.4148407 0.83070374c-0.23704529 0.24533081 -0.47410583 0.9440613 -0.5528259 1.5480652l-0.13798523 1.0954742l-3.1983948 0l0 -14.028076l0 -14.047546l-0.5528259 -1.1513214c-0.5050659 -1.0218811 -0.6403961 -1.2959595 -0.4378357 -1.2959595c0.074295044 0 0.19459534 0.036376953 0.3591156 0.087127686c0.14770508 0.04399109 0.26004028 0.06767273 0.33876038 0.06767273c0.22644043 0 0.17602539 -0.19540405 -0.10171509 -0.6716614c-0.13798523 -0.26393127 -0.4537506 -0.45257568 -0.7111511 -0.45257568c-0.25650024 0 -0.5722809 -0.1328125 -0.67045593 -0.3028412c-0.09907532 -0.16918945 -0.1583252 -2.3973694 -0.11853027 -4.9647827l0.059265137 -4.66362l-0.77041626 -0.2647705c-0.88804626 -0.30200195 -1.3223419 -1.1327057 -1.0852966 -2.1139832c0.11853027 -0.56677246 0.03892517 -0.71736145 -0.45463562 -0.88739014c-0.5917511 -0.22669983 -0.5917511 -0.22669983 -1.3223572 -3.6062012c-0.07872009 -0.3586731 -0.35557556 -0.83070374 -0.6120758 -1.0388031c-0.2565155 -0.22671509 -0.47410583 -0.5659332 -0.47410583 -0.7359619c0 -0.2986145 -0.26712036 -0.47625732 -0.58377075 -0.47625732c-0.18487549 0 -0.38653564 0.060897827 -0.560791 0.1928711c-0.17071533 0.13450623 -0.26535034 0.20048523 -0.29808044 0.20048523c-0.031845093 0 -0.007080078 -0.060913086 0.061035156 -0.18188477c0.29631042 -0.47201538 -0.5528259 -1.226593 -1.381607 -1.226593z" fill-rule="evenodd"/></g></svg>