<?xml version="1.0" encoding="UTF-8" standalone="no"?>
<svg
   version="1.1"
   viewBox="0 0 315.00525 360.67716"
   fill="none"
   stroke="none"
   stroke-linecap="square"
   stroke-miterlimit="10"
   id="svg20"
   width="315.00525"
   height="360.67715"
   xml:space="preserve"
   xmlns="http://www.w3.org/2000/svg"
   xmlns:svg="http://www.w3.org/2000/svg"><defs
     id="defs20" /><clipPath
     id="p.0"><path
       d="M 0,0 H 315.00525 V 360.67715 H 0 Z"
       clip-rule="nonzero"
       id="path1" /></clipPath><g
     clip-path="url(#p.0)"
     id="g20"><path
       fill="#000000"
       fill-opacity="0"
       d="M 0,0 H 315.00525 V 360.67715 H 0 Z"
       fill-rule="evenodd"
       id="path2" /><path
       fill="#ffffff"
       d="m 10.494932,169.21494 v 0 C 29.58572,87.92906 110.95708,37.50998 192.24296,56.600766 v 0 c 39.03485,9.167717 72.82909,33.46649 93.94835,67.550864 21.11923,34.08436 27.83353,75.16231 18.66584,114.19717 v 0 C 285.76636,319.63469 204.39499,370.05376 123.1091,350.96297 v 0 C 41.823215,331.87218 -8.595865,250.50083 10.494921,169.21495 Z"
       fill-rule="evenodd"
       id="path3" /><path
       stroke="#0180c9"
       stroke-width="8"
       stroke-linejoin="round"
       stroke-linecap="butt"
       d="m 10.494932,169.21494 v 0 C 29.58572,87.92906 110.95708,37.50998 192.24296,56.600766 v 0 c 39.03485,9.167717 72.82909,33.46649 93.94835,67.550864 21.11923,34.08436 27.83353,75.16231 18.66584,114.19717 v 0 C 285.76636,319.63469 204.39499,370.05376 123.1091,350.96297 v 0 C 41.823215,331.87218 -8.595865,250.50083 10.494921,169.21495 Z"
       fill-rule="evenodd"
       id="path4" /><path
       fill="#0180c9"
       d="m 284.3182,242.00093 v 0 C 267.42471,297.96091 215.80535,336.1987 157.35122,336.05362 98.897088,335.90857 47.46816,297.41501 30.85265,241.37189 l 126.82688,-37.60132 z"
       fill-rule="evenodd"
       id="path5" /><path
       stroke="#0180c9"
       stroke-width="8"
       stroke-linejoin="round"
       stroke-linecap="butt"
       d="m 284.3182,242.00093 v 0 C 267.42471,297.96091 215.80535,336.1987 157.35122,336.05362 98.897088,335.90857 47.46816,297.41501 30.85265,241.37189 l 126.82688,-37.60132 z"
       fill-rule="evenodd"
       id="path6" /><path
       fill="#0180c9"
       d="m 293.19788,53.5338 v 0 c 1.78296,-4.905335 7.2049,-7.436512 12.11023,-5.653545 v 0 c 2.35562,0.856212 4.27463,2.613121 5.33487,4.884231 1.06027,2.271111 1.1749,4.870384 0.31866,7.226006 v 0 c -1.78296,4.905331 -7.20489,7.436512 -12.11023,5.653545 v 0 c -4.90533,-1.782966 -7.43649,-7.204906 -5.65353,-12.110237 z"
       fill-rule="evenodd"
       id="path7" /><path
       stroke="#0180c9"
       stroke-width="1"
       stroke-linejoin="round"
       stroke-linecap="butt"
       d="m 293.19788,53.5338 v 0 c 1.78296,-4.905335 7.2049,-7.436512 12.11023,-5.653545 v 0 c 2.35562,0.856212 4.27463,2.613121 5.33487,4.884231 1.06027,2.271111 1.1749,4.870384 0.31866,7.226006 v 0 c -1.78296,4.905331 -7.20489,7.436512 -12.11023,5.653545 v 0 c -4.90533,-1.782966 -7.43649,-7.204906 -5.65353,-12.110237 z"
       fill-rule="evenodd"
       id="path8" /><path
       fill="#0180c9"
       d="m 257.10703,12.341404 v 0 c 2.87015,-7.8450527 11.55652,-11.8780155 19.40158,-9.0078745 v 0 c 3.76733,1.3782904 6.83282,4.1966944 8.52213,7.8351955 1.68933,3.638501 1.86404,7.799052 0.48574,11.566379 v 0 c -2.87014,7.845053 -11.55652,11.878017 -19.40158,9.007875 v 0 c -7.84503,-2.870142 -11.878,-11.556522 -9.00787,-19.401575 z"
       fill-rule="evenodd"
       id="path9" /><path
       stroke="#0180c9"
       stroke-width="1"
       stroke-linejoin="round"
       stroke-linecap="butt"
       d="m 257.10703,12.341404 v 0 c 2.87015,-7.8450527 11.55652,-11.8780155 19.40158,-9.0078745 v 0 c 3.76733,1.3782904 6.83282,4.1966944 8.52213,7.8351955 1.68933,3.638501 1.86404,7.799052 0.48574,11.566379 v 0 c -2.87014,7.845053 -11.55652,11.878017 -19.40158,9.007875 v 0 c -7.84503,-2.870142 -11.878,-11.556522 -9.00787,-19.401575 z"
       fill-rule="evenodd"
       id="path10" /><path
       fill="#0180c9"
       d="m 273.61047,42.361794 v 0 c 1.07849,-2.93972 4.33588,-4.448559 7.2756,-3.370079 v 0 c 1.41172,0.517902 2.55985,1.57539 3.19187,2.939827 0.63202,1.364441 0.6961,2.924061 0.17822,4.335762 v 0 c -1.07849,2.93972 -4.33588,4.448555 -7.2756,3.370079 v 0 c -2.93973,-1.078476 -4.44855,-4.335869 -3.37009,-7.275589 z"
       fill-rule="evenodd"
       id="path11" /><path
       stroke="#0180c9"
       stroke-width="1"
       stroke-linejoin="round"
       stroke-linecap="butt"
       d="m 273.61047,42.361794 v 0 c 1.07849,-2.93972 4.33588,-4.448559 7.2756,-3.370079 v 0 c 1.41172,0.517902 2.55985,1.57539 3.19187,2.939827 0.63202,1.364441 0.6961,2.924061 0.17822,4.335762 v 0 c -1.07849,2.93972 -4.33588,4.448555 -7.2756,3.370079 v 0 c -2.93973,-1.078476 -4.44855,-4.335869 -3.37009,-7.275589 z"
       fill-rule="evenodd"
       id="path12" /><path
       fill="#ffffff"
       d="M 255.1195,48.15815 282.74154,69.292008 264.22186,93.575471 236.59982,72.441613 Z"
       fill-rule="evenodd"
       id="path13" /><path
       stroke="#0180c9"
       stroke-width="8"
       stroke-linejoin="round"
       stroke-linecap="butt"
       d="M 255.1195,48.15815 282.74154,69.292008 264.22186,93.575471 236.59982,72.441613 Z"
       fill-rule="evenodd"
       id="path14" /><path
       fill="#ffffff"
       d="m 255.07481,45.727894 29.96904,22.578686 v 0 c 3.92606,2.95787 5.06543,8.067795 2.54492,11.413338 -2.52048,3.345543 -7.74643,3.659813 -11.67245,0.701942 L 245.94725,57.84317 v 0 c -3.92603,-2.957866 -5.06543,-8.067791 -2.54492,-11.413334 2.5205,-3.345539 7.74646,-3.659809 11.67248,-0.701942 z"
       fill-rule="evenodd"
       id="path15" /><path
       stroke="#0180c9"
       stroke-width="8"
       stroke-linejoin="round"
       stroke-linecap="butt"
       d="m 255.07481,45.727894 29.96904,22.578686 v 0 c 3.92606,2.95787 5.06543,8.067795 2.54492,11.413338 -2.52048,3.345543 -7.74643,3.659813 -11.67245,0.701942 L 245.94725,57.84317 v 0 c -3.92603,-2.957866 -5.06543,-8.067791 -2.54492,-11.413334 2.5205,-3.345539 7.74646,-3.659809 11.67248,-0.701942 z"
       fill-rule="evenodd"
       id="path16" /><path
       fill="#ffffff"
       d="m 256.1716,53.546833 21.76379,17.165356 -30.4252,38.708661 -21.76378,-17.165357 z"
       fill-rule="evenodd"
       id="path17" /><path
       fill="#ffffff"
       d="M 25.380577,185.60892 H 291.74276 v 55.87402 H 25.380577 Z"
       fill-rule="evenodd"
       id="path18" /><path
       stroke="#ffffff"
       stroke-width="1"
       stroke-linejoin="round"
       stroke-linecap="butt"
       d="M 25.380577,185.60892 H 291.74276 v 55.87402 H 25.380577 Z"
       fill-rule="evenodd"
       id="path19" /><path
       fill="#0180c9"
       d="m 93.879745,183.4559 c -0.02653,0 -0.05661,0.008 -0.08845,0.0254 -0.137985,0.0753 -0.197243,0.24531 -0.118523,0.35867 0.09464,0.14888 0.175133,0.22163 0.234398,0.22163 0.07695,0 0.121178,-0.12011 0.121178,-0.35359 0,-0.15988 -0.05838,-0.25209 -0.148598,-0.25209 z m -0.300735,1.13693 c -0.318429,0 -0.554589,0.74611 -0.459061,1.4753 0.0398,0.37729 -0.11853,0.49064 -0.769531,0.54732 -0.671349,0.0753 -0.770409,0.13197 -0.513901,0.41536 0.158325,0.18864 0.533363,0.34005 0.849129,0.34005 0.315773,0 0.651008,0.11336 0.750068,0.24533 0.0628,0.12096 0.16452,0.18103 0.252976,0.18103 0.02211,0 0.04334,-0.003 0.0628,-0.011 0.07872,-0.0567 0.513024,-0.24531 0.967659,-0.41536 0.473221,-0.2081 0.789871,-0.51008 0.789871,-0.75541 0,-0.26731 -0.123832,-0.4162 -0.277732,-0.4162 -0.107026,0 -0.229096,0.0727 -0.334351,0.22755 -0.10791,0.16074 -0.21405,0.23602 -0.306038,0.23602 -0.177788,0 -0.306045,-0.27999 -0.306045,-0.76472 -0.02034,-0.8307 -0.197243,-1.20799 -0.671349,-1.30273 -0.0115,-0.002 -0.02299,-0.003 -0.03449,-0.003 z m -20.77282,15.76732 c 0.137985,0 0.256507,0.0947 0.256507,0.22672 0,0.13195 -0.05926,0.24531 -0.118522,0.24531 -0.05926,0 -0.177788,-0.11336 -0.256516,-0.24531 -0.07872,-0.13198 -0.0398,-0.22672 0.118531,-0.22672 z m 111.17373,12.70505 c -0.0389,0 -0.069,0.18864 -0.069,0.51179 0,0.31638 0.0292,0.50417 0.0663,0.50417 0.0168,0 0.0345,-0.0347 0.0522,-0.10828 0.0593,-0.22671 0.0593,-0.58538 0,-0.81125 -0.0168,-0.066 -0.0345,-0.0964 -0.0495,-0.0964 z m 2.99408,-5.60768 c -8.9e-4,0 -0.002,0 -0.004,0.002 -0.0787,0.0567 -0.19724,1.75615 -0.27596,3.75763 -0.0991,2.00063 -0.19725,3.79485 -0.25651,3.96488 -0.0593,0.17004 -0.0593,0.41536 0.0194,0.52871 0.0814,0.12604 0.15215,0.19541 0.2123,0.19541 0.24676,0 0.33256,-1.15131 0.38034,-4.27365 0.0194,-2.31447 -0.0186,-4.17467 -0.0761,-4.17467 z m -2.99143,7.43658 c -0.0318,0 -0.0522,0.29016 -0.0522,0.79688 0,0.50755 0.0203,0.79771 0.0522,0.79771 0.0142,0 0.0292,-0.0508 0.0469,-0.15565 0.0593,-0.34008 0.0593,-0.92545 0,-1.28414 -0.0177,-0.10489 -0.0327,-0.1548 -0.0469,-0.1548 z m -0.0141,2.32039 c -0.0469,0 -0.077,0.13367 -0.077,0.36459 0,0.23095 0.0301,0.36461 0.077,0.36461 0.0186,0 0.0389,-0.0203 0.061,-0.0626 0.0593,-0.17003 0.0593,-0.43396 0,-0.60399 -0.0221,-0.0423 -0.0425,-0.0626 -0.061,-0.0626 z M 81.17635,214.5202 c 0.158332,0 0.27597,0.2081 0.27597,0.47203 0,0.24617 0.118523,0.47203 0.237053,0.47203 0.137985,0 0.256508,-0.1125 0.256508,-0.24531 0,-0.14635 0.26358,-0.22164 0.581123,-0.22164 0.297196,0 0.641274,0.066 0.860634,0.20302 0.237053,0.13196 0.256508,0.24532 0.05927,0.35867 -0.13887,0.0948 -0.276855,0.32062 -0.276855,0.52872 0,0.16411 0.02388,0.24446 0.09199,0.24446 0.05838,0 0.147713,-0.0567 0.283043,-0.16917 0.170716,-0.13367 0.306931,-0.19373 0.404228,-0.19373 0.217591,0 0.236161,0.30284 -0.0089,0.7605 -0.177787,0.3206 -0.257393,0.69873 -0.158325,0.8307 0.09907,0.15058 0.0398,0.43396 -0.118522,0.62261 -0.212288,0.24278 -0.451104,0.3519 -0.681077,0.3519 -0.541328,0 -1.036651,-0.60315 -1.036651,-1.50322 0,-0.34006 -0.157448,-0.75542 -0.354691,-0.94405 -0.474098,-0.45343 -0.770416,-1.56752 -0.41484,-1.56752 z m 4.993088,3.54784 c 0.288353,0 0.712036,0.23347 0.712036,0.45511 0,0.13197 -0.157448,0.24533 -0.355576,0.24533 -0.394493,0 -0.769531,-0.43398 -0.552826,-0.64208 0.04777,-0.0406 0.116761,-0.0584 0.196366,-0.0584 z m 97.814022,0.74949 c -0.0327,0 -0.0531,0.23433 -0.0531,0.64968 0,0.4145 0.0203,0.65814 0.0522,0.65814 0.0142,0 0.0292,-0.0415 0.0469,-0.12943 0.0593,-0.28338 0.0593,-0.77403 0,-1.05741 -0.0177,-0.0821 -0.0327,-0.12098 -0.046,-0.12098 z m 3.13472,-17.91851 c 0.49887,0 0.59174,0.1125 0.64215,0.59384 0.1778,1.47276 0.0593,2.17151 -0.51301,2.94552 -0.4343,0.60401 -0.4343,0.69875 -0.0991,1.05742 0.33612,0.35868 0.37503,1.85005 0.39537,11.38455 0.0159,8.22838 -0.0778,11.53597 -0.36441,11.53597 -0.0557,0 -0.11853,-0.12351 -0.1884,-0.35867 -0.0796,-0.24532 -0.11853,-1.26467 -0.0796,-2.28402 0.0203,-1.0202 -0.0787,-1.8695 -0.2167,-1.94479 -0.13799,-0.0567 -0.11853,-0.17004 0.0592,-0.24533 0.43429,-0.18948 0.3945,-1.0388 -0.0592,-1.0388 -0.29633,0 -0.33524,0.41536 -0.29633,2.47351 0.0398,1.3594 -0.0195,2.66214 -0.11851,2.88885 -0.004,0.011 -0.008,0.0161 -0.0115,0.0161 -0.0769,0 -0.16629,-2.02347 -0.16629,-4.66107 -0.0186,-2.71799 0.0566,-4.89289 0.13356,-4.89289 0.002,0 0.004,8.6e-4 0.005,0.003 0.0982,0.0753 0.19725,0.92461 0.21671,1.86867 0.0407,1.45584 0.0725,1.99893 0.1716,1.99893 0.0451,0 0.10348,-0.11166 0.18397,-0.29945 0.29808,-0.62346 0.3149,-1.9025 0.0504,-1.9025 -0.0159,0 -0.0327,0.005 -0.0504,0.0144 -0.0407,0.0322 -0.0814,0.0465 -0.11674,0.0465 -0.069,0 -0.1203,-0.0541 -0.1203,-0.14127 0,-0.13197 0.11853,-0.24531 0.23704,-0.24531 0.35558,0 0.31578,-1.03797 -0.0593,-1.41609 -0.14859,-0.15396 -0.20432,-0.22588 -0.16628,-0.22588 0.0221,0 0.0778,0.0254 0.16628,0.0753 0.0398,0.022 0.0752,0.0338 0.10702,0.0338 0.15392,0 0.20876,-0.28085 0.20876,-0.94067 0,-0.81125 -0.0991,-1.07602 -0.37503,-1.07602 -0.31578,0 -0.35558,0.17003 -0.23706,0.79347 0.0991,0.47203 0.0593,0.86794 -0.0982,0.96268 -0.004,0.002 -0.006,0.003 -0.009,0.003 -0.15301,0 -0.24855,-2.44136 -0.268,-7.59224 -0.0195,-4.24826 -0.0593,-8.09979 -0.0787,-8.55321 -0.0398,-0.75541 0,-0.8121 0.80932,-0.86793 0.11588,-0.006 0.21671,-0.009 0.30516,-0.009 z m -33.17459,-25.32805 c -0.77041,0 -1.91497,0.90599 -1.91497,1.52859 0,0.22672 -0.21759,0.35868 -0.57229,0.35868 -0.41484,0 -0.67135,0.22671 -0.96766,0.88739 -0.37503,0.86877 -0.49356,1.32218 -0.92786,3.36088 -0.51301,2.4549 -0.84912,3.15279 -1.5992,3.34227 -0.37503,0.0939 -0.78987,0.302 -0.88804,0.47203 -0.33612,0.52872 -0.5139,4.53081 -0.29631,7.24964 l 0.19723,2.68075 -0.67134,0.22672 c -0.45375,0.15142 -0.71026,0.41536 -0.7306,0.7368 -0.0195,0.28254 -0.0982,6.09832 -0.17691,12.914 l -0.15833,12.38528 -1.04639,0.0753 c -0.10525,0.007 -0.20431,0.0102 -0.29808,0.0102 -0.45021,0 -0.74829,-0.0736 -0.74829,-0.19881 0,-0.13195 -0.27597,-0.24531 -0.61209,-0.24531 -0.49356,0 -0.63153,-0.11336 -0.63153,-0.54732 0,-0.28338 -0.11853,-0.64206 -0.25652,-0.79349 -0.15832,-0.15057 -0.29631,-1.39662 -0.31576,-2.98275 -0.0398,-2.36014 -0.0991,-2.7755 -0.49356,-3.05889 -0.37505,-0.26393 -0.47411,-0.71734 -0.55283,-2.92607 -0.0787,-2.45489 -0.0593,-2.62494 0.39449,-2.73744 0.45465,-0.11336 0.49356,-0.34006 0.49356,-3.43617 0,-1.81284 -0.0787,-3.47425 -0.15744,-3.68235 -0.0885,-0.22079 -0.16718,-0.32991 -0.23705,-0.32991 -0.22821,0 -0.35557,1.16654 -0.35557,3.40741 0,1.9448 -0.0787,3.17225 -0.23705,3.17225 -0.15745,0 -0.25651,-1.05742 -0.25651,-2.66214 -0.0195,-3.77625 -0.19725,-4.4936 -1.48069,-5.60769 -0.70407,-0.62345 -1.25778,-0.93052 -1.79113,-0.93052 -0.46791,0 -0.91989,0.23686 -1.44619,0.70381 -0.45375,0.39674 -1.1251,0.90684 -1.50013,1.11409 -0.47409,0.28339 -0.6908,0.58539 -0.6908,1.01935 0,0.34007 -0.0991,0.94406 -0.2574,1.32219 -0.13798,0.3959 -0.27597,2.8694 -0.29542,5.53155 -0.0557,4.12306 -0.0938,4.74652 -0.40688,4.74652 -0.0212,0 -0.0434,-0.003 -0.0672,-0.008 -0.0389,-0.005 -0.0752,-0.008 -0.10968,-0.008 -0.43518,0 -0.51656,0.5177 -0.69965,3.38796 -0.23704,3.47424 -0.37503,4.13492 -0.86859,4.13492 -0.3945,0 -0.43429,-0.88739 -0.4741,-13.00875 -0.0389,-7.15489 -0.0982,-13.12124 -0.15744,-13.27267 -0.17955,-0.42888 -0.54132,-0.65051 -1.0057,-0.65051 -0.2512,0 -0.53248,0.0651 -0.83055,0.19793 -0.36089,0.17258 -0.56698,0.26224 -0.71824,0.26224 -0.16275,0 -0.26269,-0.10405 -0.42633,-0.31891 -0.17778,-0.24617 -0.35557,-0.92544 -0.37592,-1.52945 -0.0584,-1.69947 -0.0787,-1.85005 -0.27596,-2.03953 -0.0991,-0.0939 -0.17779,-0.39591 -0.17779,-0.66068 0,-0.26393 -0.23705,-1.28412 -0.51302,-2.26541 -0.49356,-1.75615 -0.75007,-2.87024 -1.20471,-5.55099 -0.13798,-0.77404 -0.35469,-1.83146 -0.45376,-2.36016 l -0.2167,-0.94406 -0.13887,0.71735 c -0.0982,0.37814 -0.29543,1.71809 -0.4343,2.94554 -0.15744,1.22745 -0.39449,2.71883 -0.51301,3.30421 -0.13799,0.58538 -0.41484,1.81282 -0.61209,2.71881 -0.37503,1.64281 -1.16491,3.53093 -1.5992,3.77625 -0.13799,0.0753 -0.23705,0.56593 -0.23705,1.07602 0,0.66067 -0.0982,0.92546 -0.37503,0.92546 -0.19726,0 -0.37504,-0.11336 -0.37504,-0.22672 0,-0.13281 -0.0982,-0.24531 -0.23705,-0.24531 -0.13798,0 -0.25651,0.15057 -0.25651,0.33922 0,0.17003 -0.2565,0.37813 -0.57228,0.45341 -0.78987,0.18865 -0.88805,0.67929 -0.88805,4.11547 l -0.0204,2.88885 -1.7761,-0.15057 c -0.98712,-0.0761 -2.32981,-0.2081 -2.98081,-0.32146 -0.26005,-0.0415 -0.49179,-0.0626 -0.697,-0.0626 -0.80933,0 -1.19852,0.32907 -1.19852,1.00667 0,0.2267 -0.19725,0.49149 -0.43429,0.56677 -0.39449,0.11336 -0.4343,0.52871 -0.35558,5.1162 0.0398,2.7569 -0.0195,5.07898 -0.11853,5.19232 -0.0708,0.0558 -0.35822,0.0922 -0.74741,0.0922 -0.2627,0 -0.57228,-0.0161 -0.8907,-0.0541 -1.40196,-0.13281 -1.44177,-0.15141 -1.28343,-0.75541 0.47409,-1.79339 0.45375,-1.83144 -0.27597,-1.96341 -0.23175,-0.044 -0.41572,-0.0685 -0.56079,-0.0685 -0.42633,0 -0.5254,0.21317 -0.5254,0.80448 0,0.88739 -0.47409,1.41609 -1.34269,1.49138 l -0.75007,0.0761 -0.17779,-1.88812 c -0.0787,-1.03881 -0.0982,-2.07677 -0.0389,-2.28487 0.0593,-0.22672 0.13799,-4.22881 0.17779,-8.89243 l 0.0389,-8.49655 -0.61209,-0.11334 c -0.054,-0.009 -0.11409,-0.0144 -0.17778,-0.0144 -0.65366,0 -1.71242,0.49149 -1.46033,0.73257 0.0203,0.0195 0.0522,0.0288 0.0911,0.0288 0.10968,0 0.27686,-0.0736 0.42192,-0.19879 0.0336,-0.0262 0.0637,-0.0423 0.092,-0.0423 0.25474,0 0.30516,1.28836 0.32285,7.632 0,4.32355 0.0593,11.02587 0.11853,14.89685 l 0.0982,7.02294 h -2.23075 l -0.03892,-5.26763 c -0.0398,-5.28622 -0.05927,-6.04164 -0.138871,-8.96772 -0.05926,-1.4161 -0.117637,-1.58612 -0.551933,-1.58612 -0.414841,0 -0.493561,-0.17003 -0.533363,-1.00074 l -0.0398,-1.00073 -0.177788,1.0574 c -0.01327,0.0829 -0.02653,0.12351 -0.03892,0.12351 -0.07961,0 -0.13533,-1.57173 -0.118523,-4.01309 0.01945,-2.83219 -0.07873,-5.45627 -0.237053,-6.13555 l -0.256508,-1.18937 -0.19725,0.99989 c -0.13887,0.75542 -0.315773,1.02019 -0.651886,1.02019 -0.29631,0 -0.453758,-0.17003 -0.414833,-0.41536 0.02034,-0.2267 0,-1.02019 -0.01946,-1.73754 l -0.0398,-1.32135 -0.729729,0.11336 c -0.168053,0.0228 -0.298965,0.0381 -0.40068,0.0381 -0.315773,0 -0.349389,-0.1472 -0.349389,-0.66153 0,-0.50925 0.117646,-0.73596 0.375039,-0.73596 0.197242,0 0.37503,-0.17003 0.37503,-0.35867 0,-0.18695 -0.06899,-0.26731 -0.258278,-0.26731 -0.09729,0 -0.226433,0.0212 -0.393608,0.0592 -0.143287,0.033 -0.26712,0.0499 -0.3768,0.0499 -0.264473,0 -0.442261,-0.0998 -0.610314,-0.31384 -0.148597,-0.1971 -0.257393,-0.28592 -0.375923,-0.28592 -0.08668,0 -0.178673,0.0474 -0.295425,0.1345 -0.130906,0.10067 -0.333466,0.15988 -0.522751,0.15988 -0.09553,0 -0.187515,-0.0152 -0.266236,-0.0465 -0.11499,-0.0423 -0.199012,-0.066 -0.255622,-0.066 -0.117646,0 -0.114991,0.10067 -0.02123,0.33076 0.09907,0.22672 0.05926,1.07602 -0.09818,1.86867 -0.158325,0.79347 -0.29631,1.75615 -0.336113,2.15289 -0.0398,0.37729 -0.07872,0.83071 -0.09818,1.00073 -0.02034,0.16919 -0.217591,0.30201 -0.414833,0.30201 -0.454644,0 -0.454644,-0.32146 0.01945,-1.54891 0.263587,-0.72073 0.367073,-1.03964 0.30693,-1.03964 -0.0398,0 -0.147713,0.13449 -0.326385,0.37897 -0.868592,1.20884 -1.184365,3.17225 -1.362153,8.93051 -0.11853,3.45563 -0.33612,6.49505 -0.592628,7.77919 -0.216705,1.16992 -0.453751,3.81346 -0.532478,5.89021 -0.05926,2.05815 -0.177788,3.83292 -0.237046,3.94627 -0.04334,0.0516 -0.14064,0.0804 -0.258278,0.0804 -0.0973,0 -0.207862,-0.0195 -0.314003,-0.0618 -0.612083,-0.22671 -2.507598,-1.86951 -2.507598,-2.19012 0,-0.13196 -0.275971,-0.66068 -0.651001,-1.17077 -0.434304,-0.64207 -0.829682,-0.94406 -1.204712,-0.94406 -0.947312,0 -1.836251,-0.43396 -1.836251,-0.88739 0,-0.6226 -0.49356,-1.00073 -1.282547,-1.00073 -0.829673,0 -0.868591,0.15143 -0.177787,0.85016 0.473213,0.49065 0.49356,0.6226 0.237052,1.85005 -0.315773,1.37802 -0.21759,1.79338 0.375031,1.79338 0.375038,0 0.453758,0.66152 0.19725,1.60474 -0.08315,0.27069 -0.236168,0.4331 -0.388305,0.4331 -0.02831,0 -0.0575,-0.005 -0.0858,-0.0178 -0.02388,-0.008 -0.04776,-0.011 -0.06987,-0.011 -0.195481,0 -0.317543,0.30116 -0.423684,1.01174 -0.19725,1.43554 -0.296318,1.69947 -0.591743,1.69947 -0.177788,0 -0.256508,-1.90672 -0.256508,-5.58822 0,-3.01998 -0.07607,-5.42157 -0.172478,-5.42157 -0.0018,0 -0.0035,8.4e-4 -0.0053,0.003 -0.118522,0.0947 -0.198135,2.58687 -0.198135,5.53239 v 5.34292 l -1.519592,0.0753 -1.520478,0.0753 -0.07873,-6.41893 c -0.05926,-4.89034 -0.157441,-6.457 -0.394494,-6.53229 -0.177787,-0.0567 -0.315765,-0.45341 -0.315765,-0.90683 0,-0.88739 -0.691696,-1.73671 -1.441765,-1.73671 -0.651001,0 -0.730606,-0.17003 -0.513015,-1.11409 0.118522,-0.5287 0.49356,-1.07602 0.967659,-1.43469 0.413955,-0.302 0.750068,-0.66068 0.750068,-0.79265 0,-0.11334 -0.395378,-0.4348 -0.868591,-0.71818 -0.927857,-0.50927 -1.184364,-1.43471 -0.474106,-1.69864 0.474106,-0.18865 0.217598,-0.62345 -0.355568,-0.62345 -0.237053,0 -0.591743,-0.26393 -0.769531,-0.58538 -0.177788,-0.32061 -0.434296,-0.58539 -0.533363,-0.58539 -0.118523,0 -0.216706,-0.28255 -0.216706,-0.60399 0,-0.43482 -0.05396,-0.5634 -0.403335,-0.5634 -0.07519,0 -0.163636,0.006 -0.268013,0.0161 -0.513016,0.0567 -0.690804,0.2267 -0.750069,0.67928 -0.05926,0.32145 -0.21759,0.68013 -0.375031,0.8121 -0.158325,0.13196 -0.434295,0.54732 -0.612083,0.92545 -0.256508,0.56593 -0.256508,0.73596 0,0.90599 0.144173,0.10321 0.192825,0.15057 0.137985,0.15057 -0.03539,0 -0.11322,-0.0195 -0.237053,-0.0558 -0.07252,-0.0228 -0.141517,-0.0338 -0.207863,-0.0338 -0.386528,0 -0.672225,0.37982 -0.857978,1.18515 -0.09906,0.39673 -0.394493,0.92544 -0.631539,1.17076 -0.612083,0.66068 -0.967659,1.64281 -0.967659,2.69937 0,0.56677 -0.157448,1.0388 -0.41484,1.22745 -0.216706,0.18864 -0.631539,0.81209 -0.927857,1.39748 -0.473213,0.96267 -0.513016,1.56666 -0.591736,6.89096 l -0.07872,5.85299 -0.65189,0.13198 c -3.533634,0.7368 -5.1921,2.53018 -5.586593,6.07971 -0.145947,1.20207 -0.241474,1.53621 -0.518326,1.53621 -0.02388,0 -0.04776,-0.003 -0.0743,-0.007 -0.375034,-0.0753 -0.413952,-0.68013 -0.453754,-5.98497 -0.03981,-7.81641 -0.237053,-10.72388 -0.73061,-11.2526 -0.216705,-0.2267 -0.769528,-0.5287 -1.224167,-0.66066 -0.750069,-0.24617 -0.848251,-0.37814 -0.868595,-1.13356 -0.05926,-1.58526 -0.09818,-2.03869 -0.315773,-3.73817 -0.237049,-1.88811 -0.315769,-1.9634 -2.388188,-1.9634 -0.612083,0 -1.224166,-0.11335 -1.382495,-0.24533 -0.109681,-0.10997 -0.24059,-0.15902 -0.37238,-0.15902 -0.343193,0 -0.693462,0.3316 -0.693462,0.78163 0,0.62346 0.474102,0.56677 -6.791302,0.68013 -1.085296,0.0186 -2.290005,0.17004 -2.665039,0.32062 -0.445797,0.17256 -0.859749,0.25801 -1.154293,0.25801 -0.318424,0 -0.496212,-0.0998 -0.424568,-0.29525 0.04776,-0.13703 0.298084,-0.22416 0.702305,-0.22416 0.09907,0 0.206978,0.005 0.323734,0.0161 0.19017,0.0152 0.340538,0.0228 0.458176,0.0228 0.333465,0 0.389186,-0.0677 0.27243,-0.24954 -0.118523,-0.18865 -0.216705,-0.43398 -0.216705,-0.56594 0,-0.13196 -0.118523,-0.22671 -0.257393,-0.24531 -0.137985,0 -0.492676,-0.13282 -0.80933,-0.30201 -0.222897,-0.12097 -0.516556,-0.18441 -0.7598,-0.18441 -0.09995,0 -0.191937,0.011 -0.266235,0.033 -0.395379,0.11335 -0.474102,0.35868 -0.4343,1.60473 0.01946,0.79349 -0.05926,1.68087 -0.158325,1.96341 -0.124718,0.35953 -0.770413,0.68097 -1.140141,0.68097 -0.154789,0 -0.260933,-0.0558 -0.260933,-0.18948 0,-0.11928 -0.01769,-0.17764 -0.0513,-0.17764 -0.110565,0 -0.398033,0.63275 -0.837635,1.81959 -0.375034,1.05742 -0.828792,1.81284 -1.322349,2.20958 l -0.73061,0.58539 -0.05926,6.70231 c -0.05927,6.90957 -0.118527,7.34438 -1.085301,7.34438 -0.296312,0 -0.355573,1.54805 -0.355573,10.49716 v 10.49718 H 283.80267 l -0.0593,-17.16142 -0.0592,-17.18172 -0.57229,-1.00075 c -0.29633,-0.56592 -0.67136,-1.68001 -0.84912,-2.51071 l -0.29633,-1.49138 -1.81592,-0.17004 c -0.4281,-0.0381 -0.78808,-0.0609 -1.09149,-0.0609 -1.36304,0 -1.59299,0.47203 -1.77078,2.23241 -0.138,1.18937 -0.37503,1.88812 -1.02692,2.92608 l -0.86859,1.34079 v 3.58676 3.58759 l -0.84915,-0.15141 c -0.47321,-0.0939 -1.24362,-0.32061 -1.71683,-0.50925 l -0.86859,-0.34007 v -1.71808 c 0,-1.05742 -0.13889,-1.88812 -0.33612,-2.17151 -0.1778,-0.26393 -0.41397,-0.77403 -0.49356,-1.13271 -0.0982,-0.34007 -0.27597,-0.64206 -0.41394,-0.64206 -0.13889,0 -0.23706,-0.26393 -0.23706,-0.56593 0,-0.55662 -0.89072,-1.4254 -1.35861,-1.4254 -0.0726,0 -0.13447,0.0203 -0.18134,0.066 -0.11853,0.11334 -0.27686,2.69935 -0.35556,5.72018 -0.0787,3.04028 -0.23706,5.73965 -0.33524,6.00442 -0.13269,0.34768 -0.32019,0.44411 -1.25778,0.44411 -0.18222,0 -0.39361,-0.004 -0.63772,-0.0101 -1.93445,-0.0186 -2.29001,-0.15057 -2.29001,-0.79263 0,-0.49657 -0.82526,-0.6869 -3.38416,-0.6869 -0.55636,0 -1.19586,0.009 -1.92648,0.0262 l -3.19753,0.0753 -0.13885,1.4161 -0.11853,1.41609 h -4.44115 l -0.0593,-9.04386 c -0.0398,-7.7978 0,-9.04387 0.31576,-9.15721 0.19725,-0.0753 0.35558,-0.35869 0.35558,-0.62262 0,-0.24278 -0.0681,-0.35612 -0.20343,-0.35612 -0.0434,0 -0.0947,0.0118 -0.15215,0.0347 -0.0239,0.008 -0.0451,0.0127 -0.0654,0.0127 -0.27597,0 -0.30959,-0.79179 -0.30959,-4.65684 0,-2.62409 -0.0796,-5.02231 -0.15832,-5.3243 -0.11853,-0.41536 -0.0389,-0.56677 0.37503,-0.66067 0.63154,-0.17003 0.67135,-0.51011 0.11853,-0.90685 -0.35558,-0.24531 -0.4343,-0.79263 -0.47322,-3.15279 -0.0203,-1.88812 -0.13887,-2.98275 -0.35558,-3.20945 -0.21759,-0.24533 -0.21759,-0.35869 -0.0398,-0.35869 0.15832,0 0.27685,-0.2267 0.27685,-0.47202 0,-0.26478 -0.11853,-0.47203 -0.2574,-0.47203 -0.13798,0 -0.19725,-0.2081 -0.11764,-0.45343 0.0858,-0.25969 0.0672,-0.3612 -0.12914,-0.3612 -0.0752,0 -0.17512,0.0144 -0.30516,0.0406 -0.0584,0.0102 -0.11763,0.0161 -0.1769,0.0161 -0.36354,0 -0.75891,-0.20133 -1.28431,-0.63953 -0.47411,-0.41534 -1.04639,-0.73596 -1.26309,-0.73596 -0.59263,0 -0.67135,-0.35867 -0.27684,-1.26466 0.31576,-0.73681 0.31576,-0.96352 0.0195,-1.6428 -0.49268,-1.15216 -1.66023,-1.78746 -3.19044,-1.78746 -0.12473,0 -0.25298,0.004 -0.38212,0.0127 -2.68539,0.18864 -3.94847,1.71808 -4.00773,4.92755 -0.0257,0.89838 -0.0513,1.29681 -0.1026,1.29681 -0.0283,0 -0.0655,-0.1235 -0.11499,-0.35275 -0.0849,-0.3976 -0.13533,-0.58624 -0.16718,-0.58624 -0.0274,0 -0.0407,0.13705 -0.0495,0.3976 -0.0195,0.34005 -0.15832,0.90599 -0.33612,1.26466 -0.2565,0.5287 -0.23616,0.66068 0.1778,0.94406 0.2565,0.18865 0.39537,0.34006 0.29631,0.35868 -0.0991,0.0195 -0.27597,0.0381 -0.3945,0.0567 -0.47409,0.0753 -0.53336,0.39673 -0.5139,2.7755 0,1.3408 -0.0787,4.02156 -0.15744,5.94774 l -0.15833,3.49286 -0.57228,-0.13282 c -0.15832,-0.0355 -0.39627,-0.0541 -0.66074,-0.0541 -0.29631,0 -0.62712,0.0237 -0.91812,0.0736 l -0.98712,0.15057 v 3.26615 3.2856 h -2.92244 c -1.93443,0 -3.00027,0.0939 -3.19751,0.28338 -0.23706,0.20726 -0.25651,3.1714 -0.13887,12.74396 l 0.15833,12.46059 -0.57228,0.58537 c -0.65366,0.67421 -2.33954,1.24776 -3.52037,1.24776 -0.17514,0 -0.33965,-0.0127 -0.48737,-0.0389 -1.04639,-0.1895 -3.07988,-1.83146 -3.17805,-2.56826 -0.0566,-0.33838 -0.2176,-0.49232 -0.51833,-0.49232 -0.0177,0 -0.0363,8.4e-4 -0.0548,0.002 -0.0442,0.005 -0.084,0.009 -0.12119,0.009 -0.35557,0 -0.36795,-0.3426 -0.33258,-2.84147 0.0195,-1.58612 0.11853,-3.73818 0.21759,-4.77698 0.11765,-1.33996 0.0787,-1.96341 -0.0991,-2.09538 -0.35557,-0.18863 -0.37503,-1.22745 -0.0398,-1.43469 0.35558,-0.2081 0.29633,-1.00074 -0.0592,-1.11409 -0.23617,-0.0753 -0.19725,-0.34008 0.15833,-0.98214 0.37503,-0.66067 0.43429,-0.98127 0.23704,-1.28328 -0.15832,-0.20809 -0.19725,-0.60398 -0.0796,-0.86877 0.0991,-0.24532 0.11853,-0.81209 0.0593,-1.22745 -0.0867,-0.51516 -0.20433,-0.70889 -0.50064,-0.70889 -0.0407,0 -0.084,0.004 -0.1309,0.011 -0.0256,0.002 -0.0504,0.003 -0.0734,0.003 -0.36089,0 -0.52187,-0.28847 -0.8739,-1.45754 -0.23706,-0.83071 -0.49356,-1.56666 -0.55283,-1.62335 -0.0593,-0.0567 -1.63812,-0.17003 -3.51417,-0.24617 l -3.39565,-0.13196 0.15833,0.92545 c 0.0982,0.50925 0.49356,1.54806 0.90838,2.30348 l 0.75008,1.39662 v 5.28708 5.26761 h -3.06043 c -3.35585,0 -3.43457,0.0372 -3.71142,1.47192 -0.15744,0.88739 -0.17778,0.88739 -1.38161,0.88739 -1.36215,0 -2.30946,-0.6226 -2.58632,-1.71809 -0.0982,-0.35867 -0.27597,-0.64122 -0.39448,-0.64122 -0.11853,0 -0.21759,-6.11777 -0.21759,-14.38675 0,-10.51663 -0.0787,-14.53819 -0.29633,-14.99161 -0.15744,-0.33921 -0.80933,-0.88737 -1.46033,-1.2266 -0.75006,-0.37813 -1.20471,-0.79348 -1.26397,-1.11409 -0.0389,-0.30199 -0.27596,-0.52871 -0.61119,-0.56678 -0.45464,-0.0567 -0.57317,-0.2267 -0.57317,-0.79263 0,-1.22745 -0.37503,-1.60474 -1.61867,-1.60474 -1.57886,0 -2.07242,0.30201 -2.07242,1.30274 0,0.73596 -0.11851,0.88739 -0.84912,1.17077 -1.42141,0.56592 -3.02063,1.7367 -3.53364,2.54879 -0.2565,0.41536 -0.55283,1.28328 -0.63155,1.92535 -0.0991,0.62344 -0.23704,1.20883 -0.31576,1.28412 -0.0159,0.0144 -0.0425,0.0212 -0.0787,0.0212 -0.15215,0 -0.47146,-0.12181 -0.78988,-0.30454 -0.39361,-0.21487 -0.92962,-0.37898 -1.23655,-0.37898 -0.0159,0 -0.0318,0 -0.0469,0.002 -0.41484,0.0186 -0.45463,0.0567 -0.0991,0.13198 0.51302,0.13196 0.57228,0.54732 0.0592,0.54732 -0.2167,0 -0.43429,-0.0186 -0.51301,-0.0567 -0.008,-0.003 -0.0177,-0.006 -0.0274,-0.006 -0.084,0 -0.22379,0.14126 -0.34761,0.32738 -0.21759,0.39588 -0.29631,21.50442 -0.0787,23.63786 0.0584,0.604 0.0195,1.1141 -0.11853,1.1141 -0.2176,0 -0.8686,-2.49212 -0.77041,-2.94554 0.0991,-0.47203 0,-1.05742 -0.19725,-1.05742 -0.0991,0 -0.17779,0.28339 -0.19725,0.64208 0,0.35867 -0.0203,1.17076 -0.0593,1.83143 -0.0239,0.68436 -0.0407,0.96268 -0.13268,0.96268 -0.061,0 -0.15301,-0.11928 -0.30162,-0.32062 -0.22908,-0.3206 -0.38742,-0.4864 -0.53689,-0.4864 -0.18486,0 -0.35469,0.25546 -0.62801,0.78841 -0.27243,0.54731 -0.50772,0.81547 -0.66693,0.81547 -0.18575,0 -0.26712,-0.36713 -0.18221,-1.08026 0.15833,-1.39662 -0.41395,-5.1348 -0.90751,-5.81493 -0.21759,-0.28338 -0.39537,-0.69874 -0.39537,-0.92544 0,-0.41536 -2.05297,-1.16992 -4.00774,-1.49138 -0.51301,-0.0753 -0.92785,-0.26393 -0.94731,-0.43396 0,-0.15143 -0.0195,-2.60548 -0.0389,-5.47572 -0.0177,-2.49466 -0.0504,-4.22374 -0.0973,-4.22374 -0.007,0 -0.0142,0.0355 -0.0212,0.10827 -0.0398,0.58539 -0.23704,1.17078 -0.43429,1.32135 -0.29631,0.2081 -0.37503,1.07602 -0.37503,4.41831 -0.0159,2.95144 -0.1371,4.38785 -0.39272,4.38785 -0.0752,0 -0.16099,-0.12267 -0.25917,-0.36629 -0.0769,-0.18442 -0.12117,-0.27408 -0.18043,-0.27408 -0.0628,0 -0.14153,0.099 -0.29367,0.29268 -0.17778,0.22671 -0.6908,0.49065 -1.14455,0.56679 -0.80934,0.17003 -0.80934,0.17003 -0.88895,1.6614 -0.0584,1.24605 -0.13798,1.50998 -0.55194,1.60473 -0.35557,0.0939 -0.47409,0.32061 -0.47409,0.906 0,1.34079 -0.37503,1.92618 -1.34269,2.09621 -0.57229,0.0939 -0.88805,0.28254 -0.88805,0.54732 0,0.20726 -0.1778,0.58538 -0.41484,0.8307 -0.23705,0.24533 -0.47411,0.94406 -0.55283,1.54806 l -0.13798,1.09548 h -3.1984 V 213.1055 199.05796 l -0.55282,-1.15132 c -0.50507,-1.02189 -0.6404,-1.29596 -0.43784,-1.29596 0.0743,0 0.1946,0.0364 0.35912,0.0871 0.1477,0.044 0.26004,0.0677 0.33876,0.0677 0.22644,0 0.17602,-0.19541 -0.10172,-0.67167 -0.13798,-0.26393 -0.45375,-0.45257 -0.71115,-0.45257 -0.2565,0 -0.57228,-0.13281 -0.67046,-0.30284 -0.0991,-0.16919 -0.15832,-2.39737 -0.11853,-4.96479 l 0.0593,-4.66362 -0.77042,-0.26477 c -0.88804,-0.302 -1.32234,-1.1327 -1.08529,-2.11398 0.11853,-0.56677 0.0389,-0.71736 -0.45464,-0.88739 -0.59175,-0.2267 -0.59175,-0.2267 -1.32236,-3.6062 -0.0787,-0.35867 -0.35557,-0.8307 -0.61207,-1.0388 -0.25652,-0.22672 -0.47411,-0.56594 -0.47411,-0.73597 0,-0.29861 -0.26712,-0.47625 -0.58377,-0.47625 -0.18487,0 -0.38653,0.0609 -0.56079,0.19287 -0.17072,0.1345 -0.26535,0.20048 -0.29808,0.20048 -0.0318,0 -0.007,-0.0609 0.061,-0.18188 0.29631,-0.47202 -0.55283,-1.22659 -1.38161,-1.22659 z"
       fill-rule="evenodd"
       id="path20" /></g><style
     type="text/css"
     id="style1">
	.st0{fill:transparent;}
	.st1{fill:#1D1D1B;}
	.st2{fill:#0089CF;}
</style></svg>
