<?xml version="1.0" encoding="utf-8"?>
<!-- Generator: Adobe Illustrator 15.1.0, SVG Export Plug-In . SVG Version: 6.00 Build 0)  -->
<!DOCTYPE svg PUBLIC "-//W3C//DTD SVG 1.1//EN" "http://www.w3.org/Graphics/SVG/1.1/DTD/svg11.dtd">
<svg version="1.1" id="Layer_1" xmlns="http://www.w3.org/2000/svg" xmlns:xlink="http://www.w3.org/1999/xlink" x="0px" y="0px"
	 width="429.112px" height="368.913px" viewBox="0 0 429.112 368.913" enable-background="new 0 0 429.112 368.913"
	 xml:space="preserve">
<path fill="#F9A11E" d="M429.112,112.683l-4.182-6.508l-11.676,7.502c-5.467-7.482-11.351-12.007-13.882-10.382
	c-2.532,1.627-0.862,8.859,3.668,16.943l-7.045,4.527c-8.797-12.607-18.617-20.435-22.728-17.797
	c-4.109,2.641-1.069,14.823,6.742,28.066l-10.252,6.587c-2.567-3.456-5.288-6.866-8.169-10.223
	c-31.376-36.555-77.589-62.534-130.126-73.152c-16.746-3.382-33.716-5.1-50.448-5.1c-19.814,0-38.799,2.358-56.524,6.78l-2.676-8.83
	c14.533-5.015,24.749-12.318,23.333-16.993c-1.418-4.677-13.97-5.082-28.841-1.188l-2.43-8.018
	c8.694-3.214,14.654-7.635,13.782-10.517c-0.874-2.879-8.287-3.249-17.302-1.099L106.333,0l-7.402,2.245l4.024,13.28
	c-8.693,3.215-14.651,7.639-13.779,10.518c0.874,2.879,8.286,3.25,17.299,1.099l2.43,8.019
	c-14.532,5.015-24.746,12.32-23.331,16.994c1.418,4.675,13.967,5.082,28.84,1.187l2.604,8.596
	C57.314,79.145,13.264,120.291,2.512,173.483c-9.38,46.411,7.765,94.76,47.099,133.562c0.437-0.755,0.942-1.475,1.599-2.102
	c2.032-1.938,4.452-3.507,7.071-4.523c-37.447-36.327-53.877-81.519-45.132-124.785C26.432,109.904,95.464,63.998,181.016,63.998
	c15.999,0,32.247,1.644,48.295,4.886c50.18,10.142,94.232,34.854,124.045,69.585c29.48,34.348,41.448,74.384,33.696,112.735
	c-10.891,53.888-58.855,94.969-125.41,107.651c1.165,2.52,2.388,5.005,3.896,7.34c0.554,0.854,0.935,1.771,1.165,2.718
	c69.296-14.226,119.439-58.408,130.986-115.56c7.203-35.623-1.116-72.416-23.456-105.413l9.958-6.397
	c8.796,12.607,18.614,20.438,22.725,17.8c4.109-2.646,1.069-14.829-6.739-28.069l7.045-4.527
	c5.471,7.482,11.354,12.008,13.885,10.382c2.531-1.628,0.863-8.858-3.671-16.943L429.112,112.683z"/>
<path fill="#F9A11E" d="M335.079,150.948c-8.602-8.393-21.664-1.755-30.594,2.572c-11.248,5.449-26.801,8.707-36.474,15.883
	l-0.514-2.057c-8.388-7.723-21.909-12.314-32.503-16.51c-8.682-3.451-19.104-5.698-28.295-7.429
	c-3.592-0.678-28.322,0.892-28.322,0.892c-0.047,2.953,1.527,5.153,0.918,8.159c-11.809-17.301-22.358-35.528-37.701-50.661
	c-6.992-6.902-14.8-14.165-25.693-10.78c-9.242,2.861-13.381,16.27-15.779,24.633c-3.091,10.758-2.292,21.562-2.657,32.723
	c-0.174,5.386,0.011,11.714-1.662,16.812c-0.899,2.744-7.32,9.787-4.997,10.872l-0.778,3.081c-2.85,1.561,0.27,7.228,1.242,10.634
	c-5.222,1.162-10.295,1.982-15.604,2.411c6.735,2.416,9.369,7.439,2.839,10.954c-4.743,2.549-12.026,1.302-16.843-0.15
	c2.848,7.672,8.559,13.415,13.693,19.019c-17.166,5.788-5.198,14.543,0.778,24.621c-4.952,1.318-9.33,0.18-14.313,0.016
	c2.673,2.564,5.571,4.984,7.961,7.631c-3.295,1.217-6.751,0.979-10.258,1.029c4.325,9.848,9.988,11.248,18.913,15.408
	c-1.599,1.527-1.924,3.1-4.481,3.833c7.958,11.764,17.312,16.771,29.131,24.288c5.065,3.224,8.046,7.333,13.81,8.599
	c7.474,1.638,11.714-0.365,18.563,3.97c11.92,7.543,21.562,14.478,36.174,15.239c10.878,0.563,26.112-5.274,28.367,9.928
	c3.425-2.928,7.347-6.161,9.835-10.021c8.649,5.135,16.25,14.146,11.656,24.579c9.716-2.186,13.579-9.781,20.048-15.438
	c4.185-3.663,5.066-4.782,9.445,1.897c2.645,4.025,2.38,6.72,3.595,11.27c2.612-3.409,6.368-11.854,9.628-14.572
	c3.988-3.321,10.64-0.831,15.457-0.085c0.232-4.377,0.556-9.66-0.551-13.577c10.688-0.619,16.482,1.763,13.246-10.731
	c4.465-1.917,11.732-5.098,13.554-9.298c1.763-4.055-0.011-13.104-0.011-17.746l0.768-3.84c-0.347-5.293,3.459-9.097,4.801-13.865
	c2.112-7.535,0.096-5.095-3.975-11.503c1.545-1.879,3.734-3.043,6.087-3.052l1.543-5.388c-0.681,0.063-0.808,0.474-1.456,0.074
	c-0.277-5.426,0.061-10.841,1.469-15.946c1.459-5.302,5.72-9.182,8.711-14.345c6.174-10.679,14.088-22.941,15.898-35.388
	C341.056,170.602,342.085,157.787,335.079,150.948z M122.482,181.111c-7.474-2.987-19.808-0.5-13.752-11.708l1.027-2.567
	c2.879-14.716-3.271-28.197-2.562-42.931c0.479-9.867,6.937-26.315,19.987-23.135c9.888,2.408,14.027,17.155,18.267,25.066
	c2.97,5.519,6.246,10.931,9.912,15.919c2.21,2.999,9.954,10.899,8.207,15.364c-0.942,2.403-4.719,2.21-6.72,3.078
	c-2.604,1.127-4.603,3.453-7.143,4.742c-3.822,1.938-8.554,1.43-12.783,1.387c-3.488-0.037-14.424-3.199-16.862-0.037
	C117.607,169.477,122.831,177.705,122.482,181.111z M135.363,224.992c1.834-6.632,11.108-9.863,20.705-7.214
	c9.591,2.665,15.877,10.194,14.043,16.843c-1.847,6.638-11.11,9.866-20.707,7.226C139.809,239.184,133.523,231.641,135.363,224.992z
	 M211.815,302.771c-5.171,1.927-13.563,0.614-17.991-2.326c-5.14-3.414-9.081-8.914-15.451-9.914c0,0-13.926,3.17-19.971,3.456
	c-7.077,0.336-14.985-7.297-14.985-7.297c-0.804-0.167,3.462-2.69,3.462-2.69c2.628-0.117,8.106,4.877,12.325,5.358
	c5.407,0.616,16.48-3.824,16.48-3.824c0.529-1.866,0.715-4.536,0.387-6.514c-0.238-1.466-2.038-5.859-2.303-5.391
	c0,0-6.868-7.527-8.453-9.604c0,0,3.483-3.592,4.61-4.611l0.384-0.386c7.117,6.934,16.494,9.607,25.659,4.269
	c1.054,1.982,2.255,3.748,3.15,5.72l-15.367,9.221c-0.844,2.549-0.384,5.754-0.384,8.453c0,0,7.707,6.156,11.91,9.581
	c3.372,2.75,16.131,2.707,16.131,2.707C211.324,300.308,212.496,302.946,211.815,302.771z M243.808,252.393
	c-1.847,6.633-11.105,9.867-20.707,7.229c-9.591-2.66-15.876-10.208-14.048-16.849c1.842-6.641,11.116-9.88,20.712-7.22
	C239.354,238.215,245.655,245.753,243.808,252.393z M319.081,205.141c-2.123,4.356-4.545,7.899-8.588,10.761
	c-6.057,4.285-5.257,5.354-7.781,12.283c-1.914,5.24-3.34,8.945-8.564,6.656c-4.283-1.885-11.619-6.548-14.422-10.123
	c5.025-4.076,12.551-5.071,17.926-7.776c-0.709-3.146-3.875-4.777-5.469-7.593c-1.805-3.179-0.952-7.467-3.082-10.27
	c-2.954-3.861-8.258-0.895-13.329-1.559c-0.079-1-0.341-2.554-0.071-3.536l0.502-0.516c-0.607-0.334,0.303-10.293,1.176-12.78
	c1.779-5.082,7.604-7.45,12.156-9.888c9.766-5.23,20.596-10.608,31.74-11.646C345.216,156.93,323.509,196.062,319.081,205.141z"/>
</svg>
